<?xml version="1.0" standalone="no"?>
<!DOCTYPE svg PUBLIC "-//W3C//DTD SVG 1.1//EN" "http://www.w3.org/Graphics/SVG/1.1/DTD/svg11.dtd" >
<svg>
<metadata>
Created by FontForge 20090622 at Mon Mar  2 08:57:37 2020
 By deploy user
Copyright (c) 2012 by 29 Letters / 29LT. All rights reserved.
</metadata>
<defs>
<font id="29LTBukra-Medium" horiz-adv-x="0" >
  <font-face 
    font-family="29LT Bukra"
    font-weight="500"
    font-stretch="normal"
    units-per-em="1000"
    panose-1="2 11 9 3 2 2 4 2 2 4"
    ascent="825"
    descent="-175"
    x-height="563"
    cap-height="811"
    bbox="-151 -341 1501 1046"
    underline-thickness="50"
    underline-position="-50"
    unicode-range="U+0020-U+FEFC"
  />
<missing-glyph horiz-adv-x="500" 
 />
    <glyph glyph-name="uni06440622" unicode="&#xfedf;&#xfe82;" horiz-adv-x="746" arabic-form="isolated" 
d="M72 0l-17 140h285q72 0 113 34q42 36 42 104v607h205v-140h-65v-462q0 -142 -75 -211q-79 -72 -249 -72h-239zM197 190v527h140v-527h-140zM107 769v65h273v-65h-273z" />
    <glyph glyph-name="uni06440622.fina" unicode="&#xfee0;&#xfe82;" horiz-adv-x="748" arabic-form="final" 
d="M72 0l-17 140h285q72 0 113 34q42 36 42 104v607h205v-140h-65v-462q0 -46 -11 -92q45 -51 144 -51v-140q-141 0 -185 97q-12 -15 -23 -25q-79 -72 -249 -72h-239zM197 190v527h140v-527h-140zM109 769v65h273v-65h-273z" />
    <glyph glyph-name="uni06440623" unicode="&#xfedf;&#xfe84;" horiz-adv-x="746" arabic-form="isolated" 
d="M72 0l-17 140h285q72 0 113 34q42 36 42 104v607h205v-140h-65v-462q0 -142 -75 -211q-79 -72 -249 -72h-239zM197 190v527h140v-527h-140zM139 769v46q0 124 126 124h50v-45h-42q-54 0 -54 -50h128v-75h-208z" />
    <glyph glyph-name="uni06440623.fina" unicode="&#xfee0;&#xfe84;" horiz-adv-x="748" arabic-form="final" 
d="M72 0l-17 140h285q72 0 113 34q42 36 42 104v607h205v-140h-65v-462q0 -46 -11 -92q45 -51 144 -51v-140q-141 0 -185 97q-12 -15 -23 -25q-79 -72 -249 -72h-239zM197 190v527h140v-527h-140zM139 769v46q0 124 126 124h50v-45h-42q-54 0 -54 -50h128v-75h-208z" />
    <glyph glyph-name="uni06440625" unicode="&#xfedf;&#xfe88;" horiz-adv-x="746" arabic-form="isolated" 
d="M265 -247q-126 0 -126 124v46h208v-75h-128q0 -50 54 -50h42v-45h-50zM72 0l-17 140h285q72 0 113 34q42 36 42 104v607h205v-140h-65v-462q0 -142 -75 -211q-79 -72 -249 -72h-239zM197 190v527h140v-527h-140z" />
    <glyph glyph-name="uni06440625.fina" unicode="&#xfee0;&#xfe88;" horiz-adv-x="748" arabic-form="final" 
d="M72 0l-17 140h285q72 0 113 34q42 36 42 104v607h205v-140h-65v-462q0 -46 -11 -92q45 -51 144 -51v-140q-141 0 -185 97q-12 -15 -23 -25q-79 -72 -249 -72h-239zM197 190v527h140v-527h-140zM265 -247q-126 0 -126 124v46h208v-75h-128q0 -50 54 -50h42v-45h-50z" />
    <glyph glyph-name="uni06440627" unicode="&#xfedf;&#xfe8e;" horiz-adv-x="746" arabic-form="isolated" 
d="M72 0l-17 140h285q72 0 113 34q42 36 42 104v607h205v-140h-65v-462q0 -142 -75 -211q-79 -72 -249 -72h-239zM197 190v527h140v-527h-140z" />
    <glyph glyph-name="uni06440627.fina" unicode="&#xfee0;&#xfe8e;" horiz-adv-x="748" arabic-form="final" 
d="M72 0l-17 140h285q72 0 113 34q42 36 42 104v607h205v-140h-65v-462q0 -46 -11 -92q45 -51 144 -51v-140q-141 0 -185 97q-12 -15 -23 -25q-79 -72 -249 -72h-239zM197 190v527h140v-527h-140z" />
    <glyph glyph-name="uni06440671" unicode="&#xfedf;&#xfb51;" horiz-adv-x="719" 
d="M72 0l-17 140h285q72 0 113 34q42 36 42 104v607h205v-140h-65v-462q0 -142 -75 -211q-79 -72 -249 -72h-239zM197 190v527h140v-527h-140zM126 744v55h69q0 37 25 64.5t66 27.5q52 0 82.5 -27.5t30.5 -80.5v-39h-273zM284 846q-21 0 -32.5 -13.5t-11.5 -33.5h89
q0 20 -11.5 33.5t-33.5 13.5z" />
    <glyph glyph-name="uni06440671.fina" unicode="&#xfee0;&#xfb51;" horiz-adv-x="746" 
d="M72 0l-17 140h285q72 0 113 34q42 36 42 104v607h205v-140h-65v-462q0 -46 -11 -92q45 -51 144 -51v-140q-141 0 -185 97q-12 -15 -23 -25q-79 -72 -249 -72h-239zM197 190v527h140v-527h-140zM126 744v55h69q0 37 25 64.5t66 27.5q52 0 82.5 -27.5t30.5 -80.5v-39h-273z
M284 846q-21 0 -32.5 -13.5t-11.5 -33.5h89q0 20 -11.5 33.5t-33.5 13.5z" />
    <glyph glyph-name="uni0621" unicode="&#x621;" horiz-adv-x="543" arabic-form="isolated" 
d="M73 0v191q0 150 72.5 225t207.5 75h90v-140h-119q-50 0 -80.5 -35.5t-30.5 -97.5v-78h274v-140h-414z" />
    <glyph glyph-name="uni0622" unicode="&#x622;" horiz-adv-x="346" arabic-form="isolated" 
d="M134 0v690h140v-690h-140zM70 735v65h273v-65h-273z" />
    <glyph glyph-name="uni0623" unicode="&#x623;" horiz-adv-x="357" arabic-form="isolated" 
d="M145 0v690h140v-690h-140zM110 735v46q0 124 126 124h50v-45h-42q-54 0 -54 -50h128v-75h-208z" />
    <glyph glyph-name="uni0624" unicode="&#x624;" horiz-adv-x="601" arabic-form="isolated" 
d="M556 563l-1 -525q0 -123 -58.5 -190.5t-198.5 -67.5q-60 0 -146 24l-10 141q79 -25 146 -25q63 0 91.5 15.5t34.5 64.5h-16q-154 0 -248.5 69.5t-94.5 212.5q0 129 95.5 205t247.5 76h158zM195 282q0 -67 46 -104.5t116 -37.5h59v283h-59q-65 0 -113.5 -39.5
t-48.5 -101.5zM345 640v73q0 124 126 124h60v-45h-52q-54 0 -54 -50v-27h138v-75h-218z" />
    <glyph glyph-name="uni0625" unicode="&#x625;" horiz-adv-x="352" arabic-form="isolated" 
d="M236 -219q-126 0 -126 124v46h208v-75h-128q0 -50 54 -50h42v-45h-50zM145 0v811h140v-811h-140z" />
    <glyph glyph-name="uni0626" unicode="&#x626;" horiz-adv-x="1083" arabic-form="isolated" 
d="M41 454v73q0 124 126 124h60v-45h-52q-54 0 -54 -50v-27h138v-75h-218zM401 -125q-89 0 -148.5 19t-105.5 63q-67 63 -67 207v219h140v-202q0 -93 42 -128q45 -38 149 -38h146v282q0 144 86 213q68 53 191 53h189v-563h-140v423h-64q-53 0 -85 -25q-17 -13 -27 -39.5
t-10 -52.5v-431h-296z" />
    <glyph glyph-name="uni0627" unicode="&#x627;" horiz-adv-x="345" arabic-form="isolated" 
d="M130 0v811h140v-811h-140z" />
    <glyph glyph-name="uni0628" unicode="&#x628;" horiz-adv-x="863" arabic-form="isolated" 
d="M372 0q-89 0 -148.5 19t-105.5 63q-67 63 -67 207v189h140v-172q0 -93 42 -128q45 -38 149 -38h280v423h140v-563h-430zM472 -213q-35 0 -58.5 20t-23.5 55q0 33 23.5 53.5t58.5 20.5q36 0 59 -20.5t23 -53.5q0 -35 -23.5 -55t-58.5 -20z" />
    <glyph glyph-name="uni0629" unicode="&#x629;" horiz-adv-x="613" arabic-form="isolated" 
d="M557 0h-160q-155 0 -248.5 71.5t-93.5 209.5q0 124 92 203t250 79h20v50h140v-613zM356 140h61v283h-54q-66 0 -117 -39t-51 -103q0 -66 47.5 -103.5t113.5 -37.5zM473 687q-33 0 -55.5 19t-22.5 53q0 31 22.5 51t55.5 20q34 0 56 -20t22 -51q0 -34 -22.5 -53t-55.5 -19z
M256 687q-33 0 -55.5 19t-22.5 53q0 31 22.5 51t55.5 20t55.5 -20t22.5 -51q0 -34 -22.5 -53t-55.5 -19z" />
    <glyph glyph-name="uni062A" unicode="&#x62a;" horiz-adv-x="863" arabic-form="isolated" 
d="M372 0q-89 0 -148.5 19t-105.5 63q-67 63 -67 207v189h140v-172q0 -93 42 -128q45 -38 149 -38h280v423h140v-563h-430zM323 595q-33 0 -55.5 19t-22.5 53q0 31 22.5 51t55.5 20t55.5 -20t22.5 -51q0 -34 -22.5 -53t-55.5 -19zM540 595q-33 0 -55.5 19t-22.5 53
q0 31 22.5 51t55.5 20q34 0 56 -20t22 -51q0 -34 -22.5 -53t-55.5 -19z" />
    <glyph glyph-name="uni062B" unicode="&#x62b;" horiz-adv-x="863" arabic-form="isolated" 
d="M372 0q-89 0 -148.5 19t-105.5 63q-67 63 -67 207v189h140v-172q0 -93 42 -128q45 -38 149 -38h280v423h140v-563h-430zM325 591q-32 0 -53.5 18.5t-21.5 51.5q0 30 21 49.5t54 19.5t54.5 -19.5t21.5 -49.5q0 -33 -22 -51.5t-54 -18.5zM431 750q-28 0 -47.5 16t-19.5 45
q0 27 19 44t48 17t48 -17t19 -44q0 -29 -19.5 -45t-47.5 -16zM537 591q-32 0 -53.5 18.5t-21.5 51.5q0 30 21 49.5t54 19.5t54.5 -19t21.5 -50q0 -33 -22 -51.5t-54 -18.5z" />
    <glyph glyph-name="uni062C" unicode="&#x62c;" horiz-adv-x="598" arabic-form="isolated" 
d="M105 -220q-80 114 -80 259q0 56 9 101h370q17 75 17 143q0 78 -49 121q-43 38 -118 38q-76 0 -145 -44l-58 122q109 62 220 62q124 0 199 -77q90 -90 90 -233q0 -125 -48 -272h-345v-15q0 -73 47 -154zM365 -213q-35 0 -58.5 20t-23.5 55q0 33 23.5 53.5t58.5 20.5
q36 0 59 -20.5t23 -53.5q0 -35 -23.5 -55t-58.5 -20z" />
    <glyph glyph-name="uni062D" unicode="&#x62d;" horiz-adv-x="598" arabic-form="isolated" 
d="M105 -220q-80 114 -80 259q0 56 9 101h370q17 75 17 143q0 78 -49 121q-43 38 -118 38q-76 0 -145 -44l-58 122q109 62 220 62q124 0 199 -77q90 -90 90 -233q0 -125 -48 -272h-345v-15q0 -73 47 -154z" />
    <glyph glyph-name="uni062E" unicode="&#x62e;" horiz-adv-x="598" arabic-form="isolated" 
d="M245 660q-35 0 -58.5 20t-23.5 55q0 33 23.5 53.5t58.5 20.5q36 0 59 -20.5t23 -53.5q0 -35 -23.5 -55t-58.5 -20zM105 -220q-80 114 -80 259q0 56 9 101h370q17 75 17 143q0 78 -49 121q-43 38 -118 38q-76 0 -145 -44l-58 122q109 62 220 62q124 0 199 -77
q90 -90 90 -233q0 -125 -48 -272h-345v-15q0 -73 47 -154z" />
    <glyph glyph-name="uni062F" unicode="&#x62f;" horiz-adv-x="575" arabic-form="isolated" 
d="M35 0v140h349v153q0 57 -27 92q-29 38 -85 38h-60v140h46q137 0 208 -75q58 -62 58 -201v-287h-489z" />
    <glyph glyph-name="uni0630" unicode="&#x630;" horiz-adv-x="575" arabic-form="isolated" 
d="M286 637q-35 0 -58.5 20t-23.5 55q0 33 23.5 53.5t58.5 20.5q36 0 59 -20.5t23 -53.5q0 -35 -23.5 -55t-58.5 -20zM35 0v140h349v153q0 57 -27 92q-29 38 -85 38h-60v140h46q137 0 208 -75q58 -62 58 -201v-287h-489z" />
    <glyph glyph-name="uni0631" unicode="&#x631;" horiz-adv-x="371" arabic-form="isolated" 
d="M111 -220q-40 0 -71 9l-10 140q33 -9 66 -9q41 0 58 22.5t17 75.5v545h140v-525q0 -136 -46.5 -197t-153.5 -61z" />
    <glyph glyph-name="uni0632" unicode="&#x632;" horiz-adv-x="379" arabic-form="isolated" 
d="M111 -220q-40 0 -71 9l-10 140q33 -9 66 -9q41 0 58 22.5t17 75.5v545h140v-525q0 -136 -46.5 -197t-153.5 -61zM237 648q-35 0 -58.5 20t-23.5 55q0 33 23.5 53.5t58.5 20.5q36 0 59 -20.5t23 -53.5q0 -35 -23.5 -55t-58.5 -20z" />
    <glyph glyph-name="uni0633" unicode="&#x633;" horiz-adv-x="1422" arabic-form="isolated" 
d="M1112 -10q-139 0 -199 96q-83 -86 -199 -86h-103v-125h-230q-89 0 -148.5 19t-105.5 63q-67 63 -67 207v327h140v-310q0 -93 42 -128q45 -38 149 -38h80v548h140v-423h103q54 0 93 29t39 96v248h140v-248q1 -67 34.5 -101t91.5 -34t89 33.5t31 92.5v377h139v-359
q0 -144 -64 -214t-195 -70z" />
    <glyph glyph-name="uni0634" unicode="&#x634;" horiz-adv-x="1422" arabic-form="isolated" 
d="M1112 -10q-139 0 -199 96q-83 -86 -199 -86h-103v-125h-230q-89 0 -148.5 19t-105.5 63q-67 63 -67 207v327h140v-310q0 -93 42 -128q45 -38 149 -38h80v548h140v-423h103q54 0 93 29t39 96v248h140v-242q0 -69 33.5 -105t92.5 -36q58 0 89 33.5t31 92.5v377h139v-359
q0 -144 -64 -214t-195 -70zM1023 654q-32 0 -53.5 18.5t-21.5 51.5q0 30 21 49.5t54 19.5t54.5 -19t21.5 -50q0 -33 -22 -51.5t-54 -18.5zM811 654q-32 0 -53.5 18.5t-21.5 51.5q0 30 21 49.5t54 19.5t54.5 -19.5t21.5 -49.5q0 -33 -22 -51.5t-54 -18.5zM917 813
q-28 0 -47.5 16t-19.5 45q0 27 19 44t48 17t48 -17t19 -44q0 -29 -19.5 -45t-47.5 -16z" />
    <glyph glyph-name="uni0635" unicode="&#x635;" horiz-adv-x="1238" arabic-form="isolated" 
d="M382 -125q-89 0 -148.5 19t-105.5 63q-67 63 -67 207v327h140v-310q0 -93 42 -128q45 -38 149 -38h80v567h140v-69h309q137 0 208 -75q58 -62 58 -201v-237h-575v-125h-230zM935 374h-323v-234h435v103q0 57 -27 92q-30 39 -85 39z" />
    <glyph glyph-name="uni0636" unicode="&#x636;" horiz-adv-x="1238" arabic-form="isolated" 
d="M382 -125q-89 0 -148.5 19t-105.5 63q-67 63 -67 207v327h140v-310q0 -93 42 -128q45 -38 149 -38h80v567h140v-69h309q137 0 208 -75q58 -62 58 -201v-237h-575v-125h-230zM935 374h-323v-234h435v103q0 57 -27 92q-30 39 -85 39zM822 603q-35 0 -58.5 20t-23.5 55
q0 33 23.5 53.5t58.5 20.5q36 0 59 -20.5t23 -53.5q0 -35 -23.5 -55t-58.5 -20z" />
    <glyph glyph-name="uni0637" unicode="&#x637;" horiz-adv-x="879" arabic-form="isolated" 
d="M18 0v140h98v671h140v-298h305q137 0 208 -75q58 -62 58 -201v-237h-809zM575 374h-319v-234h431v103q0 57 -27 92q-30 39 -85 39z" />
    <glyph glyph-name="uni0638" unicode="&#x638;" horiz-adv-x="879" arabic-form="isolated" 
d="M18 0v140h98v671h140v-298h305q137 0 208 -75q58 -62 58 -201v-237h-809zM575 374h-319v-234h431v103q0 57 -27 92q-30 39 -85 39zM472 603q-35 0 -58.5 20t-23.5 55q0 33 23.5 53.5t58.5 20.5q36 0 59 -20.5t23 -53.5q0 -35 -23.5 -55t-58.5 -20z" />
    <glyph glyph-name="uni0639" unicode="&#x639;" horiz-adv-x="610" arabic-form="isolated" 
d="M111 -220q-80 114 -80 259q0 56 9 101h75q-42 88 -42 167q0 133 100 216q71 59 182 59q98 0 208 -55l-47 -127q-75 43 -144 43t-109 -34q-49 -41 -49 -113q0 -90 53 -156h317v-140h-411v-15q0 -73 47 -154z" />
    <glyph glyph-name="uni063A" unicode="&#x63a;" horiz-adv-x="610" arabic-form="isolated" 
d="M111 -220q-80 114 -80 259q0 56 9 101h75q-42 88 -42 167q0 133 100 216q71 59 182 59q98 0 208 -55l-47 -127q-75 43 -144 43t-109 -34q-49 -41 -49 -113q0 -90 53 -156h317v-140h-411v-15q0 -73 47 -154zM342 666q-35 0 -58.5 20t-23.5 55q0 33 23.5 53.5t58.5 20.5
q36 0 59 -20.5t23 -53.5q0 -35 -23.5 -55t-58.5 -20z" />
    <glyph glyph-name="uni0641" unicode="&#x641;" horiz-adv-x="1058" arabic-form="isolated" 
d="M998 0h-626q-89 0 -148.5 19t-105.5 63q-67 63 -67 207v189h140v-172q0 -93 42 -128q45 -38 149 -38h163q-48 63 -48 142q0 130 92 205.5t244 75.5h165v-563zM637 282q0 -89 76 -142h145v283h-59q-65 0 -113.5 -38t-48.5 -103zM805 648q-35 0 -58.5 20t-23.5 55
q0 33 23.5 53.5t58.5 20.5q36 0 59 -20.5t23 -53.5q0 -35 -23.5 -55t-58.5 -20z" />
    <glyph glyph-name="uni0642" unicode="&#x642;" horiz-adv-x="877" arabic-form="isolated" 
d="M814 -220h-441q-89 0 -148.5 19t-105.5 63q-67 63 -67 207v219h140v-202q0 -93 42 -128q45 -38 149 -38h291v80h-18q-154 0 -248.5 69.5t-94.5 212.5q0 129 95.5 205t247.5 76h158v-783zM453 282q0 -67 46 -104.5t116 -37.5h59v283h-59q-65 0 -113.5 -39.5t-48.5 -101.5z
M729 648q-33 0 -55.5 19t-22.5 53q0 31 22.5 51t55.5 20q34 0 56 -20t22 -51q0 -34 -22.5 -53t-55.5 -19zM512 648q-33 0 -55.5 19t-22.5 53q0 31 22.5 51t55.5 20t55.5 -20t22.5 -51q0 -34 -22.5 -53t-55.5 -19z" />
    <glyph glyph-name="uni0643" unicode="&#x643;" horiz-adv-x="938" arabic-form="isolated" 
d="M410 0q-89 0 -148.5 19t-105.5 63q-67 63 -67 207v189h140v-172q0 -93 42 -128q45 -38 149 -38h280v671h140v-811h-430zM364 349v73q0 124 126 124h60v-45h-52q-54 0 -54 -50v-27h138v-75h-218z" />
    <glyph glyph-name="uni0644" unicode="&#x644;" horiz-adv-x="681" arabic-form="isolated" 
d="M376 -125q-89 0 -148.5 19t-105.5 63q-67 63 -67 207v327h140v-310q0 -93 42 -128q45 -38 149 -38h80v796h140v-936h-230z" />
    <glyph glyph-name="uni0645" unicode="&#x645;" horiz-adv-x="914" arabic-form="isolated" 
d="M572 -110q-99 0 -177.5 59t-107.5 151q-56 -4 -82 -40q-30 -41 -30 -130v-150h-140v152q0 153 74 234q31 34 78 53.5t90 20.5q17 109 101 182t194 73q127 0 215.5 -88.5t88.5 -217.5q0 -126 -90 -212.5t-214 -86.5zM572 30q70 0 117 45.5t47 115.5q0 71 -46 117.5
t-118 46.5q-69 0 -114 -47.5t-45 -116.5q0 -68 46 -114.5t113 -46.5z" />
    <glyph glyph-name="uni0646" unicode="&#x646;" horiz-adv-x="667" arabic-form="isolated" 
d="M376 -125q-89 0 -148.5 19t-105.5 63q-67 63 -67 207v327h140v-310q0 -93 42 -128q45 -38 149 -38h80v476h140v-616h-230zM335 580q-35 0 -58.5 20t-23.5 55q0 33 23.5 53.5t58.5 20.5q36 0 59 -20.5t23 -53.5q0 -35 -23.5 -55t-58.5 -20z" />
    <glyph glyph-name="uni0648" unicode="&#x648;" horiz-adv-x="616" arabic-form="isolated" 
d="M556 563l-1 -525q0 -123 -58.5 -190.5t-198.5 -67.5q-60 0 -146 24l-10 141q79 -25 146 -25q63 0 91.5 15.5t34.5 64.5h-16q-154 0 -248.5 69.5t-94.5 212.5q0 129 95.5 205t247.5 76h158zM195 282q0 -67 46 -104.5t116 -37.5h59v283h-59q-65 0 -113.5 -39.5
t-48.5 -101.5z" />
    <glyph glyph-name="uni0649" unicode="&#x649;" horiz-adv-x="1053" arabic-form="isolated" 
d="M371 -125q-89 0 -148.5 19t-105.5 63q-67 63 -67 207v219h140v-202q0 -93 42 -128q45 -38 149 -38h146v282q0 144 86 213q68 53 191 53h189v-563h-140v423h-64q-53 0 -85 -25q-17 -13 -27 -39.5t-10 -52.5v-431h-296z" />
    <glyph glyph-name="uni064A" unicode="&#x64a;" horiz-adv-x="984" arabic-form="isolated" 
d="M598 -125h-290q-102 0 -159.5 14t-126.5 53l56 123q88 -50 185 -50h195v282q0 144 86 213q68 53 191 53h189v-563h-140v423h-64q-53 0 -85 -25q-17 -13 -27 -39.5t-10 -52.5v-431zM287 93q-35 0 -58.5 20t-23.5 55q0 33 23.5 53.5t58.5 20.5q36 0 59 -20.5t23 -53.5
q0 -35 -23.5 -55t-58.5 -20zM287 305q-35 0 -58.5 20t-23.5 55q0 33 23.5 53.5t58.5 20.5q36 0 59 -20.5t23 -53.5q0 -35 -23.5 -55t-58.5 -20z" />
    <glyph glyph-name="uni066E.init" unicode="&#x66e;" horiz-adv-x="324" 
d="M0 0v140h124v423h140v-563h-264z" />
    <glyph glyph-name="uni066E.medi" unicode="&#x66e;" horiz-adv-x="352" 
d="M0 0v140h124v423h140v-423h107v-140h-371z" />
    <glyph glyph-name="uni066E.fina" unicode="&#x66e;" horiz-adv-x="891" 
d="M372 0q-89 0 -148.5 19t-105.5 63q-67 63 -67 207v189h140v-172q0 -93 42 -128q45 -38 149 -38h280v423h140v-423h108v-140h-538z" />
    <glyph glyph-name="uni066F.init" unicode="&#x66f;" horiz-adv-x="632" 
d="M0 0v140h134q-48 63 -48 142q0 130 92 205.5t244 75.5h165v-563h-587zM226 282q0 -89 76 -142h145v283h-59q-65 0 -113.5 -38t-48.5 -103z" />
    <glyph glyph-name="uni066F.medi" unicode="&#x66f;" horiz-adv-x="660" 
d="M0 0v140h134q-48 63 -48 142q0 130 92 205.5t244 75.5h165v-423h93v-140h-680zM226 282q0 -89 76 -142h145v283h-59q-65 0 -113.5 -38t-48.5 -103z" />
    <glyph glyph-name="uni066F.fina" unicode="&#x66f;" horiz-adv-x="903" 
d="M814 -220h-441q-89 0 -148.5 19t-105.5 63q-67 63 -67 207v219h140v-202q0 -93 42 -128q45 -38 149 -38h291v80h-18q-154 0 -248.5 69.5t-94.5 212.5q0 129 95.5 205t247.5 76h158v-423h108v-140h-108v-220zM453 282q0 -67 46 -104.5t116 -37.5h59v283h-59
q-65 0 -113.5 -39.5t-48.5 -101.5z" />
    <glyph glyph-name="uni0671" unicode="&#x671;" horiz-adv-x="343" arabic-form="isolated" 
d="M134 0v690h140v-690h-140zM70 735v55h69q0 37 25 64.5t66 27.5q52 0 82.5 -27.5t30.5 -80.5v-39h-273zM228 837q-21 0 -32.5 -13.5t-11.5 -33.5h89q0 20 -11.5 33.5t-33.5 13.5z" />
    <glyph glyph-name="uni0679" unicode="&#x679;" horiz-adv-x="797" arabic-form="isolated" 
d="M372 0q-89 0 -148.5 19t-105.5 63q-67 63 -67 207v189h140v-172q0 -93 42 -128q45 -38 149 -38h280v423h140v-563h-430zM366 747v-56h51q52 0 82.5 -27.5t30.5 -80.5v-39h-273v55h50v148h59zM418 646h-52v-47h94q0 19 -11.5 33t-30.5 14z" />
    <glyph glyph-name="uni067E" unicode="&#x67e;" horiz-adv-x="863" arabic-form="isolated" 
d="M372 0q-89 0 -148.5 19t-105.5 63q-67 63 -67 207v189h140v-172q0 -93 42 -128q45 -38 149 -38h280v423h140v-563h-430zM382 -206q-32 0 -53.5 18.5t-21.5 51.5q0 30 21.5 49t53.5 19q33 0 54.5 -19t21.5 -49q0 -33 -22 -51.5t-54 -18.5zM488 -341q-28 0 -47.5 16
t-19.5 45q0 27 19 44t48 17t48 -17t19 -44q0 -29 -19.5 -45t-47.5 -16zM594 -206q-32 0 -53.5 18.5t-21.5 51.5q0 30 21.5 49t53.5 19q33 0 54.5 -19t21.5 -49q0 -33 -22 -51.5t-54 -18.5z" />
    <glyph glyph-name="uni0686" unicode="&#x686;" horiz-adv-x="553" arabic-form="isolated" 
d="M512 0h-478q-9 28 -9 57q0 38 9 83h370q17 75 17 143q0 78 -49 121q-43 38 -118 38q-76 0 -145 -44l-58 122q109 62 220 62q124 0 199 -77q90 -90 90 -233q0 -125 -48 -272zM173 -163q-32 0 -53.5 18.5t-21.5 51.5q0 30 21.5 49t53.5 19q33 0 54.5 -19t21.5 -49
q0 -33 -22 -51.5t-54 -18.5zM279 -298q-28 0 -47.5 16t-19.5 45q0 27 19 44t48 17t48 -17t19 -44q0 -29 -19.5 -45t-47.5 -16zM385 -163q-32 0 -53.5 18.5t-21.5 51.5q0 30 21.5 49t53.5 19q33 0 54.5 -19t21.5 -49q0 -33 -22 -51.5t-54 -18.5z" />
    <glyph glyph-name="uni0688" unicode="&#x688;" horiz-adv-x="533" arabic-form="isolated" 
d="M35 0v140h349v153q0 57 -27 92q-29 38 -85 38h-60v140h46q137 0 208 -75q58 -62 58 -201v-287h-489zM239 848v-56h51q52 0 82.5 -27.5t30.5 -80.5v-39h-273v55h50v148h59zM291 747h-52v-47h94q0 19 -11.5 33t-30.5 14z" />
    <glyph glyph-name="uni0691" unicode="&#x691;" horiz-adv-x="369" arabic-form="isolated" 
d="M111 -220q-40 0 -71 9l-10 140q33 -9 66 -9q41 0 58 22.5t17 75.5v545h140v-525q0 -136 -46.5 -197t-153.5 -61zM215 848v-56h51q52 0 82.5 -27.5t30.5 -80.5v-39h-273v55h50v148h59zM267 747h-52v-47h94q0 19 -11.5 33t-30.5 14z" />
    <glyph glyph-name="uni0698" unicode="&#x698;" horiz-adv-x="378" arabic-form="isolated" 
d="M112 -220q-40 0 -71 9l-10 140q33 -9 66 -9q41 0 58 22.5t17 75.5v545h140v-525q0 -136 -46.5 -197t-153.5 -61zM137 654q-32 0 -53.5 18.5t-21.5 51.5q0 30 21 49.5t54 19.5t54.5 -19.5t21.5 -49.5q0 -33 -22 -51.5t-54 -18.5zM243 813q-28 0 -47.5 16t-19.5 45
q0 27 19 44t48 17t48 -17t19 -44q0 -29 -19.5 -45t-47.5 -16zM349 654q-32 0 -53.5 18.5t-21.5 51.5q0 30 21 49.5t54 19.5t54.5 -19t21.5 -50q0 -33 -22 -51.5t-54 -18.5z" />
    <glyph glyph-name="uni06A1.init" unicode="&#x6a1;" horiz-adv-x="632" 
d="M0 0v140h134q-48 63 -48 142q0 130 92 205.5t244 75.5h165v-563h-587zM226 282q0 -89 76 -142h145v283h-59q-65 0 -113.5 -38t-48.5 -103z" />
    <glyph glyph-name="uni06A1.medi" unicode="&#x6a1;" horiz-adv-x="660" 
d="M0 0v140h134q-48 63 -48 142q0 130 92 205.5t244 75.5h165v-423h93v-140h-680zM226 282q0 -89 76 -142h145v283h-59q-65 0 -113.5 -38t-48.5 -103z" />
    <glyph glyph-name="uni06A1.fina" unicode="&#x6a1;" horiz-adv-x="1148" 
d="M1143 0h-734q-89 0 -148.5 19t-105.5 63q-67 63 -67 207v189h140v-172q0 -93 42 -128q45 -38 149 -38h163q-48 63 -48 142q0 130 92 205.5t244 75.5h165v-423h108v-140zM674 282q0 -89 76 -142h145v283h-59q-65 0 -113.5 -38t-48.5 -103z" />
    <glyph glyph-name="uni06A4" unicode="&#x6a4;" horiz-adv-x="1058" arabic-form="isolated" 
d="M998 0h-626q-89 0 -148.5 19t-105.5 63q-67 63 -67 207v189h140v-172q0 -93 42 -128q45 -38 149 -38h163q-48 63 -48 142q0 130 92 205.5t244 75.5h165v-563zM637 282q0 -89 76 -142h145v283h-59q-65 0 -113.5 -38t-48.5 -103zM912 654q-32 0 -53.5 18.5t-21.5 51.5
q0 30 21 49.5t54 19.5t54.5 -19t21.5 -50q0 -33 -22 -51.5t-54 -18.5zM700 654q-32 0 -53.5 18.5t-21.5 51.5q0 30 21 49.5t54 19.5t54.5 -19.5t21.5 -49.5q0 -33 -22 -51.5t-54 -18.5zM806 813q-28 0 -47.5 16t-19.5 45q0 27 19 44t48 17t48 -17t19 -44q0 -29 -19.5 -45
t-47.5 -16z" />
    <glyph glyph-name="uni06A9" unicode="&#x6a9;" horiz-adv-x="1035" arabic-form="isolated" 
d="M982 0h-610q-162 0 -249 85q-72 71 -72 206v188h140v-171q0 -87 47 -125q50 -43 145 -43h459v116q0 53 -24 84q-31 38 -84 38h-308q-46 61 -49 140l153 293h168l-163 -293h179q123 0 195 -69q73 -70 73 -209v-240z" />
    <glyph glyph-name="uni06AF" unicode="&#x6af;" horiz-adv-x="965" arabic-form="isolated" 
d="M469 812l-146 -294h-85l146 294h85zM982 0h-610q-162 0 -249 85q-72 71 -72 206v188h140v-171q0 -87 47 -125q50 -43 145 -43h459v116q0 53 -24 84q-31 38 -84 38h-308q-46 61 -49 140l153 293h168l-163 -293h179q123 0 195 -69q73 -70 73 -209v-240z" />
    <glyph glyph-name="uni06BA" unicode="&#x6ba;" horiz-adv-x="667" arabic-form="isolated" 
d="M376 -125q-89 0 -148.5 19t-105.5 63q-67 63 -67 207v327h140v-310q0 -93 42 -128q45 -38 149 -38h80v476h140v-616h-230z" />
    <glyph glyph-name="uni06BE" unicode="&#x6be;" horiz-adv-x="851" arabic-form="isolated" 
d="M85 0v140h114q-9 43 -9 72q0 111 55 171t152 60q92 0 150.5 -63t58.5 -167q0 -35 -8 -73h91q8 54 8 95q0 115 -52 194q-68 103 -230 103q-95 0 -212 -64l-47 127q156 78 295 78q196 0 304 -157q82 -121 82 -305q0 -94 -37 -211h-715zM315 215q0 -31 7 -75h152q7 44 7 75
q0 48 -22.5 75.5t-61.5 27.5q-82 0 -82 -103z" />
    <glyph glyph-name="uni06C0" unicode="&#x6c0;" horiz-adv-x="572" arabic-form="isolated" 
d="M557 0h-160q-155 0 -248.5 71.5t-93.5 209.5q0 124 92 203t250 79h20v50h140v-613zM356 140h61v283h-54q-66 0 -117 -39t-51 -103q0 -66 47.5 -103.5t113.5 -37.5zM338 645v73q0 124 126 124h60v-45h-52q-54 0 -54 -50v-27h138v-75h-218z" />
    <glyph glyph-name="uni06C1" unicode="&#x6c1;" horiz-adv-x="572" arabic-form="isolated" 
d="M397 0q-155 0 -248.5 71.5t-93.5 209.5q0 124 92 203t250 79h20v50h140v-613h-160zM356 140h61v283h-54q-66 0 -117 -39t-51 -103q0 -66 47.5 -103.5t113.5 -37.5z" />
    <glyph glyph-name="uni06CC" unicode="&#x6cc;" horiz-adv-x="1044" arabic-form="isolated" 
d="M428 -125q-89 0 -148.5 19t-105.5 63q-67 63 -67 207v219h140v-202q0 -93 42 -128q45 -38 149 -38h146v282q0 144 86 213q68 53 191 53h189v-563h-140v423h-64q-53 0 -85 -25q-17 -13 -27 -39.5t-10 -52.5v-431h-296z" />
    <glyph glyph-name="uni06D2" unicode="&#x6d2;" horiz-adv-x="986" arabic-form="isolated" 
d="M874 0h-834v198q0 127 62 197q73 80 206 80h43q56 0 56 53v42h140v-49q0 -100 -48 -143t-141 -43h-66q-58 0 -87 -37q-25 -32 -25 -92v-66h694v-140z" />
    <glyph glyph-name="uni06D3" unicode="&#x6d3;" horiz-adv-x="909" arabic-form="isolated" 
d="M874 0h-834v198q0 127 62 197q73 80 206 80h43q56 0 56 53v42h140v-49q0 -100 -48 -143t-141 -43h-66q-58 0 -87 -37q-25 -32 -25 -92v-66h694v-140zM143 600v73q0 124 126 124h60v-45h-52q-54 0 -54 -50v-27h138v-75h-218z" />
    <glyph glyph-name="uni06D5.fina" unicode="&#x6d5;" horiz-adv-x="629" 
d="M557 140h92v-140h-252q-155 0 -248.5 71.5t-93.5 209.5q0 124 92 203t250 79h20v50h140v-473zM356 140h61v283h-54q-66 0 -117 -39t-51 -103q0 -66 47.5 -103.5t113.5 -37.5z" />
    <glyph glyph-name="uni0671.fina" unicode="&#x671;" horiz-adv-x="384" arabic-form="final" 
d="M136 0v690h140v-550h128v-140h-268zM70 735v55h69q0 37 25 64.5t66 27.5q52 0 82.5 -27.5t30.5 -80.5v-39h-273zM228 837q-21 0 -32.5 -13.5t-11.5 -33.5h89q0 20 -11.5 33.5t-33.5 13.5z" />
    <glyph glyph-name="uni067E.fina" unicode="&#x67e;" horiz-adv-x="891" arabic-form="final" 
d="M372 0q-89 0 -148.5 19t-105.5 63q-67 63 -67 207v189h140v-172q0 -93 42 -128q45 -38 149 -38h280v423h140v-423h108v-140h-538zM587 -206q-32 0 -53.5 18.5t-21.5 51.5q0 30 21.5 49t53.5 19q33 0 54.5 -19t21.5 -49q0 -33 -22 -51.5t-54 -18.5zM375 -206
q-32 0 -53.5 18.5t-21.5 51.5q0 30 21.5 49t53.5 19q33 0 54.5 -19t21.5 -49q0 -33 -22 -51.5t-54 -18.5zM481 -341q-28 0 -47.5 16t-19.5 45q0 27 19 44t48 17t48 -17t19 -44q0 -29 -19.5 -45t-47.5 -16z" />
    <glyph glyph-name="uni067E.init" unicode="&#x67e;" horiz-adv-x="424" arabic-form="initial" 
d="M120 -206q-32 0 -53.5 18.5t-21.5 51.5q0 30 21.5 49t53.5 19q33 0 54.5 -19t21.5 -49q0 -33 -22 -51.5t-54 -18.5zM226 -341q-28 0 -47.5 16t-19.5 45q0 27 19 44t48 17t48 -17t19 -44q0 -29 -19.5 -45t-47.5 -16zM332 -206q-32 0 -53.5 18.5t-21.5 51.5q0 30 21.5 49
t53.5 19q33 0 54.5 -19t21.5 -49q0 -33 -22 -51.5t-54 -18.5zM0 0v140h209v423h140v-563h-349z" />
    <glyph glyph-name="uni067E.medi" unicode="&#x67e;" horiz-adv-x="513" arabic-form="medial" 
d="M0 0v140h209v423h140v-423h184v-140h-533zM381 -206q-32 0 -53.5 18.5t-21.5 51.5q0 30 21.5 49t53.5 19q33 0 54.5 -19t21.5 -49q0 -33 -22 -51.5t-54 -18.5zM169 -206q-32 0 -53.5 18.5t-21.5 51.5q0 30 21.5 49t53.5 19q33 0 54.5 -19t21.5 -49q0 -33 -22 -51.5
t-54 -18.5zM275 -341q-28 0 -47.5 16t-19.5 45q0 27 19 44t48 17t48 -17t19 -44q0 -29 -19.5 -45t-47.5 -16z" />
    <glyph glyph-name="uni0679.fina" unicode="&#x679;" horiz-adv-x="836" arabic-form="final" 
d="M372 0q-89 0 -148.5 19t-105.5 63q-67 63 -67 207v189h140v-172q0 -93 42 -128q45 -38 149 -38h280v423h140v-423h107v-140h-537zM397 747v-56h51q52 0 82.5 -27.5t30.5 -80.5v-39h-273v55h50v148h59zM449 646h-52v-47h94q0 19 -11.5 33t-30.5 14z" />
    <glyph glyph-name="uni0679.init" unicode="&#x679;" horiz-adv-x="424" arabic-form="initial" 
d="M0 0v140h209v423h140v-563h-349zM239 848v-56h51q52 0 82.5 -27.5t30.5 -80.5v-39h-273v55h50v148h59zM291 747h-52v-47h94q0 19 -11.5 33t-30.5 14z" />
    <glyph glyph-name="uni0679.medi" unicode="&#x679;" horiz-adv-x="485" arabic-form="medial" 
d="M0 0v140h209v423h140v-423h183v-140h-532zM239 848v-56h51q52 0 82.5 -27.5t30.5 -80.5v-39h-273v55h50v148h59zM291 747h-52v-47h94q0 19 -11.5 33t-30.5 14z" />
    <glyph glyph-name="uni06A4.fina" unicode="&#x6a4;" horiz-adv-x="1086" arabic-form="final" 
d="M372 0q-89 0 -148.5 19t-105.5 63q-67 63 -67 207v189h140v-172q0 -93 42 -128q45 -38 149 -38h163q-48 63 -48 142q0 130 92 205.5t244 75.5h165v-423h107v-140h-733zM637 282q0 -89 76 -142h145v283h-59q-65 0 -113.5 -38t-48.5 -103zM913 654q-32 0 -53.5 18.5
t-21.5 51.5q0 30 21 49.5t54 19.5t54.5 -19t21.5 -50q0 -33 -22 -51.5t-54 -18.5zM701 654q-32 0 -53.5 18.5t-21.5 51.5q0 30 21 49.5t54 19.5t54.5 -19.5t21.5 -49.5q0 -33 -22 -51.5t-54 -18.5zM807 813q-28 0 -47.5 16t-19.5 45q0 27 19 44t48 17t48 -17t19 -44
q0 -29 -19.5 -45t-47.5 -16z" />
    <glyph glyph-name="uni06A4.init" unicode="&#x6a4;" horiz-adv-x="632" arabic-form="initial" 
d="M0 0v140h134q-48 63 -48 142q0 130 92 205.5t244 75.5h165v-563h-587zM226 282q0 -89 76 -142h145v283h-59q-65 0 -113.5 -38t-48.5 -103zM488 654q-32 0 -53.5 18.5t-21.5 51.5q0 30 21 49.5t54 19.5t54.5 -19t21.5 -50q0 -33 -22 -51.5t-54 -18.5zM276 654
q-32 0 -53.5 18.5t-21.5 51.5q0 30 21 49.5t54 19.5t54.5 -19.5t21.5 -49.5q0 -33 -22 -51.5t-54 -18.5zM382 813q-28 0 -47.5 16t-19.5 45q0 27 19 44t48 17t48 -17t19 -44q0 -29 -19.5 -45t-47.5 -16z" />
    <glyph glyph-name="uni06A4.medi" unicode="&#x6a4;" horiz-adv-x="659" arabic-form="medial" 
d="M0 0v140h134q-48 63 -48 142q0 130 92 205.5t244 75.5h165v-423h92v-140h-679zM226 282q0 -89 76 -142h145v283h-59q-65 0 -113.5 -38t-48.5 -103zM487 654q-32 0 -53.5 18.5t-21.5 51.5q0 30 21 49.5t54 19.5t54.5 -19t21.5 -50q0 -33 -22 -51.5t-54 -18.5zM275 654
q-32 0 -53.5 18.5t-21.5 51.5q0 30 21 49.5t54 19.5t54.5 -19.5t21.5 -49.5q0 -33 -22 -51.5t-54 -18.5zM381 813q-28 0 -47.5 16t-19.5 45q0 27 19 44t48 17t48 -17t19 -44q0 -29 -19.5 -45t-47.5 -16z" />
    <glyph glyph-name="uni0686.fina" unicode="&#x686;" horiz-adv-x="588" arabic-form="final" 
d="M602 0h-568q-9 28 -9 57q0 38 9 83h370q17 75 17 143q0 78 -49 121q-43 38 -118 38q-76 0 -145 -44l-58 122q109 62 220 62q124 0 199 -77q90 -90 90 -233q0 -64 -13 -132h55v-140zM404 -163q-32 0 -53.5 18.5t-21.5 51.5q0 30 21.5 49t53.5 19q33 0 54.5 -19t21.5 -49
q0 -33 -22 -51.5t-54 -18.5zM192 -163q-32 0 -53.5 18.5t-21.5 51.5q0 30 21.5 49t53.5 19q33 0 54.5 -19t21.5 -49q0 -33 -22 -51.5t-54 -18.5zM298 -298q-28 0 -47.5 16t-19.5 45q0 27 19 44t48 17t48 -17t19 -44q0 -29 -19.5 -45t-47.5 -16z" />
    <glyph glyph-name="uni0686.init" unicode="&#x686;" horiz-adv-x="582" arabic-form="initial" 
d="M0 0v140h415q17 75 17 143q0 78 -49 121q-43 38 -118 38q-76 0 -145 -44l-58 122q109 62 220 62q124 0 199 -77q90 -90 90 -233q0 -125 -48 -272h-523zM162 -163q-32 0 -53.5 18.5t-21.5 51.5q0 30 21.5 49t53.5 19q33 0 54.5 -19t21.5 -49q0 -33 -22 -51.5t-54 -18.5z
M268 -298q-28 0 -47.5 16t-19.5 45q0 27 19 44t48 17t48 -17t19 -44q0 -29 -19.5 -45t-47.5 -16zM374 -163q-32 0 -53.5 18.5t-21.5 51.5q0 30 21.5 49t53.5 19q33 0 54.5 -19t21.5 -49q0 -33 -22 -51.5t-54 -18.5z" />
    <glyph glyph-name="uni0686.medi" unicode="&#x686;" horiz-adv-x="617" arabic-form="medial" 
d="M0 0v140h415q17 75 17 143q0 78 -49 121q-43 38 -118 38q-76 0 -145 -44l-58 122q109 62 220 62q124 0 199 -77q90 -90 90 -233q0 -64 -13 -132h69v-140h-627zM374 -163q-32 0 -53.5 18.5t-21.5 51.5q0 30 21.5 49t53.5 19q33 0 54.5 -19t21.5 -49q0 -33 -22 -51.5
t-54 -18.5zM162 -163q-32 0 -53.5 18.5t-21.5 51.5q0 30 21.5 49t53.5 19q33 0 54.5 -19t21.5 -49q0 -33 -22 -51.5t-54 -18.5zM268 -298q-28 0 -47.5 16t-19.5 45q0 27 19 44t48 17t48 -17t19 -44q0 -29 -19.5 -45t-47.5 -16z" />
    <glyph glyph-name="uni0688.fina" unicode="&#x688;" horiz-adv-x="582" arabic-form="final" 
d="M35 0v140h349v153q0 57 -27 92q-29 38 -85 38h-60v140h46q137 0 208 -75q58 -62 58 -201v-147h110v-140h-599zM239 848v-56h51q52 0 82.5 -27.5t30.5 -80.5v-39h-273v55h50v148h59zM291 747h-52v-47h94q0 19 -11.5 33t-30.5 14z" />
    <glyph glyph-name="uni0698.fina" unicode="&#x698;" horiz-adv-x="402" arabic-form="final" 
d="M112 -220q-40 0 -71 9l-10 140q33 -9 66 -9q41 0 58 22.5t17 75.5v545h140v-423h110v-140h-111q-6 -116 -53 -168t-146 -52zM349 654q-32 0 -53.5 18.5t-21.5 51.5q0 30 21 49.5t54 19.5t54.5 -19t21.5 -50q0 -33 -22 -51.5t-54 -18.5zM137 654q-32 0 -53.5 18.5
t-21.5 51.5q0 30 21 49.5t54 19.5t54.5 -19.5t21.5 -49.5q0 -33 -22 -51.5t-54 -18.5zM243 813q-28 0 -47.5 16t-19.5 45q0 27 19 44t48 17t48 -17t19 -44q0 -29 -19.5 -45t-47.5 -16z" />
    <glyph glyph-name="uni0691.fina" unicode="&#x691;" horiz-adv-x="401" arabic-form="final" 
d="M111 -220q-40 0 -71 9l-10 140q33 -9 66 -9q41 0 58 22.5t17 75.5v545h140v-423h110v-140h-111q-6 -116 -53 -168t-146 -52zM215 848v-56h51q52 0 82.5 -27.5t30.5 -80.5v-39h-273v55h50v148h59zM267 747h-52v-47h94q0 19 -11.5 33t-30.5 14z" />
    <glyph glyph-name="uni06A9.fina" unicode="&#x6a9;" horiz-adv-x="1014" arabic-form="final" 
d="M1090 0h-718q-162 0 -249 85q-72 71 -72 206v188h140v-171q0 -87 47 -125q50 -43 145 -43h459v116q0 53 -24 84q-31 38 -84 38h-308q-46 61 -49 140l153 293h168l-163 -293h179q123 0 195 -69q73 -70 73 -209v-100h108v-140z" />
    <glyph glyph-name="uni06A9.init" unicode="&#x6a9;" horiz-adv-x="816" arabic-form="initial" 
d="M0 0v140h623v107q0 57 -27 92q-30 39 -85 39h-418q-45 60 -48 139l162 294h150l-155 -294h295q137 0 208 -75q58 -62 58 -201v-241h-763z" />
    <glyph glyph-name="uni06A9.medi" unicode="&#x6a9;" horiz-adv-x="851" arabic-form="medial" 
d="M0 0v140h623v107q0 57 -27 92q-30 39 -85 39h-418q-45 60 -48 139l162 294h150l-155 -294h295q137 0 208 -75q58 -62 58 -201v-101h107v-140h-870z" />
    <glyph glyph-name="uni06AF.fina" unicode="&#x6af;" horiz-adv-x="1014" arabic-form="final" 
d="M1090 0h-718q-162 0 -249 85q-72 71 -72 206v188h140v-171q0 -87 47 -125q50 -43 145 -43h459v116q0 53 -24 84q-31 38 -84 38h-308q-46 61 -49 140l153 293h168l-163 -293h179q123 0 195 -69q73 -70 73 -209v-100h108v-140zM469 812l-146 -294h-85l146 294h85z" />
    <glyph glyph-name="uni06AF.init" unicode="&#x6af;" horiz-adv-x="861" arabic-form="initial" 
d="M233 812l-146 -294h-85l146 294h85zM0 0v140h703v107q0 57 -27 92q-30 39 -85 39h-418q-45 60 -48 139l162 294h150l-155 -294h295q137 0 208 -75q58 -62 58 -201v-241h-843z" />
    <glyph glyph-name="uni06AF.medi" unicode="&#x6af;" horiz-adv-x="910" arabic-form="medial" 
d="M0 0v140h703v107q0 57 -27 92q-30 39 -85 39h-418q-45 60 -48 139l162 294h150l-155 -294h295q137 0 208 -75q58 -62 58 -201v-101h108v-140h-951zM234 812l-146 -294h-85l146 294h85z" />
    <glyph glyph-name="uni06BA.fina" unicode="&#x6ba;" horiz-adv-x="695" arabic-form="final" 
d="M376 -125q-89 0 -148.5 19t-105.5 63q-67 63 -67 207v327h140v-310q0 -93 42 -128q45 -38 149 -38h80v476h140v-351h108v-140h-108v-125h-230z" />
    <glyph glyph-name="uni06C0.fina" unicode="&#x6c0;" horiz-adv-x="629" arabic-form="final" 
d="M397 0q-155 0 -248.5 71.5t-93.5 209.5q0 124 92 203t250 79h20v50h140v-473h92v-140h-252zM356 140h61v283h-54q-66 0 -117 -39t-51 -103q0 -66 47.5 -103.5t113.5 -37.5zM341 645v73q0 124 126 124h60v-45h-52q-54 0 -54 -50v-27h138v-75h-218z" />
    <glyph glyph-name="uni06C1.fina" unicode="&#x6c1;" horiz-adv-x="592" arabic-form="final" 
d="M612 0h-241v424h-63q-54 0 -85 -25q-37 -29 -37 -84v-167h-140v148q0 142 87 213q68 55 190 55h188v-424h101v-140z" />
    <glyph glyph-name="uni06C1.init" unicode="&#x6c1;" horiz-adv-x="324" arabic-form="initial" 
d="M166 -226l-102 6l52 175l147 -7zM0 0v140h124v423h140v-563h-264z" />
    <glyph glyph-name="uni06C1.medi" unicode="&#x6c1;" horiz-adv-x="836" arabic-form="medial" 
d="M699 -220h-102l52 174h147zM538 -220h-173q-131 0 -198 50q-75 58 -75 149v21h-92v140h92v271h140v-412q0 -53 38 -84q32 -25 83 -25h45v250h458v-140h-318v-220z" />
    <glyph glyph-name="uni06BE.fina" unicode="&#x6be;" horiz-adv-x="889" arabic-form="final" 
d="M85 0v140h114q-9 43 -9 72q0 111 55 171t152 60q92 0 150.5 -63t58.5 -167q0 -35 -8 -73h91q8 54 8 95q0 115 -52 194q-68 103 -230 103q-95 0 -212 -64l-47 127q156 78 295 78q196 0 304 -157q82 -121 82 -305q0 -33 -6 -71h106v-140h-852zM315 215q0 -31 7 -75h152
q7 44 7 75q0 48 -22.5 75.5t-61.5 27.5q-82 0 -82 -103z" />
    <glyph glyph-name="uni06BE.init" unicode="&#x6be;" horiz-adv-x="766" arabic-form="initial" 
d="M0 0v140h114q-9 43 -9 72q0 111 55 171t152 60q92 0 150.5 -63t58.5 -167q0 -35 -8 -73h91q8 54 8 95q0 115 -52 194q-68 103 -230 103q-95 0 -212 -64l-47 127q156 78 295 78q196 0 304 -157q82 -121 82 -305q0 -94 -37 -211h-715zM230 215q0 -31 7 -75h152q7 44 7 75
q0 48 -22.5 75.5t-61.5 27.5q-82 0 -82 -103z" />
    <glyph glyph-name="uni06BE.medi" unicode="&#x6be;" horiz-adv-x="804" arabic-form="medial" 
d="M0 0v140h114q-9 43 -9 72q0 111 55 171t152 60q92 0 150.5 -63t58.5 -167q0 -35 -8 -73h91q8 54 8 95q0 115 -52 194q-68 103 -230 103q-95 0 -212 -64l-47 127q156 78 295 78q196 0 304 -157q82 -121 82 -305q0 -33 -6 -71h107v-140h-853zM230 215q0 -31 7 -75h152
q7 44 7 75q0 48 -22.5 75.5t-61.5 27.5q-82 0 -82 -103z" />
    <glyph glyph-name="uni06D2.fina" unicode="&#x6d2;" horiz-adv-x="782" arabic-form="final" 
d="M801 140v-140h-603q0 -51 31 -75q33 -25 80 -25h297v-120h-309q-136 0 -206 79q-57 64 -57 199v82h767z" />
    <glyph glyph-name="uni06D3.fina" unicode="&#x6d3;" horiz-adv-x="655" arabic-form="final" 
d="M801 140v-140h-603q0 -51 31 -75q33 -25 80 -25h297v-120h-309q-136 0 -206 79q-57 64 -57 199v82h767zM28 216v73q0 124 126 124h60v-45h-52q-54 0 -54 -50v-27h138v-75h-218z" />
    <glyph glyph-name="uni0649.init" unicode="&#x649;" horiz-adv-x="324" arabic-form="initial" 
d="M0 0v140h124v423h140v-563h-264z" />
    <glyph glyph-name="uni0649.medi" unicode="&#x649;" horiz-adv-x="352" arabic-form="medial" 
d="M0 0v140h124v423h140v-423h107v-140h-371z" />
    <glyph glyph-name="uni06CC.fina" unicode="&#x6cc;" horiz-adv-x="1083" arabic-form="final" 
d="M428 -125q-89 0 -148.5 19t-105.5 63q-67 63 -67 207v219h140v-202q0 -93 42 -128q45 -38 149 -38h146v282q0 144 86 213q68 53 191 53h189v-423h108v-140h-248v423h-64q-53 0 -85 -25q-17 -13 -27 -39.5t-10 -52.5v-431h-296z" />
    <glyph glyph-name="uni06CC.init" unicode="&#x6cc;" horiz-adv-x="426" arabic-form="initial" 
d="M111 -213q-33 0 -55.5 19t-22.5 52q0 32 22.5 52t55.5 20t55.5 -20t22.5 -52q0 -33 -22.5 -52t-55.5 -19zM328 -213q-33 0 -55.5 19t-22.5 52q0 32 22.5 52t55.5 20q34 0 56 -20t22 -52q0 -33 -22.5 -52t-55.5 -19zM0 0v140h209v423h140v-563h-349z" />
    <glyph glyph-name="uni06CC.medi" unicode="&#x6cc;" horiz-adv-x="513" arabic-form="medial" 
d="M0 0v140h209v423h140v-423h184v-140h-533zM380 -213q-33 0 -55.5 19t-22.5 52q0 32 22.5 52t55.5 20q34 0 56 -20t22 -52q0 -33 -22.5 -52t-55.5 -19zM163 -213q-33 0 -55.5 19t-22.5 52q0 32 22.5 52t55.5 20t55.5 -20t22.5 -52q0 -33 -22.5 -52t-55.5 -19z" />
    <glyph glyph-name="uni0651064C" unicode="&#xfc5e;" arabic-form="isolated" 
d="M-110 166l-41 106l47 19l25 -70l47 7q-6 15 -6 31q0 36 21 61t62 25q33 0 53.5 -22.5t20.5 -58.5q0 -32 -6 -63zM-39 0q-59 0 -72 64l-11 56l49 10l10 -54q6 -28 28 -28q30 0 30 41q0 17 -7 52l50 7l10 -54q5 -25 27 -25q28 0 28 29q0 31 -14 66l50 11q12 -52 12 -72
q0 -39 -21 -60t-59 -21q-27 0 -43 24q-19 -46 -67 -46zM6 262q0 -15 4 -27l60 10q1 4 1 16q0 15 -8.5 25t-24.5 10q-13 0 -22.5 -9.5t-9.5 -24.5z" />
    <glyph glyph-name="uni0651064D" unicode="&#xfc5f;" arabic-form="isolated" 
d="M-55 161q-59 0 -72 64l-11 56l49 10l10 -54q6 -28 28 -28q30 0 30 41q0 17 -7 52l50 7l10 -54q5 -25 27 -25q28 0 28 29q0 31 -14 66l50 11q12 -52 12 -72q0 -39 -21 -60t-59 -21q-27 0 -43 24q-19 -46 -67 -46zM-86 0v47l224 32v-47zM-87 82v47l224 32v-47z" />
    <glyph glyph-name="uni0651064E" unicode="&#xfc60;" arabic-form="isolated" 
d="M-53 0q-59 0 -72 64l-11 56l49 10l10 -54q6 -28 28 -28q30 0 30 41q0 17 -7 52l50 7l10 -54q5 -25 27 -25q28 0 28 29q0 31 -14 66l50 11q12 -52 12 -72q0 -39 -21 -60t-59 -21q-27 0 -43 24q-19 -46 -67 -46zM-126 196v50l224 32v-50z" />
    <glyph glyph-name="uni0651064F" unicode="&#xfc61;" arabic-form="isolated" 
d="M-117 176l-5 47l79 13q-6 15 -6 31q0 36 20.5 61t61.5 25q34 0 54.5 -22.5t20.5 -58.5q0 -32 -6 -63zM-53 0q-59 0 -72 64l-11 56l49 10l10 -54q6 -28 28 -28q30 0 30 41q0 17 -7 52l50 7l10 -54q5 -25 27 -25q28 0 28 29q0 31 -14 66l50 11q12 -52 12 -72q0 -39 -21 -60
t-59 -21q-27 0 -43 24q-19 -46 -67 -46zM-6 270q0 -16 4 -27l60 10q2 8 2 16q0 15 -8.5 25t-24.5 10q-14 0 -23.5 -9.5t-9.5 -24.5z" />
    <glyph glyph-name="uni06510650" unicode="&#xfc62;" arabic-form="isolated" 
d="M-54 91q-59 0 -72 64l-11 56l49 10l10 -54q6 -28 28 -28q30 0 30 41q0 17 -7 52l50 7l10 -54q5 -25 27 -25q28 0 28 29q0 31 -14 66l50 11q12 -52 12 -72q0 -39 -21 -60t-59 -21q-27 0 -43 24q-19 -46 -67 -46zM-87 0v50l224 32v-50z" />
    <glyph glyph-name="uni06510670" unicode="&#xfc63;" arabic-form="isolated" 
d="M-53 0q-59 0 -72 64l-11 56l49 10l10 -54q6 -28 28 -28q30 0 30 41q0 17 -7 52l50 7l10 -54q5 -25 27 -25q28 0 28 29q0 31 -14 66l50 11q12 -52 12 -72q0 -39 -21 -60t-59 -21q-27 0 -43 24q-19 -46 -67 -46zM-37 200v194h56v-186z" />
    <glyph glyph-name="uniFE70" unicode="&#xfe70;" arabic-form="isolated" 
d="M-16 720v47l224 32v-47zM-17 802v47l224 32v-47z" />
    <glyph glyph-name="uniFE72" unicode="&#xfe72;" arabic-form="isolated" 
d="M14 710l-41 106l47 19l25 -70l47 7q-6 15 -6 31q0 36 21 61t62 25q33 0 53.5 -22.5t20.5 -58.5q0 -32 -6 -63zM130 806q0 -15 4 -27l60 10q1 4 1 16q0 15 -8.5 25t-24.5 10q-13 0 -22.5 -9.5t-9.5 -24.5z" />
    <glyph glyph-name="uniFE74" unicode="&#xfe74;" arabic-form="isolated" 
d="M-16 -226v47l224 32v-47zM-17 -144v47l224 32v-47z" />
    <glyph glyph-name="uniFE76" unicode="&#xfe76;" arabic-form="isolated" 
d="M-11 695v50l224 32v-50z" />
    <glyph glyph-name="uniFE78" unicode="&#xfe78;" arabic-form="isolated" 
d="M-13 712l-5 47l79 13q-6 15 -6 31q0 36 20.5 61t61.5 25q34 0 54.5 -22.5t20.5 -58.5q0 -32 -6 -63zM98 806q0 -16 4 -27l60 10q2 8 2 16q0 15 -8.5 25t-24.5 10q-14 0 -23.5 -9.5t-9.5 -24.5z" />
    <glyph glyph-name="uniFE7A" unicode="&#xfe7a;" arabic-form="isolated" 
d="M-11 -226v50l224 32v-50z" />
    <glyph glyph-name="uniFE7C" unicode="&#xfe7c;" arabic-form="isolated" 
d="M42 698q-59 0 -72 64l-11 56l49 10l10 -54q6 -28 28 -28q30 0 30 41q0 17 -7 52l50 7l10 -54q5 -25 27 -25q28 0 28 29q0 31 -14 66l50 11q12 -52 12 -72q0 -39 -21 -60t-59 -21q-27 0 -43 24q-19 -46 -67 -46z" />
    <glyph glyph-name="uniFE7E" unicode="&#xfe7e;" arabic-form="isolated" 
d="M64 701q-80 0 -80 89q0 42 23.5 66.5t62.5 24.5t60.5 -24.5t21.5 -66.5q0 -40 -25 -64.5t-63 -24.5zM67 748q37 0 37 41q0 44 -37 44q-13 0 -24 -10t-11 -32q0 -43 35 -43z" />
    <glyph glyph-name="uni0622.fina" unicode="&#x622;" horiz-adv-x="385" arabic-form="final" 
d="M137 0v690h140v-550h128v-140h-268zM70 735v65h273v-65h-273z" />
    <glyph glyph-name="uni0623.fina" unicode="&#x623;" horiz-adv-x="393" arabic-form="final" 
d="M110 735v46q0 124 126 124h50v-45h-42q-54 0 -54 -50h128v-75h-208zM145 0v690h140v-550h128v-140h-268z" />
    <glyph glyph-name="uni0624.fina" unicode="&#x624;" horiz-adv-x="629" arabic-form="final" 
d="M556 563l-1 -423h93v-140h-95q-8 -105 -67.5 -162.5t-187.5 -57.5q-60 0 -146 24l-10 141q79 -25 146 -25q63 0 91.5 15.5t34.5 64.5h-16q-154 0 -248.5 69.5t-94.5 212.5q0 129 95.5 205t247.5 76h158zM195 282q0 -67 46 -104.5t116 -37.5h59v283h-59
q-65 0 -113.5 -39.5t-48.5 -101.5zM345 641v73q0 124 126 124h60v-45h-52q-54 0 -54 -50v-27h138v-75h-218z" />
    <glyph glyph-name="uni0625.fina" unicode="&#x625;" horiz-adv-x="389" arabic-form="final" 
d="M236 -219q-126 0 -126 124v46h208v-75h-128q0 -50 54 -50h42v-45h-50zM141 0v811h140v-671h128v-140h-268z" />
    <glyph glyph-name="uni0626.fina" unicode="&#x626;" horiz-adv-x="1111" arabic-form="final" 
d="M401 -125q-89 0 -148.5 19t-105.5 63q-67 63 -67 207v219h140v-202q0 -93 42 -128q45 -38 149 -38h146v282q0 144 86 213q68 53 191 53h189v-423h107v-140h-247v423h-64q-53 0 -85 -25q-17 -13 -27 -39.5t-10 -52.5v-431h-296zM41 454v73q0 124 126 124h60v-45h-52
q-54 0 -54 -50v-27h138v-75h-218z" />
    <glyph glyph-name="uni0626.init" unicode="&#x626;" horiz-adv-x="324" arabic-form="initial" 
d="M82 640v73q0 124 126 124h60v-45h-52q-54 0 -54 -50v-27h138v-75h-218zM0 0v140h124v423h140v-563h-264z" />
    <glyph glyph-name="uni0626.medi" unicode="&#x626;" horiz-adv-x="352" arabic-form="medial" 
d="M0 0v140h124v423h140v-423h107v-140h-371zM80 640v73q0 124 126 124h60v-45h-52q-54 0 -54 -50v-27h138v-75h-218z" />
    <glyph glyph-name="uni0627.fina" unicode="&#x627;" horiz-adv-x="378" arabic-form="final" 
d="M130 0v811h140v-671h128v-140h-268z" />
    <glyph glyph-name="uni0628.fina" unicode="&#x628;" horiz-adv-x="891" arabic-form="final" 
d="M372 0q-89 0 -148.5 19t-105.5 63q-67 63 -67 207v189h140v-172q0 -93 42 -128q45 -38 149 -38h280v423h140v-423h108v-140h-538zM479 -213q-35 0 -58.5 20t-23.5 55q0 33 23.5 53.5t58.5 20.5q36 0 59 -20.5t23 -53.5q0 -35 -23.5 -55t-58.5 -20z" />
    <glyph glyph-name="uni0628.init" unicode="&#x628;" horiz-adv-x="324" arabic-form="initial" 
d="M196 -213q-35 0 -58.5 20t-23.5 55q0 33 23.5 53.5t58.5 20.5q36 0 59 -20.5t23 -53.5q0 -35 -23.5 -55t-58.5 -20zM0 0v140h124v423h140v-563h-264z" />
    <glyph glyph-name="uni0628.medi" unicode="&#x628;" horiz-adv-x="352" arabic-form="medial" 
d="M0 0v140h124v423h140v-423h107v-140h-371zM194 -213q-35 0 -58.5 20t-23.5 55q0 33 23.5 53.5t58.5 20.5q36 0 59 -20.5t23 -53.5q0 -35 -23.5 -55t-58.5 -20z" />
    <glyph glyph-name="uni0629.fina" unicode="&#x629;" horiz-adv-x="630" arabic-form="final" 
d="M557 140h92v-140h-252q-155 0 -248.5 71.5t-93.5 209.5q0 124 92 203t250 79h20v50h140v-473zM356 140h61v283h-54q-66 0 -117 -39t-51 -103q0 -66 47.5 -103.5t113.5 -37.5zM473 687q-33 0 -55.5 19t-22.5 53q0 31 22.5 51t55.5 20q34 0 56 -20t22 -51q0 -34 -22.5 -53
t-55.5 -19zM256 687q-33 0 -55.5 19t-22.5 53q0 31 22.5 51t55.5 20t55.5 -20t22.5 -51q0 -34 -22.5 -53t-55.5 -19z" />
    <glyph glyph-name="uni062A.fina" unicode="&#x62a;" horiz-adv-x="891" arabic-form="final" 
d="M372 0q-89 0 -148.5 19t-105.5 63q-67 63 -67 207v189h140v-172q0 -93 42 -128q45 -38 149 -38h280v423h140v-423h108v-140h-538zM547 595q-33 0 -55.5 19t-22.5 53q0 31 22.5 51t55.5 20q34 0 56 -20t22 -51q0 -34 -22.5 -53t-55.5 -19zM330 595q-33 0 -55.5 19
t-22.5 53q0 31 22.5 51t55.5 20t55.5 -20t22.5 -51q0 -34 -22.5 -53t-55.5 -19z" />
    <glyph glyph-name="uni062A.init" unicode="&#x62a;" horiz-adv-x="424" arabic-form="initial" 
d="M0 0v140h209v423h140v-563h-349zM165 648q-33 0 -55.5 19t-22.5 53q0 31 22.5 51t55.5 20t55.5 -20t22.5 -51q0 -34 -22.5 -53t-55.5 -19zM382 648q-33 0 -55.5 19t-22.5 53q0 31 22.5 51t55.5 20q34 0 56 -20t22 -51q0 -34 -22.5 -53t-55.5 -19z" />
    <glyph glyph-name="uni062A.medi" unicode="&#x62a;" horiz-adv-x="513" arabic-form="medial" 
d="M0 0v140h209v423h140v-423h184v-140h-533zM381 648q-33 0 -55.5 19t-22.5 53q0 31 22.5 51t55.5 20q34 0 56 -20t22 -51q0 -34 -22.5 -53t-55.5 -19zM164 648q-33 0 -55.5 19t-22.5 53q0 31 22.5 51t55.5 20t55.5 -20t22.5 -51q0 -34 -22.5 -53t-55.5 -19z" />
    <glyph glyph-name="uni062B.fina" unicode="&#x62b;" horiz-adv-x="891" arabic-form="final" 
d="M372 0q-89 0 -148.5 19t-105.5 63q-67 63 -67 207v189h140v-172q0 -93 42 -128q45 -38 149 -38h280v423h140v-423h108v-140h-538zM546 601q-32 0 -53.5 18.5t-21.5 51.5q0 30 21 49.5t54 19.5t54.5 -19t21.5 -50q0 -33 -22 -51.5t-54 -18.5zM334 601q-32 0 -53.5 18.5
t-21.5 51.5q0 30 21 49.5t54 19.5t54.5 -19.5t21.5 -49.5q0 -33 -22 -51.5t-54 -18.5zM440 760q-28 0 -47.5 16t-19.5 45q0 27 19 44t48 17t48 -17t19 -44q0 -29 -19.5 -45t-47.5 -16z" />
    <glyph glyph-name="uni062B.init" unicode="&#x62b;" horiz-adv-x="424" arabic-form="initial" 
d="M162 654q-32 0 -53.5 18.5t-21.5 51.5q0 30 21 49.5t54 19.5t54.5 -19.5t21.5 -49.5q0 -33 -22 -51.5t-54 -18.5zM268 813q-28 0 -47.5 16t-19.5 45q0 27 19 44t48 17t48 -17t19 -44q0 -29 -19.5 -45t-47.5 -16zM374 654q-32 0 -53.5 18.5t-21.5 51.5q0 30 21 49.5
t54 19.5t54.5 -19t21.5 -50q0 -33 -22 -51.5t-54 -18.5zM0 0v140h209v423h140v-563h-349z" />
    <glyph glyph-name="uni062B.medi" unicode="&#x62b;" horiz-adv-x="513" arabic-form="medial" 
d="M0 0v140h209v423h140v-423h184v-140h-533zM375 654q-32 0 -53.5 18.5t-21.5 51.5q0 30 21 49.5t54 19.5t54.5 -19t21.5 -50q0 -33 -22 -51.5t-54 -18.5zM163 654q-32 0 -53.5 18.5t-21.5 51.5q0 30 21 49.5t54 19.5t54.5 -19.5t21.5 -49.5q0 -33 -22 -51.5t-54 -18.5z
M269 813q-28 0 -47.5 16t-19.5 45q0 27 19 44t48 17t48 -17t19 -44q0 -29 -19.5 -45t-47.5 -16z" />
    <glyph glyph-name="uni062C.fina" unicode="&#x62c;" horiz-adv-x="627" arabic-form="final" 
d="M105 -220q-80 114 -80 259q0 56 9 101h370q17 75 17 143q0 78 -49 121q-43 38 -118 38q-76 0 -145 -44l-58 122q109 62 220 62q124 0 199 -77q90 -90 90 -233q0 -64 -13 -132h99v-140h-479v-15q0 -73 47 -154zM376 -213q-35 0 -58.5 20t-23.5 55q0 33 23.5 53.5
t58.5 20.5q36 0 59 -20.5t23 -53.5q0 -35 -23.5 -55t-58.5 -20z" />
    <glyph glyph-name="uni062C.init" unicode="&#x62c;" horiz-adv-x="617" arabic-form="initial" 
d="M0 0v140h415q17 75 17 143q0 78 -49 121q-43 38 -118 38q-76 0 -145 -44l-58 122q109 62 220 62q124 0 199 -77q90 -90 90 -233q0 -125 -48 -272h-523zM274 -213q-35 0 -58.5 20t-23.5 55q0 33 23.5 53.5t58.5 20.5q36 0 59 -20.5t23 -53.5q0 -35 -23.5 -55t-58.5 -20z
" />
    <glyph glyph-name="uni062C.medi" unicode="&#x62c;" horiz-adv-x="647" arabic-form="medial" 
d="M0 0v140h415q17 75 17 143q0 78 -49 121q-43 38 -118 38q-76 0 -145 -44l-58 122q109 62 220 62q124 0 199 -77q90 -90 90 -233q0 -64 -13 -132h108v-140h-666zM274 -213q-35 0 -58.5 20t-23.5 55q0 33 23.5 53.5t58.5 20.5q36 0 59 -20.5t23 -53.5q0 -35 -23.5 -55
t-58.5 -20z" />
    <glyph glyph-name="uni062D.fina" unicode="&#x62d;" horiz-adv-x="627" arabic-form="final" 
d="M167 0v-15q0 -73 47 -154l-109 -51q-80 114 -80 259q0 56 9 101h370q17 75 17 143q0 78 -49 121q-43 38 -118 38q-76 0 -145 -44l-58 122q109 62 220 62q124 0 199 -77q90 -90 90 -233q0 -64 -13 -132h99v-140h-479z" />
    <glyph glyph-name="uni062D.init" unicode="&#x62d;" horiz-adv-x="617" arabic-form="initial" 
d="M0 0v140h415q17 75 17 143q0 78 -49 121q-43 38 -118 38q-76 0 -145 -44l-58 122q109 62 220 62q124 0 199 -77q90 -90 90 -233q0 -125 -48 -272h-523z" />
    <glyph glyph-name="uni062D.medi" unicode="&#x62d;" horiz-adv-x="647" arabic-form="medial" 
d="M0 0v140h415q17 75 17 143q0 78 -49 121q-43 38 -118 38q-76 0 -145 -44l-58 122q109 62 220 62q124 0 199 -77q90 -90 90 -233q0 -64 -13 -132h108v-140h-666z" />
    <glyph glyph-name="uni062E.fina" unicode="&#x62e;" horiz-adv-x="602" arabic-form="final" 
d="M142 0v-15q0 -73 47 -154l-109 -51q-80 114 -80 259q0 56 9 101h370q17 75 17 143q0 78 -49 121q-43 38 -118 38q-76 0 -145 -44l-58 122q109 62 220 62q124 0 199 -77q90 -90 90 -233q0 -64 -13 -132h99v-140h-479zM219 660q-35 0 -58.5 20t-23.5 55q0 33 23.5 53.5
t58.5 20.5q36 0 59 -20.5t23 -53.5q0 -35 -23.5 -55t-58.5 -20z" />
    <glyph glyph-name="uni062E.init" unicode="&#x62e;" horiz-adv-x="617" arabic-form="initial" 
d="M0 0v140h415q17 75 17 143q0 78 -49 121q-43 38 -118 38q-76 0 -145 -44l-58 122q109 62 220 62q124 0 199 -77q90 -90 90 -233q0 -125 -48 -272h-523zM264 666q-35 0 -58.5 20t-23.5 55q0 33 23.5 53.5t58.5 20.5q36 0 59 -20.5t23 -53.5q0 -35 -23.5 -55t-58.5 -20z
" />
    <glyph glyph-name="uni062E.medi" unicode="&#x62e;" horiz-adv-x="607" arabic-form="medial" 
d="M-40 0v140h415q17 75 17 143q0 78 -49 121q-43 38 -118 38q-76 0 -145 -44l-58 122q109 62 220 62q124 0 199 -77q90 -90 90 -233q0 -64 -13 -132h108v-140h-666zM224 666q-35 0 -58.5 20t-23.5 55q0 33 23.5 53.5t58.5 20.5q36 0 59 -20.5t23 -53.5q0 -35 -23.5 -55
t-58.5 -20z" />
    <glyph glyph-name="uni062F.fina" unicode="&#x62f;" horiz-adv-x="613" arabic-form="final" 
d="M35 0v140h349v153q0 57 -27 92q-29 38 -85 38h-60v140h46q137 0 208 -75q58 -62 58 -201v-147h108v-140h-597z" />
    <glyph glyph-name="uni0630.fina" unicode="&#x630;" horiz-adv-x="613" arabic-form="final" 
d="M35 0v140h349v153q0 57 -27 92q-29 38 -85 38h-60v140h46q137 0 208 -75q58 -62 58 -201v-147h108v-140h-597zM286 637q-35 0 -58.5 20t-23.5 55q0 33 23.5 53.5t58.5 20.5q36 0 59 -20.5t23 -53.5q0 -35 -23.5 -55t-58.5 -20z" />
    <glyph glyph-name="uni0631.fina" unicode="&#x631;" horiz-adv-x="399" arabic-form="final" 
d="M111 -220q-40 0 -71 9l-10 140q33 -9 66 -9q41 0 58 22.5t17 75.5v545h140v-423h108v-140h-109q-6 -116 -53 -168t-146 -52z" />
    <glyph glyph-name="uni0632.fina" unicode="&#x632;" horiz-adv-x="399" arabic-form="final" 
d="M111 -220q-40 0 -71 9l-10 140q33 -9 66 -9q41 0 58 22.5t17 75.5v545h140v-423h108v-140h-109q-6 -116 -53 -168t-146 -52zM238 648q-35 0 -58.5 20t-23.5 55q0 33 23.5 53.5t58.5 20.5q36 0 59 -20.5t23 -53.5q0 -35 -23.5 -55t-58.5 -20z" />
    <glyph glyph-name="uni0633.fina" unicode="&#x633;" horiz-adv-x="1475" arabic-form="final" 
d="M986 513v-242q0 -69 33.5 -105t92.5 -36q58 0 89 33.5t31 92.5v377h139v-359q0 -53 -9 -95q48 -39 139 -39v-140q-131 0 -178 81q-63 -91 -211 -91q-139 0 -199 96q-83 -86 -199 -86h-103v-125h-230q-89 0 -148.5 19t-105.5 63q-67 63 -67 207v327h140v-310
q0 -93 42 -128q45 -38 149 -38h80v548h140v-423h103q54 0 93 29t39 96v248h140z" />
    <glyph glyph-name="uni0633.init" unicode="&#x633;" horiz-adv-x="1168" arabic-form="initial" 
d="M0 0v140h218v373h140v-373h102q54 0 93 29t39 96v248h140v-248q1 -67 34.5 -101t91.5 -34t89 33.5t31 92.5v377h139v-359q0 -144 -64 -214t-195 -70q-139 0 -199 96q-83 -86 -199 -86h-460z" />
    <glyph glyph-name="uni0633.medi" unicode="&#x633;" horiz-adv-x="1230" arabic-form="medial" 
d="M732 513v-242q0 -69 33.5 -105t92.5 -36q58 0 89 33.5t31 92.5v377h139v-359q0 -41 -7 -87q44 -47 140 -47v-140q-132 0 -179 83q-63 -93 -213 -93q-139 0 -199 96q-83 -86 -199 -86h-460v140h218v373h140v-373h102q54 0 93 29t39 96v248h140z" />
    <glyph glyph-name="uni0634.fina" unicode="&#x634;" horiz-adv-x="1475" arabic-form="final" 
d="M986 513v-242v-6v-1q1 -66 35 -100t91 -34q58 0 89 33.5t31 92.5v377h139v-359q0 -53 -9 -95q48 -39 139 -39v-140q-131 0 -178 81q-63 -91 -211 -91q-139 0 -199 96q-83 -86 -199 -86h-103v-125h-230q-89 0 -148.5 19t-105.5 63q-67 63 -67 207v327h140v-310
q0 -93 42 -128q45 -38 149 -38h80v548h140v-423h103q54 0 93 29t39 96v248h140zM1023 654q-32 0 -53.5 18.5t-21.5 51.5q0 30 21 49.5t54 19.5t54.5 -19t21.5 -50q0 -33 -22 -51.5t-54 -18.5zM811 654q-32 0 -53.5 18.5t-21.5 51.5q0 30 21 49.5t54 19.5t54.5 -19.5
t21.5 -49.5q0 -33 -22 -51.5t-54 -18.5zM917 813q-28 0 -47.5 16t-19.5 45q0 27 19 44t48 17t48 -17t19 -44q0 -29 -19.5 -45t-47.5 -16z" />
    <glyph glyph-name="uni0634.init" unicode="&#x634;" horiz-adv-x="1168" arabic-form="initial" 
d="M0 0v140h218v373h140v-373h102q54 0 93 29t39 96v248h140v-242q0 -69 33.5 -105t92.5 -36q58 0 89 33.5t31 92.5v377h139v-359q0 -144 -64 -214t-195 -70q-139 0 -199 96q-83 -86 -199 -86h-460zM768 654q-32 0 -53.5 18.5t-21.5 51.5q0 30 21 49.5t54 19.5t54.5 -19
t21.5 -50q0 -33 -22 -51.5t-54 -18.5zM556 654q-32 0 -53.5 18.5t-21.5 51.5q0 30 21 49.5t54 19.5t54.5 -19.5t21.5 -49.5q0 -33 -22 -51.5t-54 -18.5zM662 813q-28 0 -47.5 16t-19.5 45q0 27 19 44t48 17t48 -17t19 -44q0 -29 -19.5 -45t-47.5 -16z" />
    <glyph glyph-name="uni0634.medi" unicode="&#x634;" horiz-adv-x="1229" arabic-form="medial" 
d="M732 513v-248v-1q1 -66 35 -100t91 -34q58 0 89 33.5t31 92.5v377h139v-359q0 -48 -8 -93q47 -41 141 -41v-140q-133 0 -180 83q-62 -93 -212 -93q-139 0 -199 96q-83 -86 -199 -86h-460v140h218v373h140v-373h102q54 0 93 29t39 96v248h140zM766 654q-32 0 -53.5 18.5
t-21.5 51.5q0 30 21 49.5t54 19.5t54.5 -19t21.5 -50q0 -33 -22 -51.5t-54 -18.5zM554 654q-32 0 -53.5 18.5t-21.5 51.5q0 30 21 49.5t54 19.5t54.5 -19.5t21.5 -49.5q0 -33 -22 -51.5t-54 -18.5zM660 813q-28 0 -47.5 16t-19.5 45q0 27 19 44t48 17t48 -17t19 -44
q0 -29 -19.5 -45t-47.5 -16z" />
    <glyph glyph-name="uni0635.fina" unicode="&#x635;" horiz-adv-x="1275" arabic-form="final" 
d="M382 -125q-89 0 -148.5 19t-105.5 63q-67 63 -67 207v327h140v-310q0 -93 42 -128q45 -38 149 -38h80v567h140v-69h309q137 0 208 -75q58 -62 58 -201v-97h108v-140h-683v-125h-230zM935 374h-323v-234h435v103q0 57 -27 92q-30 39 -85 39z" />
    <glyph glyph-name="uni0635.init" unicode="&#x635;" horiz-adv-x="860" arabic-form="initial" 
d="M0 0v140h98v423h140v-50h305q137 0 208 -75q58 -62 58 -201v-237h-809zM557 374h-319v-234h431v103q0 57 -27 92q-30 39 -85 39z" />
    <glyph glyph-name="uni0635.medi" unicode="&#x635;" horiz-adv-x="898" arabic-form="medial" 
d="M0 0v140h98v423h140v-50h305q137 0 208 -75q58 -62 58 -201v-97h108v-140h-917zM557 374h-319v-234h431v103q0 57 -27 92q-30 39 -85 39z" />
    <glyph glyph-name="uni0636.fina" unicode="&#x636;" horiz-adv-x="1275" arabic-form="final" 
d="M382 -125q-89 0 -148.5 19t-105.5 63q-67 63 -67 207v327h140v-310q0 -93 42 -128q45 -38 149 -38h80v567h140v-69h309q137 0 208 -75q58 -62 58 -201v-97h108v-140h-683v-125h-230zM935 374h-323v-234h435v103q0 57 -27 92q-30 39 -85 39zM819 603q-35 0 -58.5 20
t-23.5 55q0 33 23.5 53.5t58.5 20.5q36 0 59 -20.5t23 -53.5q0 -35 -23.5 -55t-58.5 -20z" />
    <glyph glyph-name="uni0636.init" unicode="&#x636;" horiz-adv-x="860" arabic-form="initial" 
d="M0 0v140h98v423h140v-50h305q137 0 208 -75q58 -62 58 -201v-237h-809zM557 374h-319v-234h431v103q0 57 -27 92q-30 39 -85 39zM450 603q-35 0 -58.5 20t-23.5 55q0 33 23.5 53.5t58.5 20.5q36 0 59 -20.5t23 -53.5q0 -35 -23.5 -55t-58.5 -20z" />
    <glyph glyph-name="uni0636.medi" unicode="&#x636;" horiz-adv-x="898" arabic-form="medial" 
d="M0 0v140h98v423h140v-50h305q137 0 208 -75q58 -62 58 -201v-97h108v-140h-917zM557 374h-319v-234h431v103q0 57 -27 92q-30 39 -85 39zM450 603q-35 0 -58.5 20t-23.5 55q0 33 23.5 53.5t58.5 20.5q36 0 59 -20.5t23 -53.5q0 -35 -23.5 -55t-58.5 -20z" />
    <glyph glyph-name="uni0637.fina" unicode="&#x637;" horiz-adv-x="916" arabic-form="final" 
d="M18 0v140h98v671h140v-298h305q137 0 208 -75q58 -62 58 -201v-97h109v-140h-918zM575 374h-319v-234h431v103q0 57 -27 92q-30 39 -85 39z" />
    <glyph glyph-name="uni0637.init" unicode="&#x637;" horiz-adv-x="860" arabic-form="initial" 
d="M0 0v140h98v671h140v-298h305q137 0 208 -75q58 -62 58 -201v-237h-809zM557 374h-319v-234h431v103q0 57 -27 92q-30 39 -85 39z" />
    <glyph glyph-name="uni0637.medi" unicode="&#x637;" horiz-adv-x="898" arabic-form="medial" 
d="M0 0v140h98v671h140v-298h305q137 0 208 -75q58 -62 58 -201v-97h108v-140h-917zM557 374h-319v-234h431v103q0 57 -27 92q-30 39 -85 39z" />
    <glyph glyph-name="uni0638.fina" unicode="&#x638;" horiz-adv-x="916" arabic-form="final" 
d="M18 0v140h98v671h140v-298h305q137 0 208 -75q58 -62 58 -201v-97h109v-140h-918zM575 374h-319v-234h431v103q0 57 -27 92q-30 39 -85 39zM472 603q-35 0 -58.5 20t-23.5 55q0 33 23.5 53.5t58.5 20.5q36 0 59 -20.5t23 -53.5q0 -35 -23.5 -55t-58.5 -20z" />
    <glyph glyph-name="uni0638.init" unicode="&#x638;" horiz-adv-x="860" arabic-form="initial" 
d="M0 0v140h98v671h140v-298h305q137 0 208 -75q58 -62 58 -201v-237h-809zM557 374h-319v-234h431v103q0 57 -27 92q-30 39 -85 39zM453 603q-35 0 -58.5 20t-23.5 55q0 33 23.5 53.5t58.5 20.5q36 0 59 -20.5t23 -53.5q0 -35 -23.5 -55t-58.5 -20z" />
    <glyph glyph-name="uni0638.medi" unicode="&#x638;" horiz-adv-x="898" arabic-form="medial" 
d="M0 0v140h98v671h140v-298h305q137 0 208 -75q58 -62 58 -201v-97h108v-140h-917zM557 374h-319v-234h431v103q0 57 -27 92q-30 39 -85 39zM453 603q-35 0 -58.5 20t-23.5 55q0 33 23.5 53.5t58.5 20.5q36 0 59 -20.5t23 -53.5q0 -35 -23.5 -55t-58.5 -20z" />
    <glyph glyph-name="uni0639.fina" unicode="&#x639;" horiz-adv-x="731" arabic-form="final" 
d="M120 -220q-80 114 -80 259q0 56 9 101h148l-124 318q80 69 153 105.5t154 36.5q151 0 308 -143l-120 -317h183v-140h-569v-15q0 -73 47 -154zM380 452q-76 0 -150 -54l91 -258h120l91 259q-78 53 -152 53z" />
    <glyph glyph-name="uni0639.init" unicode="&#x639;" horiz-adv-x="616" arabic-form="initial" 
d="M0 0v140h109q-42 88 -42 167q0 133 100 216q71 59 182 59q98 0 208 -55l-47 -127q-75 43 -144 43t-109 -34q-49 -41 -49 -113q0 -90 53 -156h317v-140h-578z" />
    <glyph glyph-name="uni0639.medi" unicode="&#x639;" horiz-adv-x="704" arabic-form="medial" 
d="M0 0v140h169l-124 318q80 69 153 105.5t154 36.5q151 0 308 -143l-120 -317h184v-140h-724zM352 452q-76 0 -150 -54l91 -258h120l91 259q-78 53 -152 53z" />
    <glyph glyph-name="uni063A.fina" unicode="&#x63a;" horiz-adv-x="731" arabic-form="final" 
d="M120 -220q-80 114 -80 259q0 56 9 101h148l-124 318q80 69 153 105.5t154 36.5q151 0 308 -143l-120 -317h183v-140h-569v-15q0 -73 47 -154zM380 452q-76 0 -150 -54l91 -258h120l91 259q-78 53 -152 53zM374 666q-35 0 -58.5 20t-23.5 55q0 33 23.5 53.5t58.5 20.5
q36 0 59 -20.5t23 -53.5q0 -35 -23.5 -55t-58.5 -20z" />
    <glyph glyph-name="uni063A.init" unicode="&#x63a;" horiz-adv-x="616" arabic-form="initial" 
d="M0 0v140h109q-42 88 -42 167q0 133 100 216q71 59 182 59q98 0 208 -55l-47 -127q-75 43 -144 43t-109 -34q-49 -41 -49 -113q0 -90 53 -156h317v-140h-578zM330 666q-35 0 -58.5 20t-23.5 55q0 33 23.5 53.5t58.5 20.5q36 0 59 -20.5t23 -53.5q0 -35 -23.5 -55
t-58.5 -20z" />
    <glyph glyph-name="uni063A.medi" unicode="&#x63a;" horiz-adv-x="704" arabic-form="medial" 
d="M0 0v140h169l-124 318q80 69 153 105.5t154 36.5q151 0 308 -143l-120 -317h184v-140h-724zM352 452q-76 0 -150 -54l91 -258h120l91 259q-78 53 -152 53zM350 666q-35 0 -58.5 20t-23.5 55q0 33 23.5 53.5t58.5 20.5q36 0 59 -20.5t23 -53.5q0 -35 -23.5 -55t-58.5 -20z
" />
    <glyph glyph-name="uni0641.fina" unicode="&#x641;" horiz-adv-x="1086" arabic-form="final" 
d="M1105 0h-733q-89 0 -148.5 19t-105.5 63q-67 63 -67 207v189h140v-172q0 -93 42 -128q45 -38 149 -38h163q-48 63 -48 142q0 130 92 205.5t244 75.5h165v-423h107v-140zM637 282q0 -89 76 -142h145v283h-59q-65 0 -113.5 -38t-48.5 -103zM805 648q-35 0 -58.5 20
t-23.5 55q0 33 23.5 53.5t58.5 20.5q36 0 59 -20.5t23 -53.5q0 -35 -23.5 -55t-58.5 -20z" />
    <glyph glyph-name="uni0641.init" unicode="&#x641;" horiz-adv-x="632" arabic-form="initial" 
d="M0 0v140h134q-48 63 -48 142q0 130 92 205.5t244 75.5h165v-563h-587zM226 282q0 -89 76 -142h145v283h-59q-65 0 -113.5 -38t-48.5 -103zM380 648q-35 0 -58.5 20t-23.5 55q0 33 23.5 53.5t58.5 20.5q36 0 59 -20.5t23 -53.5q0 -35 -23.5 -55t-58.5 -20z" />
    <glyph glyph-name="uni0641.medi" unicode="&#x641;" horiz-adv-x="660" arabic-form="medial" 
d="M0 0v140h134q-48 63 -48 142q0 130 92 205.5t244 75.5h165v-423h93v-140h-680zM226 282q0 -89 76 -142h145v283h-59q-65 0 -113.5 -38t-48.5 -103zM379 648q-35 0 -58.5 20t-23.5 55q0 33 23.5 53.5t58.5 20.5q36 0 59 -20.5t23 -53.5q0 -35 -23.5 -55t-58.5 -20z" />
    <glyph glyph-name="uni0642.fina" unicode="&#x642;" horiz-adv-x="903" arabic-form="final" 
d="M814 -220h-441q-89 0 -148.5 19t-105.5 63q-67 63 -67 207v219h140v-202q0 -93 42 -128q45 -38 149 -38h291v80h-18q-154 0 -248.5 69.5t-94.5 212.5q0 129 95.5 205t247.5 76h158v-423h108v-140h-108v-220zM453 282q0 -67 46 -104.5t116 -37.5h59v283h-59
q-65 0 -113.5 -39.5t-48.5 -101.5zM732 648q-33 0 -55.5 19t-22.5 53q0 31 22.5 51t55.5 20q34 0 56 -20t22 -51q0 -34 -22.5 -53t-55.5 -19zM515 648q-33 0 -55.5 19t-22.5 53q0 31 22.5 51t55.5 20t55.5 -20t22.5 -51q0 -34 -22.5 -53t-55.5 -19z" />
    <glyph glyph-name="uni0642.init" unicode="&#x642;" horiz-adv-x="632" arabic-form="initial" 
d="M0 0v140h134q-48 63 -48 142q0 130 92 205.5t244 75.5h165v-563h-587zM226 282q0 -89 76 -142h145v283h-59q-65 0 -113.5 -38t-48.5 -103zM490 648q-33 0 -55.5 19t-22.5 53q0 31 22.5 51t55.5 20q34 0 56 -20t22 -51q0 -34 -22.5 -53t-55.5 -19zM273 648q-33 0 -55.5 19
t-22.5 53q0 31 22.5 51t55.5 20t55.5 -20t22.5 -51q0 -34 -22.5 -53t-55.5 -19z" />
    <glyph glyph-name="uni0642.medi" unicode="&#x642;" horiz-adv-x="659" arabic-form="medial" 
d="M0 0v140h134q-48 63 -48 142q0 130 92 205.5t244 75.5h165v-423h92v-140h-679zM226 282q0 -89 76 -142h145v283h-59q-65 0 -113.5 -38t-48.5 -103zM490 648q-33 0 -55.5 19t-22.5 53q0 31 22.5 51t55.5 20q34 0 56 -20t22 -51q0 -34 -22.5 -53t-55.5 -19zM273 648
q-33 0 -55.5 19t-22.5 53q0 31 22.5 51t55.5 20t55.5 -20t22.5 -51q0 -34 -22.5 -53t-55.5 -19z" />
    <glyph glyph-name="uni0643.fina" unicode="&#x643;" horiz-adv-x="953" arabic-form="final" 
d="M410 0q-89 0 -148.5 19t-105.5 63q-67 63 -67 207v189h140v-172q0 -93 42 -128q45 -38 149 -38h280v671h140v-671h108v-140h-538zM364 349v73q0 124 126 124h60v-45h-52q-54 0 -54 -50v-27h138v-75h-218z" />
    <glyph glyph-name="uni0643.init" unicode="&#x643;" horiz-adv-x="816" arabic-form="initial" 
d="M0 0v140h623v107q0 57 -27 92q-30 39 -85 39h-418q-45 60 -48 139l162 294h150l-155 -294h295q137 0 208 -75q58 -62 58 -201v-241h-763z" />
    <glyph glyph-name="uni0643.medi" unicode="&#x643;" horiz-adv-x="851" arabic-form="medial" 
d="M0 0v140h623v107q0 57 -27 92q-30 39 -85 39h-418q-45 60 -48 139l162 294h150l-155 -294h295q137 0 208 -75q58 -62 58 -201v-101h107v-140h-870z" />
    <glyph glyph-name="uni0644.fina" unicode="&#x644;" horiz-adv-x="714" arabic-form="final" 
d="M376 -125q-89 0 -148.5 19t-105.5 63q-67 63 -67 207v327h140v-310q0 -93 42 -128q45 -38 149 -38h80v796h206v-140h-66v-531h128v-140h-128v-125h-230z" />
    <glyph glyph-name="uni0644.init" unicode="&#x644;" horiz-adv-x="313" arabic-form="initial" 
d="M0 0v140h98v671h140v-811h-238z" />
    <glyph glyph-name="uni0644.medi" unicode="&#x644;" horiz-adv-x="346" arabic-form="medial" 
d="M0 0v140h98v671h140v-671h128v-140h-366z" />
    <glyph glyph-name="uni0645.fina" unicode="&#x645;" horiz-adv-x="962" arabic-form="final" 
d="M572 -110q-99 0 -177.5 59t-107.5 151q-56 -4 -82 -40q-30 -41 -30 -130v-150h-140v152q0 153 74 234q31 34 78 53.5t90 20.5q17 109 101 182t194 73q127 0 215.5 -88.5t88.5 -217.5q0 -17 -4 -49h110v-140h-175q-42 -52 -104 -81t-131 -29zM572 30q70 0 117 45.5
t47 115.5q0 71 -46 117.5t-118 46.5q-69 0 -114 -47.5t-45 -116.5q0 -68 46 -114.5t113 -46.5z" />
    <glyph glyph-name="uni0645.init" unicode="&#x645;" horiz-adv-x="730" arabic-form="initial" 
d="M0 0v140h97q-7 28 -7 64q0 127 87.5 216.5t211.5 89.5q127 0 215.5 -88.5t88.5 -217.5q0 -126 -90 -212.5t-214 -86.5q-128 0 -218 95h-171zM389 45q70 0 117 45.5t47 115.5q0 71 -46 117.5t-118 46.5q-69 0 -114 -47.5t-45 -116.5q0 -68 46 -114.5t113 -46.5z" />
    <glyph glyph-name="uni0645.medi" unicode="&#x645;" horiz-adv-x="778" arabic-form="medial" 
d="M0 0v140h97q-7 28 -7 64q0 127 87.5 216.5t211.5 89.5q127 0 215.5 -88.5t88.5 -217.5q0 -29 -7 -64h112v-140h-187q-90 -95 -222 -95q-128 0 -218 95h-171zM389 45q70 0 117 45.5t47 115.5q0 71 -46 117.5t-118 46.5q-69 0 -114 -47.5t-45 -116.5q0 -68 46 -114.5
t113 -46.5z" />
    <glyph glyph-name="uni0646.fina" unicode="&#x646;" horiz-adv-x="695" arabic-form="final" 
d="M376 -125q-89 0 -148.5 19t-105.5 63q-67 63 -67 207v327h140v-310q0 -93 42 -128q45 -38 149 -38h80v476h140v-351h108v-140h-108v-125h-230zM338 580q-35 0 -58.5 20t-23.5 55q0 33 23.5 53.5t58.5 20.5q36 0 59 -20.5t23 -53.5q0 -35 -23.5 -55t-58.5 -20z" />
    <glyph glyph-name="uni0646.init" unicode="&#x646;" horiz-adv-x="324" arabic-form="initial" 
d="M191 648q-35 0 -58.5 20t-23.5 55q0 33 23.5 53.5t58.5 20.5q36 0 59 -20.5t23 -53.5q0 -35 -23.5 -55t-58.5 -20zM0 0v140h124v423h140v-563h-264z" />
    <glyph glyph-name="uni0646.medi" unicode="&#x646;" horiz-adv-x="352" arabic-form="medial" 
d="M0 0v140h124v423h140v-423h107v-140h-371zM190 648q-35 0 -58.5 20t-23.5 55q0 33 23.5 53.5t58.5 20.5q36 0 59 -20.5t23 -53.5q0 -35 -23.5 -55t-58.5 -20z" />
    <glyph glyph-name="uniFEE9" unicode="&#x647;" horiz-adv-x="618" arabic-form="isolated" 
d="M397 0q-155 0 -248.5 71.5t-93.5 209.5q0 124 92 203t250 79h20v50h140v-613h-160zM356 140h61v283h-54q-66 0 -117 -39t-51 -103q0 -66 47.5 -103.5t113.5 -37.5z" />
    <glyph glyph-name="uni0647.fina" unicode="&#x647;" horiz-adv-x="630" arabic-form="final" 
d="M557 140h92v-140h-252q-155 0 -248.5 71.5t-93.5 209.5q0 124 92 203t250 79h20v50h140v-473zM356 140h61v283h-54q-66 0 -117 -39t-51 -103q0 -66 47.5 -103.5t113.5 -37.5z" />
    <glyph glyph-name="uni0647.init" unicode="&#x647;" horiz-adv-x="806" arabic-form="initial" 
d="M0 0v140h114q-9 43 -9 72q0 111 55 171t152 60q92 0 150.5 -63t58.5 -167q0 -35 -8 -73h91q8 54 8 95q0 115 -52 194q-68 103 -230 103q-95 0 -212 -64l-47 127q156 78 295 78q196 0 304 -157q82 -121 82 -305q0 -94 -37 -211h-715zM230 215q0 -31 7 -75h152q7 44 7 75
q0 48 -22.5 75.5t-61.5 27.5q-82 0 -82 -103z" />
    <glyph glyph-name="uni0647.medi" unicode="&#x647;" horiz-adv-x="822" arabic-form="medial" 
d="M0 0v140h114q-9 43 -9 72q0 111 55 171t152 60q92 0 150.5 -63t58.5 -167q0 -35 -8 -73h91q8 54 8 95q0 115 -52 194q-68 103 -230 103q-95 0 -212 -64l-47 127q156 78 295 78q196 0 304 -157q82 -121 82 -305q0 -33 -6 -71h96v-140h-842zM230 215q0 -31 7 -75h152
q7 44 7 75q0 48 -22.5 75.5t-61.5 27.5q-82 0 -82 -103z" />
    <glyph glyph-name="uni0648.fina" unicode="&#x648;" horiz-adv-x="629" arabic-form="final" 
d="M556 563l-1 -423h93v-140h-95q-8 -105 -67.5 -162.5t-187.5 -57.5q-60 0 -146 24l-10 141q79 -25 146 -25q63 0 91.5 15.5t34.5 64.5h-16q-154 0 -248.5 69.5t-94.5 212.5q0 129 95.5 205t247.5 76h158zM195 282q0 -67 46 -104.5t116 -37.5h59v283h-59
q-65 0 -113.5 -39.5t-48.5 -101.5z" />
    <glyph glyph-name="uni0649.fina" unicode="&#x649;" horiz-adv-x="1081" arabic-form="final" 
d="M371 -125q-89 0 -148.5 19t-105.5 63q-67 63 -67 207v219h140v-202q0 -93 42 -128q45 -38 149 -38h146v282q0 144 86 213q68 53 191 53h189v-423h107v-140h-247v423h-64q-53 0 -85 -25q-17 -13 -27 -39.5t-10 -52.5v-431h-296z" />
    <glyph glyph-name="uni064A.fina" unicode="&#x64a;" horiz-adv-x="1012" arabic-form="final" 
d="M784 0v423h-64q-53 0 -85 -25q-17 -13 -27 -39.5t-10 -52.5v-431h-290q-102 0 -159.5 14t-126.5 53l56 123q88 -50 185 -50h195v282q0 144 86 213q68 53 191 53h189v-423h107v-140h-247zM287 93q-35 0 -58.5 20t-23.5 55q0 33 23.5 53.5t58.5 20.5q36 0 59 -20.5
t23 -53.5q0 -35 -23.5 -55t-58.5 -20zM287 305q-35 0 -58.5 20t-23.5 55q0 33 23.5 53.5t58.5 20.5q36 0 59 -20.5t23 -53.5q0 -35 -23.5 -55t-58.5 -20z" />
    <glyph glyph-name="uni064A.init" unicode="&#x64a;" horiz-adv-x="426" arabic-form="initial" 
d="M111 -213q-33 0 -55.5 19t-22.5 52q0 32 22.5 52t55.5 20t55.5 -20t22.5 -52q0 -33 -22.5 -52t-55.5 -19zM328 -213q-33 0 -55.5 19t-22.5 52q0 32 22.5 52t55.5 20q34 0 56 -20t22 -52q0 -33 -22.5 -52t-55.5 -19zM0 0v140h209v423h140v-563h-349z" />
    <glyph glyph-name="uni064A.medi" unicode="&#x64a;" horiz-adv-x="513" arabic-form="medial" 
d="M0 0v140h209v423h140v-423h184v-140h-533zM380 -213q-33 0 -55.5 19t-22.5 52q0 32 22.5 52t55.5 20q34 0 56 -20t22 -52q0 -33 -22.5 -52t-55.5 -19zM163 -213q-33 0 -55.5 19t-22.5 52q0 32 22.5 52t55.5 20t55.5 -20t22.5 -52q0 -33 -22.5 -52t-55.5 -19z" />
    <glyph glyph-name=".notdef" horiz-adv-x="500" 
 />
    <glyph glyph-name=".null" horiz-adv-x="500" 
 />
    <glyph glyph-name="nonmarkingreturn" horiz-adv-x="333" 
 />
    <glyph glyph-name="space" unicode=" " horiz-adv-x="300" 
 />
    <glyph glyph-name="space" unicode="&#xa0;" horiz-adv-x="300" 
 />
    <glyph glyph-name="exclam" unicode="!" horiz-adv-x="349" 
d="M174 -11q-37 0 -65 22.5t-28 57.5t28 58.5t65 23.5q36 0 63.5 -23.5t27.5 -58.5t-27.5 -57.5t-63.5 -22.5zM103 237v574h140v-574h-140z" />
    <glyph glyph-name="quotedbl" unicode="&#x22;" horiz-adv-x="483" 
d="M74 491l-27 320h150l-26 -320h-97zM313 491l-27 320h149l-26 -320h-96z" />
    <glyph glyph-name="numbersign" unicode="#" horiz-adv-x="826" 
d="M89 607h157l28 204h107l-28 -204h174l28 204h106l-28 -204h163l-19 -107h-158l-25 -183h162l-19 -107h-157l-28 -210h-107l28 210h-174l-28 -210h-106l28 210h-163l19 107h158l25 183h-162zM339 500l-25 -183h174l25 183h-174z" />
    <glyph glyph-name="dollar" unicode="$" horiz-adv-x="720" 
d="M302 -118v108q-159 10 -257 70l57 127q43 -27 109.5 -45t128.5 -18q78 0 125.5 26.5t47.5 80.5q0 48 -38 74t-116 45l-67 17q-109 27 -166 89t-57 153q0 86 63 142.5t170 70.5v107h117v-106q135 -14 228 -70l-57 -127q-44 28 -106.5 45.5t-121.5 17.5q-60 0 -102 -21
t-42 -62q0 -39 30 -63t99 -42l68 -17q113 -28 181.5 -90t68.5 -164q0 -98 -67 -159.5t-179 -76.5v-112h-117z" />
    <glyph glyph-name="percent" unicode="%" horiz-adv-x="1077" 
d="M241 346q-93 0 -142 64t-49 176t49 176t142 64q94 0 143 -64t49 -176t-49 -176t-143 -64zM241 460q77 0 77 126q0 127 -77 127t-77 -127q0 -126 77 -126zM184 1h143l567 810h-143zM835 -13q-93 0 -142 64t-49 176t49 176t142 64q94 0 143 -64t49 -176t-49 -176t-143 -64z
M835 101q77 0 77 126q0 127 -77 127t-77 -127q0 -126 77 -126z" />
    <glyph glyph-name="ampersand" unicode="&#x26;" horiz-adv-x="879" 
d="M333 -12q-138 0 -220 66.5t-82 179.5q0 169 207 241q-84 97 -84 176q0 78 66.5 126.5t173.5 48.5q115 0 178.5 -52.5t63.5 -140.5q0 -60 -42 -117.5t-128 -92.5l136 -147q48 78 65 171h146q-25 -147 -119 -269l165 -178h-177l-80 84q-120 -96 -269 -96zM337 118
q98 0 177 60l-191 204q-78 -23 -111.5 -57t-33.5 -82q0 -57 45 -91t114 -34zM300 643q0 -21 13.5 -44.5t25 -37t42.5 -46.5q117 39 117 114q0 37 -29 58t-70 21q-42 0 -70.5 -16.5t-28.5 -48.5z" />
    <glyph glyph-name="quotesingle" unicode="'" horiz-adv-x="244" 
d="M74 491l-27 320h150l-26 -320h-97z" />
    <glyph glyph-name="parenleft" unicode="(" horiz-adv-x="326" 
d="M45 297q0 145 45 284.5t105 229.5h138q-66 -108 -107 -242t-41 -272q0 -137 41.5 -273.5t106.5 -243.5h-138q-60 89 -105 230.5t-45 286.5z" />
    <glyph glyph-name="parenright" unicode=")" horiz-adv-x="325" 
d="M280 297q0 -145 -44.5 -286.5t-103.5 -230.5h-139q66 108 107.5 244t41.5 273t-41.5 271.5t-107.5 242.5h139q59 -90 103.5 -229.5t44.5 -284.5z" />
    <glyph glyph-name="asterisk" unicode="*" horiz-adv-x="478" 
d="M280 811v-140l139 48l29 -80l-139 -47l85 -117l-68 -51l-88 119l-83 -119l-71 49l84 118l-138 48l28 80l137 -48v140h85z" />
    <glyph glyph-name="plus" unicode="+" horiz-adv-x="675" 
d="M267 0v220h-221v130h221v213h141v-213h220v-130h-220v-220h-141z" />
    <glyph glyph-name="comma" unicode="," horiz-adv-x="301" 
d="M17 -166l95 303h148l-130 -303h-113z" />
    <glyph glyph-name="hyphen" unicode="-" horiz-adv-x="408" 
d="M46 220v130h316v-130h-316z" />
    <glyph glyph-name="period" unicode="." horiz-adv-x="288" 
d="M144 -11q-37 0 -64.5 22t-27.5 57q0 36 27.5 59t64.5 23t64.5 -23t27.5 -59q0 -35 -27.5 -57t-64.5 -22z" />
    <glyph glyph-name="slash" unicode="/" horiz-adv-x="617" 
d="M-30 -150l544 961h133l-541 -961h-136z" />
    <glyph glyph-name="zero" unicode="0" horiz-adv-x="785" 
d="M392 125q93 0 142.5 71.5t49.5 209.5q0 139 -49.5 211.5t-142.5 72.5t-142 -72.5t-49 -211.5t49 -210t142 -71zM392 -12q-163 0 -250 113t-87 305t87 306t250 114q164 0 251 -114t87 -306t-87 -305t-251 -113z" />
    <glyph glyph-name="one" unicode="1" horiz-adv-x="436" 
d="M196 0v661l-186 -43v127l326 74v-819h-140z" />
    <glyph glyph-name="two" unicode="2" horiz-adv-x="697" 
d="M310 689q-103 0 -195 -73l-65 123q116 87 276 87q127 0 210 -60.5t83 -173.5q0 -114 -88 -218t-281 -244h382v-130h-592v126q216 158 286 221q145 129 145 219q0 60 -46.5 91.5t-114.5 31.5z" />
    <glyph glyph-name="three" unicode="3" horiz-adv-x="702" 
d="M312 -12q-76 0 -152 23t-130 63l64 124q90 -73 203 -73q83 0 138 30t55 87q0 63 -53 86.5t-155 23.5h-23v132h21q101 0 145.5 21.5t44.5 75.5q0 51 -47 79.5t-121 28.5q-108 0 -200 -73l-64 124q54 40 128 63t149 23q134 0 217.5 -58.5t83.5 -161.5q0 -65 -33.5 -115
t-83.5 -68q63 -19 100.5 -68.5t37.5 -128.5q0 -114 -90 -176t-235 -62z" />
    <glyph glyph-name="four" unicode="4" horiz-adv-x="776" 
d="M453 0v195h-423v129l387 487h176v-485h133v-131h-133v-195h-140zM176 326h277v350z" />
    <glyph glyph-name="five" unicode="5" horiz-adv-x="735" 
d="M345 -12q-166 0 -299 86l65 125q43 -34 102 -53.5t117 -19.5q82 0 138 34t56 105q0 72 -51.5 106.5t-137.5 34.5q-111 0 -239 -47l56 452h476v-130h-364l-19 -160q61 14 121 14q61 0 113.5 -14t96.5 -44.5t69 -85t25 -128.5q0 -128 -94 -201.5t-231 -73.5z" />
    <glyph glyph-name="six" unicode="6" horiz-adv-x="714" 
d="M357 -12q-127 0 -219.5 84.5t-92.5 212.5q0 75 26.5 140t81.5 138l186 248h180l-183 -230q23 4 51 4q121 0 201.5 -89.5t80.5 -210.5q0 -126 -92 -211.5t-220 -85.5zM357 125q74 0 120.5 47.5t46.5 117.5q0 69 -46.5 116.5t-120.5 47.5q-73 0 -119.5 -47.5t-46.5 -116.5
q0 -70 46 -117.5t120 -47.5z" />
    <glyph glyph-name="seven" unicode="7" horiz-adv-x="671" 
d="M63 0l412 681h-445v130h601v-130l-400 -681h-168z" />
    <glyph glyph-name="eight" unicode="8" horiz-adv-x="767" 
d="M383 826q122 0 208 -57.5t86 -161.5q0 -60 -30 -109.5t-72 -66.5q51 -24 89 -76.5t38 -128.5q0 -60 -28 -107.5t-74.5 -75t-101.5 -41.5t-115 -14t-115 14t-101 41.5t-74 75t-28 107.5q0 76 37.5 128.5t89.5 76.5q-42 17 -72 66.5t-30 109.5q0 104 85.5 161.5t207.5 57.5
zM383 125q77 0 124.5 32t47.5 88q0 58 -47 90.5t-125 32.5t-124.5 -32.5t-46.5 -90.5q0 -56 47.5 -88t123.5 -32zM383 487q70 0 109.5 29t39.5 73q0 47 -41.5 73.5t-107.5 26.5q-65 0 -107 -26.5t-42 -73.5q0 -44 40 -73t109 -29z" />
    <glyph glyph-name="nine" unicode="9" horiz-adv-x="714" 
d="M357 826q127 0 219.5 -84.5t92.5 -212.5q0 -75 -26.5 -140t-81.5 -138l-186 -251h-180l183 233q-23 -4 -51 -4q-121 0 -201.5 89.5t-80.5 210.5q0 126 92 211.5t220 85.5zM357 689q-74 0 -120.5 -47.5t-46.5 -117.5q0 -69 46.5 -116.5t120.5 -47.5q73 0 119.5 47.5
t46.5 116.5q0 70 -46 117.5t-120 47.5z" />
    <glyph glyph-name="colon" unicode=":" horiz-adv-x="297" 
d="M149 -11q-37 0 -64.5 22t-27.5 57q0 36 27.5 59t64.5 23q36 0 63.5 -23t27.5 -59q0 -35 -27.5 -57t-63.5 -22zM149 380q-37 0 -64.5 22.5t-27.5 58.5q0 35 27.5 58t64.5 23q36 0 63.5 -23t27.5 -58q0 -36 -27.5 -58.5t-63.5 -22.5z" />
    <glyph glyph-name="semicolon" unicode=";" horiz-adv-x="315" 
d="M17 -166l95 303h148l-130 -303h-113zM181 380q-37 0 -64.5 22.5t-27.5 58.5q0 35 27.5 58t64.5 23q36 0 64 -23t28 -58q0 -36 -28 -58.5t-64 -22.5z" />
    <glyph glyph-name="less" unicode="&#x3c;" horiz-adv-x="677" 
d="M46 348l585 228v-133l-435 -163l435 -160v-134l-585 228v134z" />
    <glyph glyph-name="equal" unicode="=" horiz-adv-x="609" 
d="M46 349v130h517v-130h-517zM46 91v131h517v-131h-517z" />
    <glyph glyph-name="greater" unicode="&#x3e;" horiz-adv-x="677" 
d="M46 576l585 -228v-134l-585 -228v142l435 152l-435 156v140z" />
    <glyph glyph-name="question" unicode="?" horiz-adv-x="568" 
d="M229 -12q38 0 66.5 23t28.5 60t-28.5 60.5t-66.5 23.5t-66 -23.5t-28 -60.5t28 -60t66 -23zM226 689q-87 0 -181 -41l18 145q83 33 177 33q123 0 204.5 -68.5t81.5 -180.5q0 -100 -62 -163t-160 -86v-91h-140v197h12q90 0 146.5 31t56.5 99q0 56 -47 90.5t-106 34.5z" />
    <glyph glyph-name="at" unicode="@" horiz-adv-x="939" 
d="M686 177q-46 0 -77 27t-38 78q-55 -102 -173 -102q-72 0 -120 51.5t-48 152.5q0 105 64 184.5t169 79.5q46 0 80.5 -23.5t50.5 -63.5q2 12 4.5 36t3.5 32h81l-33 -248q-3 -25 -3 -46q0 -76 51 -76q46 0 77.5 54.5t31.5 147.5q0 138 -86.5 213t-230.5 75
q-157 0 -255.5 -100t-98.5 -252q0 -142 83.5 -232.5t226.5 -90.5q123 0 220 49l32 -80q-55 -26 -125 -40.5t-127 -14.5q-178 0 -289.5 116.5t-111.5 295.5q0 182 128.5 305t318.5 123q176 0 289 -92.5t113 -270.5q0 -132 -62.5 -210t-145.5 -78zM464 563q-62 0 -99 -53
t-37 -128q0 -118 96 -118q64 0 101.5 54t37.5 133q0 53 -26 82.5t-73 29.5z" />
    <glyph glyph-name="A" unicode="A" horiz-adv-x="795" 
d="M485 811l300 -811h-151l-69 191h-336l-68 -191h-151l300 811h175zM397 663l-120 -337h240z" />
    <glyph glyph-name="B" unicode="B" horiz-adv-x="764" 
d="M672 607q0 -54 -29 -100.5t-84 -70.5q77 -23 116 -77.5t39 -120.5q0 -81 -44 -136.5t-108.5 -78.5t-142.5 -23h-319v811h279q145 0 219 -56.5t74 -147.5zM565 241q0 61 -42.5 84.5t-127.5 23.5h-151v-215h155q85 0 125.5 26t40.5 81zM523 582q0 95 -153 95h-126v-193h126
q153 0 153 98z" />
    <glyph glyph-name="C" unicode="C" horiz-adv-x="774" 
d="M471 689q-118 0 -195.5 -72.5t-77.5 -209.5t78 -210t195 -73q111 0 207 61l56 -128q-113 -69 -269 -69q-190 0 -305 118t-115 301t115 301t305 118q154 0 269 -70l-56 -127q-97 60 -207 60z" />
    <glyph glyph-name="D" unicode="D" horiz-adv-x="830" 
d="M244 134h67q156 0 239 65t83 211q0 136 -84 201.5t-233 65.5h-72v-543zM100 0v811h214q137 0 242 -44t167 -136t62 -221q0 -193 -128 -301.5t-337 -108.5h-220z" />
    <glyph glyph-name="E" unicode="E" horiz-adv-x="685" 
d="M100 0v811h518v-134h-374v-193h339v-136h-339v-214h376v-134h-520z" />
    <glyph glyph-name="F" unicode="F" horiz-adv-x="647" 
d="M244 0h-144v811h517v-134h-373v-193h337v-136h-337v-348z" />
    <glyph glyph-name="G" unicode="G" horiz-adv-x="881" 
d="M465 -12q-190 0 -305 118t-115 301t115 301t305 118q181 0 296 -70l-55 -127q-97 60 -235 60q-118 0 -195.5 -72.5t-77.5 -209.5t78 -210t195 -73q88 0 166 35v146h-181v136h325v-379q-56 -34 -145 -54t-171 -20z" />
    <glyph glyph-name="H" unicode="H" horiz-adv-x="878" 
d="M244 0h-144v811h144v-327h389v327h145v-811h-145v348h-389v-348z" />
    <glyph glyph-name="I" unicode="I" horiz-adv-x="344" 
d="M244 0h-144v811h144v-811z" />
    <glyph glyph-name="J" unicode="J" horiz-adv-x="518" 
d="M0 34l53 123q58 -33 124 -33q97 0 97 117v570h144v-576q0 -247 -214 -247q-124 0 -204 46z" />
    <glyph glyph-name="K" unicode="K" horiz-adv-x="766" 
d="M244 0h-144v811h144v-405l316 405h176l-326 -402l346 -409h-181l-331 404v-404z" />
    <glyph glyph-name="L" unicode="L" horiz-adv-x="638" 
d="M245 811v-677h373v-134h-518v811h145z" />
    <glyph glyph-name="M" unicode="M" horiz-adv-x="1042" 
d="M611 0h-179l-188 692v-692h-144v811h244l177 -683l179 683h242v-811h-144v692z" />
    <glyph glyph-name="N" unicode="N" horiz-adv-x="859" 
d="M538 0l-296 676v-676h-142v811h222l296 -676v676h141v-811h-221z" />
    <glyph glyph-name="O" unicode="O" horiz-adv-x="932" 
d="M887 407q0 -179 -118.5 -299t-302.5 -120t-302.5 120t-118.5 299t118.5 299t302.5 120t302.5 -120t118.5 -299zM735 407q0 126 -76 204t-193 78q-116 0 -192 -78t-76 -204t76 -204t192 -78q117 0 193 78t76 204z" />
    <glyph glyph-name="P" unicode="P" horiz-adv-x="721" 
d="M404 303h-160v-303h-144v811h304q146 0 221.5 -72t75.5 -176q0 -109 -77 -184.5t-220 -75.5zM373 677h-129v-240h129q85 0 130.5 28t45.5 95q0 117 -176 117z" />
    <glyph glyph-name="Q" unicode="Q" horiz-adv-x="932" 
d="M887 407q0 -196 -138 -317l127 -134l-70 -70l-139 148q-90 -46 -201 -46q-184 0 -302.5 120t-118.5 299t118.5 299t302.5 120t302.5 -120t118.5 -299zM735 407q0 126 -76 204t-193 78q-116 0 -192 -78t-76 -204t76 -204.5t192 -78.5q53 0 99 17l-85 91l71 68l100 -106
q84 81 84 213z" />
    <glyph glyph-name="R" unicode="R" horiz-adv-x="782" 
d="M585 0l-198 320h-143v-320h-144v811h304q148 0 222 -71t74 -174q0 -76 -40 -137t-125 -89l212 -340h-162zM372 677h-128v-232h128q87 0 131.5 26t44.5 92q0 60 -43 87t-133 27z" />
    <glyph glyph-name="S" unicode="S" horiz-adv-x="720" 
d="M102 187q43 -27 109.5 -45t128.5 -18q78 0 125.5 26.5t47.5 80.5q0 47 -37 70.5t-117 43.5l-67 17q-109 27 -166 89t-57 153q0 99 81 160.5t213 61.5q75 0 153 -20.5t131 -52.5l-57 -127q-44 28 -106.5 45.5t-121.5 17.5q-61 0 -102.5 -23t-41.5 -65q0 -39 30.5 -63.5
t98.5 -41.5l68 -17q250 -62 250 -249q0 -114 -89.5 -178t-231.5 -64q-83 0 -164.5 20t-134.5 52z" />
    <glyph glyph-name="T" unicode="T" horiz-adv-x="725" 
d="M290 0v677h-270v134h685v-134h-270v-677h-145z" />
    <glyph glyph-name="U" unicode="U" horiz-adv-x="876" 
d="M438 -12q-92 0 -160.5 25t-109 71t-59.5 104t-19 130v493h144v-460q0 -116 47 -171.5t157 -55.5t157 56t47 171v460h144v-493q0 -72 -19 -130t-59.5 -104t-109 -71t-160.5 -25z" />
    <glyph glyph-name="V" unicode="V" horiz-adv-x="781" 
d="M296 0l-276 811h159l211 -663l212 663h159l-276 -811h-189z" />
    <glyph glyph-name="W" unicode="W" horiz-adv-x="1072" 
d="M636 811l114 -642l132 642h160l-187 -811h-201l-118 674l-118 -674h-201l-187 811h159l132 -642l114 642h201z" />
    <glyph glyph-name="X" unicode="X" horiz-adv-x="803" 
d="M761 811l-279 -389l301 -422h-167l-218 305l-218 -305h-160l298 417l-281 394h168l197 -277l198 277h161z" />
    <glyph glyph-name="Y" unicode="Y" horiz-adv-x="750" 
d="M375 446l193 365h167l-287 -507v-304h-145v304l-288 507h167z" />
    <glyph glyph-name="Z" unicode="Z" horiz-adv-x="754" 
d="M90 677v134h588v-133l-449 -544h460v-134h-634v133l450 544h-415z" />
    <glyph glyph-name="bracketleft" unicode="[" horiz-adv-x="336" 
d="M81 -220v1031h240v-101h-100v-829h100v-101h-240z" />
    <glyph glyph-name="backslash" unicode="\" horiz-adv-x="617" 
d="M103 811l544 -961h-136l-541 961h133z" />
    <glyph glyph-name="bracketright" unicode="]" horiz-adv-x="336" 
d="M255 811v-1031h-240v101h100v829h-100v101h240z" />
    <glyph glyph-name="asciicircum" unicode="^" horiz-adv-x="556" 
d="M343 811l207 -402h-123l-149 304l-150 -304h-122l206 402h131z" />
    <glyph glyph-name="underscore" unicode="_" horiz-adv-x="606" 
d="M46 -131v131h515v-131h-515z" />
    <glyph glyph-name="grave" unicode="`" horiz-adv-x="287" 
d="M158 671l-143 140h140l117 -140h-114z" />
    <glyph glyph-name="a" unicode="a" horiz-adv-x="632" 
d="M422 130v114q-45 12 -95 12q-131 0 -131 -72q0 -70 123 -70q55 0 103 16zM317 -12q-75 0 -132.5 17t-96 60.5t-38.5 109.5q0 92 72 141.5t190 49.5q54 0 110 -8v8q0 45 -33.5 63.5t-96.5 18.5q-42 0 -99 -14.5t-99 -35.5l18 143q86 42 199 42q251 0 251 -223v-328
q-112 -44 -245 -44z" />
    <glyph glyph-name="b" unicode="b" horiz-adv-x="668" 
d="M221 434v-298q49 -11 87 -11q85 0 133 39.5t48 119.5t-48 121t-133 41q-43 0 -87 -12zM221 811v-236q61 8 97 8q142 0 229.5 -85.5t87.5 -213.5q0 -129 -88 -212.5t-240 -83.5q-122 0 -226 29v794h140z" />
    <glyph glyph-name="c" unicode="c" horiz-adv-x="558" 
d="M33 285q0 128 86 213t216 85q105 0 195 -46l-56 -126q-62 35 -133 35q-73 0 -117 -44.5t-44 -116.5t44 -116t117 -44q74 0 133 35l56 -127q-88 -45 -195 -45q-130 0 -216 84.5t-86 212.5z" />
    <glyph glyph-name="d" unicode="d" horiz-adv-x="669" 
d="M180 284q0 -80 48 -119.5t133 -39.5q38 0 87 11v298q-45 12 -87 12q-85 0 -133 -41t-48 -121zM448 575v236h140v-794q-105 -29 -226 -29q-152 0 -240.5 83.5t-88.5 212.5q0 128 88 213.5t230 85.5q36 0 97 -8z" />
    <glyph glyph-name="e" unicode="e" horiz-adv-x="651" 
d="M346 125h15q45 0 94 14.5t71 35.5l62 -125q-113 -62 -246 -62t-221 85t-88 212q0 129 86.5 213.5t212.5 84.5q133 0 214.5 -92.5t76.5 -251.5h-446q13 -56 57.5 -85t111.5 -29zM330 459q-55 0 -95 -29t-53 -75h294q-11 51 -49.5 77.5t-96.5 26.5z" />
    <glyph glyph-name="f" unicode="f" horiz-adv-x="509" 
d="M25 433v130h106v54q0 101 53.5 147.5t170.5 46.5h134v-130h-133q-51 0 -68 -20.5t-17 -69.5v-28h214v-130h-214v-433h-140v433h-106z" />
    <glyph glyph-name="g" unicode="g" horiz-adv-x="669" 
d="M448 150v284q-53 12 -87 12q-85 0 -133 -38t-48 -115q0 -76 48 -115t133 -39q40 0 87 11zM33 293q0 127 88.5 208.5t240.5 81.5q123 0 226 -30v-510q0 -150 -63.5 -209t-229.5 -59q-82 0 -162 25l-30 146q41 -18 98.5 -30t99.5 -12q68 0 107.5 23t39.5 71v12
q-51 -8 -97 -8q-142 0 -230 82.5t-88 208.5z" />
    <glyph glyph-name="h" unicode="h" horiz-adv-x="664" 
d="M221 811v-240q72 12 113 12q58 0 102 -10.5t81.5 -35.5t57 -71.5t19.5 -113.5v-352h-140v312q0 75 -30.5 104.5t-95.5 29.5q-44 0 -107 -11v-435h-140v811h140z" />
    <glyph glyph-name="i" unicode="i" horiz-adv-x="301" 
d="M81 0v563h140v-563h-140zM151 651q-35 0 -58.5 20t-23.5 55q0 33 23 53.5t59 20.5q35 0 58 -20.5t23 -53.5q0 -34 -22.5 -54.5t-58.5 -20.5z" />
    <glyph glyph-name="j" unicode="j" horiz-adv-x="322" 
d="M26 -225q-27 0 -51 6l-16 130q33 -8 62 -8q45 0 62 28.5t17 99.5v532h140v-515q0 -152 -45 -212.5t-169 -60.5zM170 651q-35 0 -58.5 20t-23.5 55q0 33 23 53.5t59 20.5q35 0 58 -20.5t23 -53.5q0 -34 -22.5 -54.5t-58.5 -20.5z" />
    <glyph glyph-name="k" unicode="k" horiz-adv-x="609" 
d="M221 0h-140v811h140v-525l209 277h166l-211 -279l224 -284h-168l-220 278v-278z" />
    <glyph glyph-name="l" unicode="l" horiz-adv-x="302" 
d="M221 0h-140v811h140v-811z" />
    <glyph glyph-name="m" unicode="m" horiz-adv-x="979" 
d="M769 0v313q0 75 -25.5 104t-85.5 29q-55 0 -106 -24q15 -28 15 -105v-317h-140v313q0 75 -26 104t-88 29q-29 0 -92 -12v-434h-140v552q172 31 234 31q108 0 159 -41q99 41 189 41q116 0 181 -51t65 -180v-352h-140z" />
    <glyph glyph-name="n" unicode="n" horiz-adv-x="664" 
d="M81 0v554q158 29 253 29q58 0 102 -10.5t81.5 -35.5t57 -71.5t19.5 -113.5v-352h-140v312q0 75 -30.5 104.5t-95.5 29.5q-44 0 -107 -11v-435h-140z" />
    <glyph glyph-name="o" unicode="o" horiz-adv-x="676" 
d="M338 -12q-130 0 -217.5 85.5t-87.5 211.5t88 212t217 86t217 -86t88 -212t-87.5 -211.5t-217.5 -85.5zM338 125q72 0 115 45.5t43 114.5q0 68 -43.5 114.5t-114.5 46.5t-114.5 -46.5t-43.5 -114.5q0 -69 43 -114.5t115 -45.5z" />
    <glyph glyph-name="p" unicode="p" horiz-adv-x="669" 
d="M221 434v-298q47 -11 88 -11q85 0 133 41t48 120q0 80 -48 120t-133 40q-35 0 -88 -12zM221 -4v-216h-140v773q104 30 226 30q152 0 240.5 -83.5t88.5 -213.5q0 -128 -88 -213t-230 -85q-45 0 -97 8z" />
    <glyph glyph-name="q" unicode="q" horiz-adv-x="669" 
d="M180 286q0 -79 48 -120t133 -41q40 0 87 11v298q-53 12 -87 12q-85 0 -133 -40t-48 -120zM448 -220v216q-51 -8 -97 -8q-142 0 -230 85t-88 213q0 130 88.5 213.5t240.5 83.5q123 0 226 -30v-773h-140z" />
    <glyph glyph-name="r" unicode="r" horiz-adv-x="438" 
d="M408 572v-134h-80q-79 0 -107 -10v-428h-140v548q120 24 221 24h106z" />
    <glyph glyph-name="s" unicode="s" horiz-adv-x="599" 
d="M296 125q105 0 105 44q0 22 -20 34.5t-73 22.5l-45 8q-204 39 -204 175q0 80 63 127t172 47q144 0 239 -52l-51 -130q-82 45 -196 45q-88 0 -88 -37q0 -19 20.5 -31.5t72.5 -22.5l44 -8q115 -22 164.5 -65.5t49.5 -120.5t-66.5 -125t-190.5 -48q-149 0 -252 58l53 136
q88 -57 203 -57z" />
    <glyph glyph-name="t" unicode="t" horiz-adv-x="529" 
d="M20 433v130h106v206h140v-206h214v-130h-214v-204q0 -56 22 -77.5t78 -21.5h118v-130h-133q-120 0 -172.5 40t-52.5 139v254h-106z" />
    <glyph glyph-name="u" unicode="u" horiz-adv-x="642" 
d="M421 139v424h140v-534q-123 -41 -241 -41q-255 0 -255 231v344h140v-304q0 -76 25 -105t86 -29q53 0 105 14z" />
    <glyph glyph-name="v" unicode="v" horiz-adv-x="600" 
d="M396 0h-192l-194 563h147l143 -430l143 430h147z" />
    <glyph glyph-name="w" unicode="w" horiz-adv-x="904" 
d="M739 0h-192l-95 436l-96 -436h-188l-153 563h153l103 -430l96 430h169l97 -430l102 430h154z" />
    <glyph glyph-name="x" unicode="x" horiz-adv-x="635" 
d="M613 563l-212 -274l223 -289h-165l-141 182l-142 -182h-165l224 290l-211 273h166l128 -166l128 166h167z" />
    <glyph glyph-name="y" unicode="y" horiz-adv-x="643" 
d="M107 -200l-30 146q41 -18 98.5 -30t99.5 -12q68 0 107.5 23t39.5 71v12q-57 -12 -112 -12q-118 0 -181.5 50.5t-63.5 180.5v335h141v-295q0 -76 25.5 -105t85.5 -29q54 0 105 15v414h140v-521q0 -150 -63.5 -209t-229.5 -59q-82 0 -162 25z" />
    <glyph glyph-name="z" unicode="z" horiz-adv-x="583" 
d="M64 433v130h459v-129l-305 -304h315v-130h-493v130l311 303h-287z" />
    <glyph glyph-name="braceleft" unicode="{" horiz-adv-x="365" 
d="M291 -220q-104 0 -141 34.5t-37 134.5v170q0 29 -3 49.5t-11.5 38.5t-25.5 27.5t-43 10.5v102q50 1 66.5 33.5t16.5 93.5v168q0 100 37 134.5t141 34.5h59v-101h-32q-44 0 -54.5 -13t-10.5 -61v-176q0 -79 -24.5 -114t-71.5 -48v-2q47 -13 71.5 -49t24.5 -114v-178
q0 -48 10.5 -61t54.5 -13h32v-101h-59z" />
    <glyph glyph-name="bar" unicode="|" horiz-adv-x="301" 
d="M81 -220v1031h140v-1031h-140z" />
    <glyph glyph-name="braceright" unicode="}" horiz-adv-x="365" 
d="M73 -220h-58v101h23q46 0 59.5 14t13.5 60v178q0 78 24.5 114t71.5 49v2q-47 13 -71.5 48t-24.5 114v176q0 46 -13.5 60t-59.5 14h-23v101h58q104 0 141 -34.5t37 -134.5v-168q0 -62 17 -94t67 -33v-102q-50 -1 -67 -33t-17 -93v-170q0 -100 -37 -134.5t-141 -34.5z" />
    <glyph glyph-name="asciitilde" unicode="~" horiz-adv-x="620" 
d="M414 307q29 0 45 17.5t20 60.5h101q-2 -203 -143 -203q-48 0 -123.5 39t-106.5 39q-29 0 -45.5 -17.5t-20.5 -60.5h-100q0 98 36 150.5t106 52.5q42 0 87.5 -19.5t83 -39t60.5 -19.5z" />
    <glyph glyph-name="exclamdown" unicode="&#xa1;" horiz-adv-x="349" 
d="M172 613q37 0 65 -22.5t28 -57.5t-28 -58.5t-65 -23.5q-36 0 -63.5 23.5t-27.5 58.5t27.5 57.5t63.5 22.5zM243 365v-585h-140v585h140z" />
    <glyph glyph-name="cent" unicode="&#xa2;" horiz-adv-x="558" 
d="M310 -109v98q-121 8 -199 91t-78 205q0 121 78 204.5t199 92.5v96h47v-96q91 -4 173 -45l-56 -126q-54 31 -117 34v-320q67 4 117 35l56 -127q-80 -40 -173 -44v-98h-47zM180 285q0 -64 35 -106.5t95 -51.5v316q-60 -9 -95 -51.5t-35 -106.5z" />
    <glyph glyph-name="sterling" unicode="&#xa3;" horiz-adv-x="715" 
d="M405 826q144 0 254 -60l-56 -124q-77 47 -183 47q-44 0 -79 -7t-63 -30t-28 -59q0 -15 4 -29.5t13 -30.5t16.5 -27t22 -30.5t20.5 -28.5h226v-130h-180q-3 -47 -39.5 -92t-88.5 -79l1 -2q49 14 87 14q34 0 92.5 -17.5t93.5 -17.5q65 0 124 28l43 -127q-85 -36 -176 -36
q-42 0 -116.5 21.5t-117.5 21.5q-83 0 -166 -42l-52 125q75 37 120.5 83.5t45.5 118.5v1h-173v130h122l-11 16.5t-11.5 17.5l-10 16t-10.5 18l-8.5 17.5t-8 19.5t-5.5 19t-4 22t-1 22q0 71 47.5 120.5t114 70t141.5 20.5z" />
    <glyph glyph-name="currency" unicode="&#xa4;" horiz-adv-x="578" 
d="M289 550q86 0 141 -44l62 57l74 -74l-60 -55q38 -57 38 -134t-38 -134l60 -55l-74 -74l-62 57q-55 -44 -141 -44t-141 44l-62 -57l-74 74l60 55q-38 57 -38 134t38 134l-60 55l74 74l62 -57q55 44 141 44zM289 146q67 0 113 44.5t46 109.5q0 68 -45 111t-114 43t-114 -43
t-45 -111q0 -65 46 -109.5t113 -44.5z" />
    <glyph glyph-name="yen" unicode="&#xa5;" horiz-adv-x="750" 
d="M102 255v96h180l-267 460h150l210 -372l210 372h150l-266 -460h178v-96h-201v-70h201v-105h-201v-80h-141v80h-203v105h203v70h-203z" />
    <glyph glyph-name="brokenbar" unicode="&#xa6;" horiz-adv-x="301" 
d="M81 411v400h140v-400h-140zM81 -220v400h140v-400h-140z" />
    <glyph glyph-name="section" unicode="&#xa7;" horiz-adv-x="730" 
d="M112 645q0 84 70 132t174 48q137 0 235 -57l-50 -117q-82 55 -181 55q-51 0 -82 -15.5t-31 -43.5q0 -23 20.5 -44t69.5 -46l162 -82q93 -47 139.5 -93t46.5 -111q0 -59 -35 -104.5t-92 -74.5q56 -54 56 -126q0 -90 -71 -142t-182 -52q-133 0 -235 57l51 116
q79 -53 181 -53q52 0 86 19t34 56q0 27 -26.5 53t-88.5 58l-142 71q-88 44 -132 93t-44 115q0 51 35 95t90 73q-58 53 -58 120zM430 176q6 -4 18 -9.5t18 -9.5q79 43 79 98q0 37 -23.5 64t-83.5 57l-174 86q-80 -40 -80 -94q0 -37 22 -63t76 -54z" />
    <glyph glyph-name="dieresis" unicode="&#xa8;" horiz-adv-x="447" 
d="M89 800q33 0 54 -18.5t21 -48.5q0 -33 -23 -51q-21 -18 -52 -18t-52.5 18.5t-21.5 50.5q0 30 21 48.5t53 18.5zM358 800q32 0 53 -18.5t21 -48.5q0 -34 -22 -51q-21 -18 -52 -18t-52.5 18.5t-21.5 50.5q0 30 21 48.5t53 18.5z" />
    <glyph glyph-name="copyright" unicode="&#xa9;" horiz-adv-x="929" 
d="M45 405q0 184 121 303t299 119q176 0 297.5 -119t121.5 -303t-121.5 -301.5t-297.5 -117.5q-178 0 -299 117.5t-121 301.5zM127 405q0 -152 96.5 -249t241.5 -97q146 0 241.5 96.5t95.5 249.5q0 154 -95.5 250.5t-241.5 96.5t-242 -96.5t-96 -250.5zM235 409
q0 106 67 172t174 66q90 0 158 -43l-35 -87q-55 36 -121 36q-59 0 -98 -39t-39 -105q0 -65 39 -105t98 -40q63 0 120 35l36 -85q-65 -43 -158 -43q-107 0 -174 66t-67 172z" />
    <glyph glyph-name="ordfeminine" unicode="&#xaa;" horiz-adv-x="457" 
d="M287 526v68q-33 7 -62 7q-85 0 -85 -40q0 -44 79 -44q34 0 68 9zM217 429q-78 0 -127.5 30.5t-49.5 95.5q0 61 48 95.5t126 34.5q30 0 73 -6v8q0 28 -22 37.5t-63 9.5q-52 0 -132 -33l10 94q72 29 133 29q169 0 169 -148v-212q-92 -35 -165 -35z" />
    <glyph glyph-name="guillemotleft" unicode="&#xab;" horiz-adv-x="610" 
d="M183 31l-157 257l156 256h147l-151 -255l150 -258h-145zM439 31l-156 257l156 256h145l-150 -255l149 -258h-144z" />
    <glyph glyph-name="logicalnot" unicode="&#xac;" horiz-adv-x="712" 
d="M491 111v221h-445v130h585v-351h-140z" />
    <glyph glyph-name="registered" unicode="&#xae;" horiz-adv-x="929" 
d="M45 405q0 184 121 303t299 119q176 0 297.5 -119t121.5 -303t-121.5 -301.5t-297.5 -117.5q-178 0 -299 117.5t-121 301.5zM127 405q0 -152 96.5 -249t241.5 -97q146 0 241.5 96.5t95.5 249.5q0 154 -95.5 250.5t-241.5 96.5t-242 -96.5t-96 -250.5zM460 366h-65v-168
h-96v445h155q96 0 148.5 -30.5t52.5 -109.5q0 -89 -84 -121l105 -184h-108l-94 168h-14zM557 503q0 56 -78 56h-84v-109h85q77 0 77 53z" />
    <glyph glyph-name="macron" unicode="&#xaf;" horiz-adv-x="324" 
d="M309 694h-294v86h294v-86z" />
    <glyph glyph-name="degree" unicode="&#xb0;" horiz-adv-x="439" 
d="M30 634q0 80 55 136t134 56t134.5 -56t55.5 -136q0 -79 -55.5 -134t-134.5 -55t-134 55t-55 134zM116 634q0 -47 29 -78.5t74 -31.5q46 0 75.5 31.5t29.5 78.5q0 48 -29.5 80t-75.5 32q-45 0 -74 -32t-29 -80z" />
    <glyph glyph-name="plusminus" unicode="&#xb1;" horiz-adv-x="676" 
d="M268 138v162h-222v105h222v158h140v-158h221v-105h-221v-162h-140zM46 0v106h582v-106h-582z" />
    <glyph glyph-name="twosuperior" unicode="&#xb2;" horiz-adv-x="336" 
d="M158 755q-43 0 -78 -29l-26 49q45 35 110 35q51 0 84 -24t33 -69q0 -46 -35 -87.5t-112 -97.5h152v-52h-236v50l67.5 50t50.5 42t42.5 46.5t11.5 37.5q0 24 -18.5 36.5t-45.5 12.5z" />
    <glyph glyph-name="threesuperior" unicode="&#xb3;" horiz-adv-x="343" 
d="M163 474q-67 0 -113 35l26 49q35 -29 81 -29q33 0 55 12t22 35q0 25 -21 34.5t-62 9.5h-9v53h8q40 0 58 8.5t18 30.5q0 20 -18.5 31.5t-48.5 11.5q-43 0 -80 -29l-26 49q48 35 111 35q54 0 87 -23.5t33 -64.5q0 -26 -13 -46t-33 -28q55 -16 55 -78q0 -46 -36 -71t-94 -25
z" />
    <glyph glyph-name="acute" unicode="&#xb4;" horiz-adv-x="287" 
d="M272 811l-143 -140h-114l118 140h139z" />
    <glyph glyph-name="mu" unicode="&#xb5;" horiz-adv-x="675" 
d="M72 -215q11 68 11 154v624h140v-260q0 -179 114 -179q57 0 87 46.5t30 132.5v260h140v-563h-125v99q-45 -105 -154 -110q-77 -1 -107 72v-109q0 -94 -10 -167h-126z" />
    <glyph glyph-name="paragraph" unicode="&#xb6;" horiz-adv-x="646" 
d="M33 596q0 100 74 157.5t200 57.5h258v-894h-95v804h-122v-804h-95v467q-88 7 -154 60.5t-66 151.5z" />
    <glyph glyph-name="periodcentered" unicode="&#xb7;" horiz-adv-x="315" 
d="M158 201q-35 0 -59.5 24.5t-24.5 58.5t24.5 58t59.5 24q34 0 58 -24t24 -58t-24 -58.5t-58 -24.5z" />
    <glyph glyph-name="cedilla" unicode="&#xb8;" horiz-adv-x="252" 
d="M24 -210l-4 57q40 -16 81 -16q64 0 64 35q0 36 -68 36q-32 0 -65 -7l63 106h55l-34 -57q26 2 49 -3t42.5 -23t19.5 -48q0 -47 -34.5 -70t-87.5 -23q-43 0 -81 13z" />
    <glyph glyph-name="onesuperior" unicode="&#xb9;" horiz-adv-x="230" 
d="M124 480v264l-74 -17v51l130 29v-327h-56z" />
    <glyph glyph-name="ordmasculine" unicode="&#xba;" horiz-adv-x="467" 
d="M233 428q-85 0 -143.5 57.5t-58.5 140.5q0 82 58.5 140t143.5 58q86 0 144.5 -58t58.5 -140q0 -83 -58.5 -140.5t-144.5 -57.5zM233 521q48 0 76 29t28 76q0 44 -28.5 74.5t-75.5 30.5t-75 -30.5t-28 -74.5q0 -47 28 -76t75 -29z" />
    <glyph glyph-name="guillemotright" unicode="&#xbb;" horiz-adv-x="610" 
d="M584 288l-157 -257h-145l150 258l-151 255h147zM327 288l-156 -257h-144l149 258l-150 255h145z" />
    <glyph glyph-name="onequarter" unicode="&#xbc;" horiz-adv-x="987" 
d="M835 151h52v-71h-52v-80h-90v80h-215v39l218 342h87v-310zM745 151v180h-2l-103 -180h105zM643 780l68 -34l-404 -777l-69 35zM164 678h-64v76h160v-452h-96v376z" />
    <glyph glyph-name="onehalf" unicode="&#xbd;" horiz-adv-x="987" 
d="M597 780l68 -34l-404 -777l-69 35zM164 678h-64v76h160v-452h-96v376zM727 77h160v-77h-330l125 145q1 1 16 18.5l20.5 24t19 24t20 28l15 25t12 26.5t3.5 23q0 33 -16.5 53.5t-46.5 20.5t-46 -24.5t-14 -53.5h-101q5 68 46.5 111t114.5 43q67 0 113 -42t46 -103
q0 -46 -22 -83.5t-63 -81.5z" />
    <glyph glyph-name="threequarters" unicode="&#xbe;" horiz-adv-x="987" 
d="M835 151h52v-71h-52v-80h-90v80h-215v39l218 342h87v-310zM745 151v180h-2l-103 -180h105zM695 780l68 -34l-404 -777l-69 35zM209 644h-91q6 60 45.5 95t104.5 35q63 0 102 -34.5t39 -92.5q0 -65 -47 -95q31 -13 47 -44t16 -66q0 -66 -45.5 -105t-117.5 -39
q-67 0 -112.5 41t-49.5 102h96q2 -28 21 -47t49 -19t48 22t18 50q0 29 -19 51.5t-50 20.5l-18 -1v63h11q30 0 46 17t16 46q0 24 -15 40.5t-41 16.5q-24 0 -38 -17t-15 -40z" />
    <glyph glyph-name="questiondown" unicode="&#xbf;" horiz-adv-x="568" 
d="M342 613q38 0 66 -23t28 -60t-28 -60.5t-66 -23.5t-66.5 23.5t-28.5 60.5t28.5 60t66.5 23zM345 -88q87 0 181 41l-18 -145q-82 -33 -177 -33q-123 0 -204.5 68.5t-81.5 180.5q0 100 62 163t160 86v91h140v-197h-12q-90 0 -146.5 -31t-56.5 -99q0 -56 47 -90.5t106 -34.5
z" />
    <glyph glyph-name="Agrave" unicode="&#xc0;" horiz-adv-x="795" 
d="M485 811l300 -811h-151l-69 191h-336l-68 -191h-151l300 811h175zM397 663l-120 -337h240zM339 845l-143 140h140l117 -140h-114z" />
    <glyph glyph-name="Aacute" unicode="&#xc1;" horiz-adv-x="795" 
d="M485 811l300 -811h-151l-69 191h-336l-68 -191h-151l300 811h175zM397 663l-120 -337h240zM582 985l-143 -140h-114l118 140h139z" />
    <glyph glyph-name="Acircumflex" unicode="&#xc2;" horiz-adv-x="795" 
d="M485 811l300 -811h-151l-69 191h-336l-68 -191h-151l300 811h175zM397 663l-120 -337h240zM471 985l133 -140h-117l-88 84l-91 -84h-117l135 140h145z" />
    <glyph glyph-name="Atilde" unicode="&#xc3;" horiz-adv-x="795" 
d="M485 811l300 -811h-151l-69 191h-336l-68 -191h-151l300 811h175zM397 663l-120 -337h240zM466 926q24 0 35 13t17 41h68q-5 -63 -35.5 -96.5t-76.5 -33.5q-35 0 -81 27t-67 27q-24 0 -34.5 -13t-15.5 -41h-69q4 59 35.5 94.5t77.5 35.5q36 0 80.5 -27t65.5 -27z" />
    <glyph glyph-name="Adieresis" unicode="&#xc4;" horiz-adv-x="795" 
d="M485 811l300 -811h-151l-69 191h-336l-68 -191h-151l300 811h175zM397 663l-120 -337h240zM262 983q33 0 54 -18.5t21 -48.5q0 -33 -23 -51q-21 -18 -52 -18t-52.5 18.5t-21.5 50.5q0 30 21 48.5t53 18.5zM531 983q32 0 53 -18.5t21 -48.5q0 -34 -22 -51q-21 -18 -52 -18
t-52.5 18.5t-21.5 50.5q0 30 21 48.5t53 18.5z" />
    <glyph glyph-name="Aring" unicode="&#xc5;" horiz-adv-x="795" 
d="M485 811l300 -811h-151l-69 191h-336l-68 -191h-151l300 811h175zM397 663l-120 -337h240zM397 1046q44 0 74.5 -28.5t30.5 -71.5q0 -44 -30 -72.5t-75 -28.5t-76 28.5t-31 72.5q0 43 31 71.5t76 28.5zM397 1002q-24 0 -41 -16t-17 -40q0 -25 17 -40.5t41 -15.5
q23 0 39.5 15.5t16.5 40.5q0 24 -16.5 40t-39.5 16z" />
    <glyph glyph-name="AE" unicode="&#xc6;" horiz-adv-x="1093" 
d="M508 811h518v-134h-374v-193h339v-136h-339v-214h376v-134h-520v191h-230l-117 -191h-171zM508 563l-146 -237h146v237z" />
    <glyph glyph-name="Ccedilla" unicode="&#xc7;" horiz-adv-x="774" 
d="M310 -210l-4 57q40 -16 81 -16q64 0 64 35q0 36 -68 36q-32 0 -65 -7l59 101q-153 26 -242.5 138.5t-89.5 272.5q0 183 115 301t305 118q154 0 269 -70l-56 -127q-97 60 -207 60q-118 0 -195.5 -72.5t-77.5 -209.5t78 -210t195 -73q111 0 207 61l56 -128
q-113 -69 -269 -69q-14 0 -36 2l-27 -46q26 2 49 -3t42.5 -23t19.5 -48q0 -47 -34.5 -70t-87.5 -23q-43 0 -81 13z" />
    <glyph glyph-name="Egrave" unicode="&#xc8;" horiz-adv-x="685" 
d="M100 0v811h518v-134h-374v-193h339v-136h-339v-214h376v-134h-520zM311 845l-143 140h140l117 -140h-114z" />
    <glyph glyph-name="Eacute" unicode="&#xc9;" horiz-adv-x="685" 
d="M100 0v811h518v-134h-374v-193h339v-136h-339v-214h376v-134h-520zM540 985l-143 -140h-114l118 140h139z" />
    <glyph glyph-name="Ecircumflex" unicode="&#xca;" horiz-adv-x="685" 
d="M100 0v811h518v-134h-374v-193h339v-136h-339v-214h376v-134h-520zM433 985l133 -140h-117l-88 84l-91 -84h-117l135 140h145z" />
    <glyph glyph-name="Edieresis" unicode="&#xcb;" horiz-adv-x="685" 
d="M100 0v811h518v-134h-374v-193h339v-136h-339v-214h376v-134h-520zM220 983q33 0 54 -18.5t21 -48.5q0 -33 -23 -51q-21 -18 -52 -18t-52.5 18.5t-21.5 50.5q0 30 21 48.5t53 18.5zM489 983q32 0 53 -18.5t21 -48.5q0 -34 -22 -51q-21 -18 -52 -18t-52.5 18.5t-21.5 50.5
q0 30 21 48.5t53 18.5z" />
    <glyph glyph-name="Igrave" unicode="&#xcc;" horiz-adv-x="344" 
d="M244 0h-144v811h144v-811zM115 845l-143 140h140l117 -140h-114z" />
    <glyph glyph-name="Iacute" unicode="&#xcd;" horiz-adv-x="344" 
d="M244 0h-144v811h144v-811zM353 985l-143 -140h-114l118 140h139z" />
    <glyph glyph-name="Icircumflex" unicode="&#xce;" horiz-adv-x="344" 
d="M244 0h-144v811h144v-811zM247 985l133 -140h-117l-88 84l-91 -84h-117l135 140h145z" />
    <glyph glyph-name="Idieresis" unicode="&#xcf;" horiz-adv-x="344" 
d="M244 0h-144v811h144v-811zM37 983q33 0 54 -18.5t21 -48.5q0 -33 -23 -51q-21 -18 -52 -18t-52.5 18.5t-21.5 50.5q0 30 21 48.5t53 18.5zM306 983q32 0 53 -18.5t21 -48.5q0 -34 -22 -51q-21 -18 -52 -18t-52.5 18.5t-21.5 50.5q0 30 21 48.5t53 18.5z" />
    <glyph glyph-name="Eth" unicode="&#xd0;" horiz-adv-x="857" 
d="M127 0v350h-120v134h120v327h214q137 0 242 -44t167 -136t62 -221q0 -193 -128 -301.5t-336 -108.5h-221zM272 134h67q155 0 238 65t83 211q0 137 -84 202t-232 65h-72v-193h189v-134h-189v-216z" />
    <glyph glyph-name="Ntilde" unicode="&#xd1;" horiz-adv-x="859" 
d="M538 0l-296 676v-676h-142v811h222l296 -676v676h141v-811h-221zM501 926q24 0 35 13t17 41h68q-5 -63 -35.5 -96.5t-76.5 -33.5q-35 0 -81 27t-67 27q-24 0 -34.5 -13t-15.5 -41h-69q4 59 35.5 94.5t77.5 35.5q36 0 80.5 -27t65.5 -27z" />
    <glyph glyph-name="Ograve" unicode="&#xd2;" horiz-adv-x="932" 
d="M887 407q0 -179 -118.5 -299t-302.5 -120t-302.5 120t-118.5 299t118.5 299t302.5 120t302.5 -120t118.5 -299zM735 407q0 126 -76 204t-193 78q-116 0 -192 -78t-76 -204t76 -204t192 -78q117 0 193 78t76 204zM407 845l-143 140h140l117 -140h-114z" />
    <glyph glyph-name="Oacute" unicode="&#xd3;" horiz-adv-x="932" 
d="M887 407q0 -179 -118.5 -299t-302.5 -120t-302.5 120t-118.5 299t118.5 299t302.5 120t302.5 -120t118.5 -299zM735 407q0 126 -76 204t-193 78q-116 0 -192 -78t-76 -204t76 -204t192 -78q117 0 193 78t76 204zM662 985l-143 -140h-114l118 140h139z" />
    <glyph glyph-name="Ocircumflex" unicode="&#xd4;" horiz-adv-x="932" 
d="M887 407q0 -179 -118.5 -299t-302.5 -120t-302.5 120t-118.5 299t118.5 299t302.5 120t302.5 -120t118.5 -299zM735 407q0 126 -76 204t-193 78q-116 0 -192 -78t-76 -204t76 -204t192 -78q117 0 193 78t76 204zM540 984l133 -140h-117l-88 84l-91 -84h-117l135 140h145z
" />
    <glyph glyph-name="Otilde" unicode="&#xd5;" horiz-adv-x="932" 
d="M887 407q0 -179 -118.5 -299t-302.5 -120t-302.5 120t-118.5 299t118.5 299t302.5 120t302.5 -120t118.5 -299zM735 407q0 126 -76 204t-193 78q-116 0 -192 -78t-76 -204t76 -204t192 -78q117 0 193 78t76 204zM533 926q24 0 35 13t17 41h68q-5 -63 -35.5 -96.5
t-76.5 -33.5q-35 0 -81 27t-67 27q-24 0 -34.5 -13t-15.5 -41h-69q4 59 35.5 94.5t77.5 35.5q36 0 80.5 -27t65.5 -27z" />
    <glyph glyph-name="Odieresis" unicode="&#xd6;" horiz-adv-x="932" 
d="M887 407q0 -179 -118.5 -299t-302.5 -120t-302.5 120t-118.5 299t118.5 299t302.5 120t302.5 -120t118.5 -299zM735 407q0 126 -76 204t-193 78q-116 0 -192 -78t-76 -204t76 -204t192 -78q117 0 193 78t76 204zM330 983q33 0 54 -18.5t21 -48.5q0 -33 -23 -51
q-21 -18 -52 -18t-52.5 18.5t-21.5 50.5q0 30 21 48.5t53 18.5zM599 983q32 0 53 -18.5t21 -48.5q0 -34 -22 -51q-21 -18 -52 -18t-52.5 18.5t-21.5 50.5q0 30 21 48.5t53 18.5z" />
    <glyph glyph-name="multiply" unicode="&#xd7;" horiz-adv-x="587" 
d="M103 10l-84 83l192 191l-192 192l84 83l190 -192l192 192l83 -83l-191 -192l191 -191l-83 -83l-192 191z" />
    <glyph glyph-name="Oslash" unicode="&#xd8;" horiz-adv-x="932" 
d="M45 12l101 115q-101 115 -101 280q0 179 118.5 299t302.5 120q132 0 234 -66l103 117l78 -64l-103 -118q109 -117 109 -288q0 -179 -118.5 -299t-302.5 -120q-138 0 -244 71l-98 -112zM735 407q0 104 -54 177l-365 -416q65 -43 150 -43q117 0 193 78t76 204zM198 407
q0 -97 47 -167l361 412q-63 37 -140 37q-116 0 -192 -78t-76 -204z" />
    <glyph glyph-name="Ugrave" unicode="&#xd9;" horiz-adv-x="876" 
d="M438 -12q-92 0 -160.5 25t-109 71t-59.5 104t-19 130v493h144v-460q0 -116 47 -171.5t157 -55.5t157 56t47 171v460h144v-493q0 -72 -19 -130t-59.5 -104t-109 -71t-160.5 -25zM418 845l-143 140h140l117 -140h-114z" />
    <glyph glyph-name="Uacute" unicode="&#xda;" horiz-adv-x="876" 
d="M438 -12q-92 0 -160.5 25t-109 71t-59.5 104t-19 130v493h144v-460q0 -116 47 -171.5t157 -55.5t157 56t47 171v460h144v-493q0 -72 -19 -130t-59.5 -104t-109 -71t-160.5 -25zM612 985l-143 -140h-114l118 140h139z" />
    <glyph glyph-name="Ucircumflex" unicode="&#xdb;" horiz-adv-x="876" 
d="M438 -12q-92 0 -160.5 25t-109 71t-59.5 104t-19 130v493h144v-460q0 -116 47 -171.5t157 -55.5t157 56t47 171v460h144v-493q0 -72 -19 -130t-59.5 -104t-109 -71t-160.5 -25zM513 985l133 -140h-117l-88 84l-91 -84h-117l135 140h145z" />
    <glyph glyph-name="Udieresis" unicode="&#xdc;" horiz-adv-x="876" 
d="M438 -12q-92 0 -160.5 25t-109 71t-59.5 104t-19 130v493h144v-460q0 -116 47 -171.5t157 -55.5t157 56t47 171v460h144v-493q0 -72 -19 -130t-59.5 -104t-109 -71t-160.5 -25zM304 983q33 0 54 -18.5t21 -48.5q0 -33 -23 -51q-21 -18 -52 -18t-52.5 18.5t-21.5 50.5
q0 30 21 48.5t53 18.5zM573 983q32 0 53 -18.5t21 -48.5q0 -34 -22 -51q-21 -18 -52 -18t-52.5 18.5t-21.5 50.5q0 30 21 48.5t53 18.5z" />
    <glyph glyph-name="Yacute" unicode="&#xdd;" horiz-adv-x="750" 
d="M375 446l193 365h167l-287 -507v-304h-145v304l-288 507h167zM550 985l-143 -140h-114l118 140h139z" />
    <glyph glyph-name="Thorn" unicode="&#xde;" horiz-adv-x="741" 
d="M404 152h-160v-152h-144v811h144v-151h160q146 0 221.5 -72t75.5 -176q0 -109 -77 -184.5t-220 -75.5zM373 526h-129v-240h129q85 0 130.5 28t45.5 95q0 117 -176 117z" />
    <glyph glyph-name="germandbls" unicode="&#xdf;" horiz-adv-x="780" 
d="M220 0h-139v517q0 160 79 234.5t233 74.5q127 0 206.5 -56t79.5 -160q0 -52 -25.5 -95.5t-64.5 -61.5q61 -19 103.5 -73t42.5 -140q0 -126 -83.5 -189t-217.5 -63q-70 0 -145 13l27 136q50 -12 100 -12q172 0 172 123q0 117 -201 117h-26v129h21q150 0 150 94
q0 47 -41 74.5t-105 27.5q-90 0 -128 -42.5t-38 -136.5v-511z" />
    <glyph glyph-name="agrave" unicode="&#xe0;" horiz-adv-x="632" 
d="M422 130v114q-45 12 -95 12q-131 0 -131 -72q0 -70 123 -70q55 0 103 16zM317 -12q-75 0 -132.5 17t-96 60.5t-38.5 109.5q0 92 72 141.5t190 49.5q54 0 110 -8v8q0 45 -33.5 63.5t-96.5 18.5q-42 0 -99 -14.5t-99 -35.5l18 143q86 42 199 42q251 0 251 -223v-328
q-112 -44 -245 -44zM291 671l-143 140h140l117 -140h-114z" />
    <glyph glyph-name="aacute" unicode="&#xe1;" horiz-adv-x="632" 
d="M422 130v114q-45 12 -95 12q-131 0 -131 -72q0 -70 123 -70q55 0 103 16zM317 -12q-75 0 -132.5 17t-96 60.5t-38.5 109.5q0 92 72 141.5t190 49.5q54 0 110 -8v8q0 45 -33.5 63.5t-96.5 18.5q-42 0 -99 -14.5t-99 -35.5l18 143q86 42 199 42q251 0 251 -223v-328
q-112 -44 -245 -44zM505 811l-143 -140h-114l118 140h139z" />
    <glyph glyph-name="acircumflex" unicode="&#xe2;" horiz-adv-x="632" 
d="M422 130v114q-45 12 -95 12q-131 0 -131 -72q0 -70 123 -70q55 0 103 16zM317 -12q-75 0 -132.5 17t-96 60.5t-38.5 109.5q0 92 72 141.5t190 49.5q54 0 110 -8v8q0 45 -33.5 63.5t-96.5 18.5q-42 0 -99 -14.5t-99 -35.5l18 143q86 42 199 42q251 0 251 -223v-328
q-112 -44 -245 -44zM399 811l133 -140h-117l-88 84l-91 -84h-117l135 140h145z" />
    <glyph glyph-name="atilde" unicode="&#xe3;" horiz-adv-x="632" 
d="M422 130v114q-45 12 -95 12q-131 0 -131 -72q0 -70 123 -70q55 0 103 16zM317 -12q-75 0 -132.5 17t-96 60.5t-38.5 109.5q0 92 72 141.5t190 49.5q54 0 110 -8v8q0 45 -33.5 63.5t-96.5 18.5q-42 0 -99 -14.5t-99 -35.5l18 143q86 42 199 42q251 0 251 -223v-328
q-112 -44 -245 -44zM401 750q24 0 35 13t17 41h68q-5 -63 -35.5 -96.5t-76.5 -33.5q-35 0 -81 27t-67 27q-24 0 -34.5 -13t-15.5 -41h-69q4 59 35.5 94.5t77.5 35.5q36 0 80.5 -27t65.5 -27z" />
    <glyph glyph-name="adieresis" unicode="&#xe4;" horiz-adv-x="632" 
d="M422 130v114q-45 12 -95 12q-131 0 -131 -72q0 -70 123 -70q55 0 103 16zM317 -12q-75 0 -132.5 17t-96 60.5t-38.5 109.5q0 92 72 141.5t190 49.5q54 0 110 -8v8q0 45 -33.5 63.5t-96.5 18.5q-42 0 -99 -14.5t-99 -35.5l18 143q86 42 199 42q251 0 251 -223v-328
q-112 -44 -245 -44zM201 800q33 0 54 -18.5t21 -48.5q0 -33 -23 -51q-21 -18 -52 -18t-52.5 18.5t-21.5 50.5q0 30 21 48.5t53 18.5zM470 800q32 0 53 -18.5t21 -48.5q0 -34 -22 -51q-21 -18 -52 -18t-52.5 18.5t-21.5 50.5q0 30 21 48.5t53 18.5z" />
    <glyph glyph-name="aring" unicode="&#xe5;" horiz-adv-x="632" 
d="M422 130v114q-45 12 -95 12q-131 0 -131 -72q0 -70 123 -70q55 0 103 16zM317 -12q-75 0 -132.5 17t-96 60.5t-38.5 109.5q0 92 72 141.5t190 49.5q54 0 110 -8v8q0 45 -33.5 63.5t-96.5 18.5q-42 0 -99 -14.5t-99 -35.5l18 143q86 42 199 42q251 0 251 -223v-328
q-112 -44 -245 -44zM332 848q44 0 74.5 -28.5t30.5 -71.5q0 -44 -30 -72.5t-75 -28.5t-76 28.5t-31 72.5q0 43 31 71.5t76 28.5zM332 804q-24 0 -41 -16t-17 -40q0 -25 17 -40.5t41 -15.5q23 0 39.5 15.5t16.5 40.5q0 24 -16.5 40t-39.5 16z" />
    <glyph glyph-name="ae" unicode="&#xe6;" horiz-adv-x="1020" 
d="M715 125h15q45 0 94 14.5t71 35.5l62 -125q-113 -62 -246 -62q-101 0 -173 52q-111 -52 -221 -52q-75 0 -132.5 17t-96 60.5t-38.5 109.5q0 92 72 141.5t190 49.5q54 0 110 -8v8q0 45 -33.5 63.5t-96.5 18.5q-42 0 -99 -14.5t-99 -35.5l18 143q86 42 199 42
q139 0 194 -78q76 78 196 78q133 0 214.5 -92.5t76.5 -251.5h-446q13 -56 57.5 -85t111.5 -29zM422 130v114q-45 12 -95 12q-131 0 -131 -72q0 -70 123 -70q55 0 103 16zM699 459q-55 0 -95 -29t-53 -75h294q-11 51 -49.5 77.5t-96.5 26.5z" />
    <glyph glyph-name="ccedilla" unicode="&#xe7;" horiz-adv-x="558" 
d="M191 -210l-4 57q40 -16 81 -16q64 0 64 35q0 36 -68 36q-32 0 -65 -7l60 101q-101 23 -163.5 102t-62.5 187q0 128 86 213t216 85q105 0 195 -46l-56 -126q-62 35 -133 35q-73 0 -117 -44.5t-44 -116.5t44 -116t117 -44q74 0 133 35l56 -127q-88 -45 -195 -45
q-5 0 -13 0.5t-12 0.5l-27 -45q26 2 49 -3t42.5 -23t19.5 -48q0 -47 -34.5 -70t-87.5 -23q-43 0 -81 13z" />
    <glyph glyph-name="egrave" unicode="&#xe8;" horiz-adv-x="651" 
d="M346 125h15q45 0 94 14.5t71 35.5l62 -125q-113 -62 -246 -62t-221 85t-88 212q0 129 86.5 213.5t212.5 84.5q133 0 214.5 -92.5t76.5 -251.5h-446q13 -56 57.5 -85t111.5 -29zM330 459q-55 0 -95 -29t-53 -75h294q-11 51 -49.5 77.5t-96.5 26.5zM300 671l-143 140h140
l117 -140h-114z" />
    <glyph glyph-name="eacute" unicode="&#xe9;" horiz-adv-x="651" 
d="M346 125h15q45 0 94 14.5t71 35.5l62 -125q-113 -62 -246 -62t-221 85t-88 212q0 129 86.5 213.5t212.5 84.5q133 0 214.5 -92.5t76.5 -251.5h-446q13 -56 57.5 -85t111.5 -29zM330 459q-55 0 -95 -29t-53 -75h294q-11 51 -49.5 77.5t-96.5 26.5zM517 811l-143 -140h-114
l118 140h139z" />
    <glyph glyph-name="ecircumflex" unicode="&#xea;" horiz-adv-x="651" 
d="M346 125h15q45 0 94 14.5t71 35.5l62 -125q-113 -62 -246 -62t-221 85t-88 212q0 129 86.5 213.5t212.5 84.5q133 0 214.5 -92.5t76.5 -251.5h-446q13 -56 57.5 -85t111.5 -29zM406 811l133 -140h-117l-88 84l-91 -84h-117l135 140h145zM330 459q-55 0 -95 -29t-53 -75
h294q-11 51 -49.5 77.5t-96.5 26.5z" />
    <glyph glyph-name="edieresis" unicode="&#xeb;" horiz-adv-x="651" 
d="M346 125h15q45 0 94 14.5t71 35.5l62 -125q-113 -62 -246 -62t-221 85t-88 212q0 129 86.5 213.5t212.5 84.5q133 0 214.5 -92.5t76.5 -251.5h-446q13 -56 57.5 -85t111.5 -29zM330 459q-55 0 -95 -29t-53 -75h294q-11 51 -49.5 77.5t-96.5 26.5zM208 800q33 0 54 -18.5
t21 -48.5q0 -33 -23 -51q-21 -18 -52 -18t-52.5 18.5t-21.5 50.5q0 30 21 48.5t53 18.5zM477 800q32 0 53 -18.5t21 -48.5q0 -34 -22 -51q-21 -18 -52 -18t-52.5 18.5t-21.5 50.5q0 30 21 48.5t53 18.5z" />
    <glyph glyph-name="igrave" unicode="&#xec;" horiz-adv-x="301" 
d="M221 0h-140v563h140v-563zM124 671l-143 140h140l117 -140h-114z" />
    <glyph glyph-name="iacute" unicode="&#xed;" horiz-adv-x="301" 
d="M221 0h-140v563h140v-563zM316 811l-143 -140h-114l118 140h139z" />
    <glyph glyph-name="icircumflex" unicode="&#xee;" horiz-adv-x="301" 
d="M221 0h-140v563h140v-563zM224 811l133 -140h-117l-88 84l-91 -84h-117l135 140h145z" />
    <glyph glyph-name="idieresis" unicode="&#xef;" horiz-adv-x="301" 
d="M221 0h-140v563h140v-563zM16 800q33 0 54 -18.5t21 -48.5q0 -33 -23 -51q-21 -18 -52 -18t-52.5 18.5t-21.5 50.5q0 30 21 48.5t53 18.5zM285 800q32 0 53 -18.5t21 -48.5q0 -34 -22 -51q-21 -18 -52 -18t-52.5 18.5t-21.5 50.5q0 30 21 48.5t53 18.5z" />
    <glyph glyph-name="eth" unicode="&#xf0;" horiz-adv-x="714" 
d="M216 615l-33 52l89 46l-77 98h180l24 -33l102 53l33 -52l-98 -50l125 -166q55 -73 81.5 -138t26.5 -140q0 -128 -92.5 -212.5t-219.5 -84.5q-128 0 -220 85.5t-92 211.5q0 121 80.5 210.5t201.5 89.5q28 0 51 -4l-67 83zM357 125q74 0 120 47.5t46 117.5
q0 69 -46.5 116.5t-119.5 47.5q-74 0 -120.5 -47.5t-46.5 -116.5q0 -70 46.5 -117.5t120.5 -47.5z" />
    <glyph glyph-name="ntilde" unicode="&#xf1;" horiz-adv-x="664" 
d="M81 0v554q158 29 253 29q58 0 102 -10.5t81.5 -35.5t57 -71.5t19.5 -113.5v-352h-140v312q0 75 -30.5 104.5t-95.5 29.5q-44 0 -107 -11v-435h-140zM400 750q24 0 35 13t17 41h68q-5 -63 -35.5 -96.5t-76.5 -33.5q-35 0 -81 27t-67 27q-24 0 -34.5 -13t-15.5 -41h-69
q4 59 35.5 94.5t77.5 35.5q36 0 80.5 -27t65.5 -27z" />
    <glyph glyph-name="ograve" unicode="&#xf2;" horiz-adv-x="676" 
d="M338 -12q-130 0 -217.5 85.5t-87.5 211.5t88 212t217 86t217 -86t88 -212t-87.5 -211.5t-217.5 -85.5zM338 125q72 0 115 45.5t43 114.5q0 68 -43.5 114.5t-114.5 46.5t-114.5 -46.5t-43.5 -114.5q0 -69 43 -114.5t115 -45.5zM299 671l-143 140h140l117 -140h-114z" />
    <glyph glyph-name="oacute" unicode="&#xf3;" horiz-adv-x="676" 
d="M338 -12q-130 0 -217.5 85.5t-87.5 211.5t88 212t217 86t217 -86t88 -212t-87.5 -211.5t-217.5 -85.5zM338 125q72 0 115 45.5t43 114.5q0 68 -43.5 114.5t-114.5 46.5t-114.5 -46.5t-43.5 -114.5q0 -69 43 -114.5t115 -45.5zM545 811l-143 -140h-114l118 140h139z" />
    <glyph glyph-name="ocircumflex" unicode="&#xf4;" horiz-adv-x="676" 
d="M338 -12q-130 0 -217.5 85.5t-87.5 211.5t88 212t217 86t217 -86t88 -212t-87.5 -211.5t-217.5 -85.5zM338 125q72 0 115 45.5t43 114.5q0 68 -43.5 114.5t-114.5 46.5t-114.5 -46.5t-43.5 -114.5q0 -69 43 -114.5t115 -45.5zM414 811l133 -140h-117l-88 84l-91 -84h-117
l135 140h145z" />
    <glyph glyph-name="otilde" unicode="&#xf5;" horiz-adv-x="676" 
d="M338 -12q-130 0 -217.5 85.5t-87.5 211.5t88 212t217 86t217 -86t88 -212t-87.5 -211.5t-217.5 -85.5zM338 125q72 0 115 45.5t43 114.5q0 68 -43.5 114.5t-114.5 46.5t-114.5 -46.5t-43.5 -114.5q0 -69 43 -114.5t115 -45.5zM407 750q24 0 35 13t17 41h68
q-5 -63 -35.5 -96.5t-76.5 -33.5q-35 0 -81 27t-67 27q-24 0 -34.5 -13t-15.5 -41h-69q4 59 35.5 94.5t77.5 35.5q36 0 80.5 -27t65.5 -27z" />
    <glyph glyph-name="odieresis" unicode="&#xf6;" horiz-adv-x="676" 
d="M338 -12q-130 0 -217.5 85.5t-87.5 211.5t88 212t217 86t217 -86t88 -212t-87.5 -211.5t-217.5 -85.5zM338 125q72 0 115 45.5t43 114.5q0 68 -43.5 114.5t-114.5 46.5t-114.5 -46.5t-43.5 -114.5q0 -69 43 -114.5t115 -45.5zM203 800q33 0 54 -18.5t21 -48.5
q0 -33 -23 -51q-21 -18 -52 -18t-52.5 18.5t-21.5 50.5q0 30 21 48.5t53 18.5zM472 800q32 0 53 -18.5t21 -48.5q0 -34 -22 -51q-21 -18 -52 -18t-52.5 18.5t-21.5 50.5q0 30 21 48.5t53 18.5z" />
    <glyph glyph-name="divide" unicode="&#xf7;" horiz-adv-x="609" 
d="M46 220v130h517v-130h-517zM302 -45q-36 0 -63.5 22.5t-27.5 57.5q0 36 27.5 59t63.5 23q37 0 64.5 -23t27.5 -59q0 -35 -27.5 -57.5t-64.5 -22.5zM302 446q-36 0 -63.5 22.5t-27.5 57.5t27.5 58.5t63.5 23.5q37 0 64.5 -23t27.5 -59q0 -35 -27.5 -57.5t-64.5 -22.5z" />
    <glyph glyph-name="oslash" unicode="&#xf8;" horiz-adv-x="676" 
d="M43 0l70 81q-80 83 -80 204q0 126 88 212t217 86q92 0 169 -48l74 85l63 -55l-74 -85q73 -83 73 -195q0 -126 -87.5 -211.5t-217.5 -85.5q-86 0 -159 41l-73 -84zM180 285q0 -56 27 -95l207 238q-34 18 -76 18q-71 0 -114.5 -46.5t-43.5 -114.5zM338 125q72 0 115 45.5
t43 114.5q0 47 -21 85l-202 -233q29 -12 65 -12z" />
    <glyph glyph-name="ugrave" unicode="&#xf9;" horiz-adv-x="642" 
d="M421 139v424h140v-534q-123 -41 -241 -41q-255 0 -255 231v344h140v-304q0 -76 25 -105t86 -29q53 0 105 14zM298 671l-143 140h140l117 -140h-114z" />
    <glyph glyph-name="uacute" unicode="&#xfa;" horiz-adv-x="642" 
d="M421 139v424h140v-534q-123 -41 -241 -41q-255 0 -255 231v344h140v-304q0 -76 25 -105t86 -29q53 0 105 14zM493 811l-143 -140h-114l118 140h139z" />
    <glyph glyph-name="ucircumflex" unicode="&#xfb;" horiz-adv-x="642" 
d="M421 139v424h140v-534q-123 -41 -241 -41q-255 0 -255 231v344h140v-304q0 -76 25 -105t86 -29q53 0 105 14zM390 811l133 -140h-117l-88 84l-91 -84h-117l135 140h145z" />
    <glyph glyph-name="udieresis" unicode="&#xfc;" horiz-adv-x="642" 
d="M421 139v424h140v-534q-123 -41 -241 -41q-255 0 -255 231v344h140v-304q0 -76 25 -105t86 -29q53 0 105 14zM178 800q33 0 54 -18.5t21 -48.5q0 -33 -23 -51q-21 -18 -52 -18t-52.5 18.5t-21.5 50.5q0 30 21 48.5t53 18.5zM447 800q32 0 53 -18.5t21 -48.5
q0 -34 -22 -51q-21 -18 -52 -18t-52.5 18.5t-21.5 50.5q0 30 21 48.5t53 18.5z" />
    <glyph glyph-name="yacute" unicode="&#xfd;" horiz-adv-x="643" 
d="M107 -200l-30 146q41 -18 98.5 -30t99.5 -12q68 0 107.5 23t39.5 71v12q-57 -12 -112 -12q-118 0 -181.5 50.5t-63.5 180.5v335h141v-295q0 -76 25.5 -105t85.5 -29q54 0 105 15v414h140v-521q0 -150 -63.5 -209t-229.5 -59q-82 0 -162 25zM481 811l-143 -140h-114
l118 140h139z" />
    <glyph glyph-name="thorn" unicode="&#xfe;" horiz-adv-x="669" 
d="M221 -4v-216h-140v1031h140v-234q56 6 86 6q152 0 240.5 -83.5t88.5 -213.5q0 -128 -88 -213t-230 -85q-45 0 -97 8zM221 434v-298q47 -11 88 -11q85 0 133 41t48 120q0 80 -48 120t-133 40q-35 0 -88 -12z" />
    <glyph glyph-name="ydieresis" unicode="&#xff;" horiz-adv-x="643" 
d="M107 -200l-30 146q41 -18 98.5 -30t99.5 -12q68 0 107.5 23t39.5 71v12q-57 -12 -112 -12q-118 0 -181.5 50.5t-63.5 180.5v335h141v-295q0 -76 25.5 -105t85.5 -29q54 0 105 15v414h140v-521q0 -150 -63.5 -209t-229.5 -59q-82 0 -162 25zM180 800q33 0 54 -18.5
t21 -48.5q0 -33 -23 -51q-21 -18 -52 -18t-52.5 18.5t-21.5 50.5q0 30 21 48.5t53 18.5zM449 800q32 0 53 -18.5t21 -48.5q0 -34 -22 -51q-21 -18 -52 -18t-52.5 18.5t-21.5 50.5q0 30 21 48.5t53 18.5z" />
    <glyph glyph-name="dotlessi" unicode="&#x131;" horiz-adv-x="301" 
d="M221 0h-140v563h140v-563z" />
    <glyph glyph-name="Lslash" unicode="&#x141;" horiz-adv-x="687" 
d="M30 248l-50 120l169 70v373h145v-313l148 62l50 -120l-198 -83v-223h373v-134h-518v297z" />
    <glyph glyph-name="lslash" unicode="&#x142;" horiz-adv-x="432" 
d="M34 248l-54 120l166 76v367h140v-303l112 52l54 -120l-166 -76v-364h-140v299z" />
    <glyph glyph-name="OE" unicode="&#x152;" horiz-adv-x="1307" 
d="M722 0v77q-103 -89 -256 -89q-184 0 -302.5 120t-118.5 299t118.5 299t302.5 120q153 0 256 -89v74h518v-134h-374v-193h339v-136h-339v-214h376v-134h-520zM735 407q0 126 -76 204t-193 78q-116 0 -192 -78t-76 -204t76 -204t192 -78q117 0 193 78t76 204z" />
    <glyph glyph-name="oe" unicode="&#x153;" horiz-adv-x="1107" 
d="M802 125h15q45 0 94 14.5t71 35.5l62 -125q-113 -62 -246 -62q-151 0 -236 106q-80 -106 -224 -106q-130 0 -217.5 85.5t-87.5 211.5t88 212t217 86q143 0 223 -106q84 106 227 106q133 0 214.5 -92.5t76.5 -251.5h-446q13 -56 57.5 -85t111.5 -29zM338 125
q72 0 115 45.5t43 114.5q0 68 -43.5 114.5t-114.5 46.5t-114.5 -46.5t-43.5 -114.5q0 -69 43 -114.5t115 -45.5zM786 459q-55 0 -95 -29t-53 -75h294q-11 51 -49.5 77.5t-96.5 26.5z" />
    <glyph glyph-name="Scaron" unicode="&#x160;" horiz-adv-x="720" 
d="M102 187q43 -27 109.5 -45t128.5 -18q78 0 125.5 26.5t47.5 80.5q0 47 -37 70.5t-117 43.5l-67 17q-109 27 -166 89t-57 153q0 99 81 160.5t213 61.5q75 0 153 -20.5t131 -52.5l-57 -127q-44 28 -106.5 45.5t-121.5 17.5q-61 0 -102.5 -23t-41.5 -65q0 -39 30.5 -63.5
t98.5 -41.5l68 -17q250 -62 250 -249q0 -114 -89.5 -178t-231.5 -64q-83 0 -164.5 20t-134.5 52zM280 845l-140 140h110l95 -85l97 85h111l-142 -140h-131z" />
    <glyph glyph-name="scaron" unicode="&#x161;" horiz-adv-x="599" 
d="M296 125q105 0 105 44q0 22 -20 34.5t-73 22.5l-45 8q-204 39 -204 175q0 80 63 127t172 47q144 0 239 -52l-51 -130q-82 45 -196 45q-88 0 -88 -37q0 -19 20.5 -31.5t72.5 -22.5l44 -8q115 -22 164.5 -65.5t49.5 -120.5t-66.5 -125t-190.5 -48q-149 0 -252 58l53 136
q88 -57 203 -57zM217 671l-140 140h110l95 -85l97 85h111l-142 -140h-131z" />
    <glyph glyph-name="Ydieresis" unicode="&#x178;" horiz-adv-x="750" 
d="M375 446l193 365h167l-287 -507v-304h-145v304l-288 507h167zM242 983q33 0 54 -18.5t21 -48.5q0 -33 -23 -51q-21 -18 -52 -18t-52.5 18.5t-21.5 50.5q0 30 21 48.5t53 18.5zM511 983q32 0 53 -18.5t21 -48.5q0 -34 -22 -51q-21 -18 -52 -18t-52.5 18.5t-21.5 50.5
q0 30 21 48.5t53 18.5z" />
    <glyph glyph-name="Zcaron" unicode="&#x17d;" horiz-adv-x="754" 
d="M90 677v134h588v-133l-449 -544h460v-134h-634v133l450 544h-415zM321 845l-140 140h110l95 -85l97 85h111l-142 -140h-131z" />
    <glyph glyph-name="zcaron" unicode="&#x17e;" horiz-adv-x="583" 
d="M64 433v130h459v-129l-305 -304h315v-130h-493v130l311 303h-287zM231 671l-140 140h110l95 -85l97 85h111l-142 -140h-131z" />
    <glyph glyph-name="florin" unicode="&#x192;" horiz-adv-x="578" 
d="M381 504h107l-10 -72h-108l-47 -291q-10 -60 -19.5 -99t-29 -82.5t-47 -68t-72 -41t-103.5 -16.5l-56 4l20 126l33 -2q70 0 98 49q21 38 38 151l43 270h-60l10 72h62l19 115q17 100 63 156t140 56q50 0 88 -21l-20 -121q-29 17 -59 17q-14 0 -25.5 -5t-19 -17
l-12.5 -20.5t-9.5 -27.5t-5.5 -24.5t-4 -24.5z" />
    <glyph glyph-name="uni0640" unicode="&#x1a0;" horiz-adv-x="177" 
d="M0 0v140h197v-140h-197z" />
    <glyph glyph-name="uni0640" unicode="&#x640;" horiz-adv-x="177" 
d="M0 0v140h197v-140h-197z" />
    <glyph glyph-name="circumflex" unicode="&#x2c6;" horiz-adv-x="443" 
d="M295 811l133 -140h-117l-88 84l-91 -84h-117l135 140h145z" />
    <glyph glyph-name="caron" unicode="&#x2c7;" horiz-adv-x="443" 
d="M155 671l-140 140h110l95 -85l97 85h111l-142 -140h-131z" />
    <glyph glyph-name="breve" unicode="&#x2d8;" horiz-adv-x="376" 
d="M361 811q-5 -72 -50.5 -110.5t-123.5 -38.5q-76 0 -122 38.5t-50 110.5h73q8 -77 100 -77q93 0 101 77h72z" />
    <glyph glyph-name="dotaccent" unicode="&#x2d9;" horiz-adv-x="178" 
d="M89 800q33 0 54 -18.5t21 -48.5q0 -33 -23 -51q-21 -18 -52 -18t-52.5 18.5t-21.5 50.5q0 30 21 48.5t53 18.5z" />
    <glyph glyph-name="ring" unicode="&#x2da;" horiz-adv-x="242" 
d="M122 848q44 0 74.5 -28.5t30.5 -71.5q0 -44 -30 -72.5t-75 -28.5t-76 28.5t-31 72.5q0 43 31 71.5t76 28.5zM122 804q-24 0 -41 -16t-17 -40q0 -25 17 -40.5t41 -15.5q23 0 39.5 15.5t16.5 40.5q0 24 -16.5 40t-39.5 16z" />
    <glyph glyph-name="ogonek" unicode="&#x2db;" horiz-adv-x="268" 
d="M112 1l133 -1q-53 -26 -79.5 -47t-26.5 -46q0 -21 18 -32t47 -11q25 0 49 7v-70q-34 -8 -83 -8q-41 0 -73.5 8t-57 31t-24.5 58q0 34 28 64t69 47z" />
    <glyph glyph-name="tilde" unicode="&#x2dc;" horiz-adv-x="409" 
d="M274 750q24 0 35 13t17 41h68q-5 -63 -35.5 -96.5t-76.5 -33.5q-35 0 -81 27t-67 27q-24 0 -34.5 -13t-15.5 -41h-69q4 59 35.5 94.5t77.5 35.5q36 0 80.5 -27t65.5 -27z" />
    <glyph glyph-name="hungarumlaut" unicode="&#x2dd;" horiz-adv-x="516" 
d="M272 811l-143 -140h-114l118 140h139zM501 811l-142 -140h-115l117 140h140z" />
    <glyph glyph-name="pi" unicode="&#x3c0;" horiz-adv-x="814" 
d="M261 0h-140v433h-79v130h707v-130h-89v-232q0 -47 11 -58.5t56 -11.5h22v-131h-46q-109 0 -146 30.5t-37 123.5v279h-259v-433z" />
    <glyph glyph-name="uni060C" unicode="&#x60c;" horiz-adv-x="393" 
d="M343 267l-95 -303h-148l130 303h113z" />
    <glyph glyph-name="uni0615" unicode="&#x615;" 
d="M-27 203v-56h51q52 0 82.5 -27.5t30.5 -80.5v-39h-273v55h50v148h59zM25 102h-52v-47h94q0 19 -11.5 33t-30.5 14z" />
    <glyph glyph-name="uni061B" unicode="&#x61b;" horiz-adv-x="417" 
d="M192 -11q-37 0 -64.5 22t-27.5 57q0 36 27.5 59t64.5 23t64.5 -23t27.5 -59q0 -35 -27.5 -57t-64.5 -22zM367 655l-95 -303h-148l130 303h113z" />
    <glyph glyph-name="uni061F" unicode="&#x61f;" horiz-adv-x="571" 
d="M363 -12q-38 0 -66 23t-28 60t28 60.5t66 23.5t66.5 -23.5t28.5 -60.5t-28.5 -60t-66.5 -23zM370 654q-59 0 -106 -34.5t-47 -90.5q0 -68 56.5 -99t146.5 -31h12v-197h-140v91q-98 23 -160 86t-62 163q0 112 81.5 180.5t204.5 68.5q94 0 177 -33l18 -145q-94 41 -181 41z
" />
    <glyph glyph-name="uni0647" unicode="&#x647;" horiz-adv-x="851" 
d="M85 0v140h114q-9 43 -9 72q0 111 55 171t152 60q92 0 150.5 -63t58.5 -167q0 -35 -8 -73h91q8 54 8 95q0 115 -52 194q-68 103 -230 103q-95 0 -212 -64l-47 127q156 78 295 78q196 0 304 -157q82 -121 82 -305q0 -94 -37 -211h-715zM315 215q0 -31 7 -75h152q7 44 7 75
q0 48 -22.5 75.5t-61.5 27.5q-82 0 -82 -103z" />
    <glyph glyph-name="uni064B" unicode="&#x64b;" 
d="M-111 0v47l224 32v-47zM-112 82v47l224 32v-47z" />
    <glyph glyph-name="uni064C" unicode="&#x64c;" 
d="M-94 0l-41 106l47 19l25 -70l47 7q-6 15 -6 31q0 36 21 61t62 25q33 0 53.5 -22.5t20.5 -58.5q0 -32 -6 -63zM22 96q0 -15 4 -27l60 10q1 4 1 16q0 15 -8.5 25t-24.5 10q-13 0 -22.5 -9.5t-9.5 -24.5z" />
    <glyph glyph-name="uni064D" unicode="&#x64d;" 
d="M-111 -161v47l224 32v-47zM-112 -79v47l224 32v-47z" />
    <glyph glyph-name="uni064E" unicode="&#x64e;" 
d="M-112 0v50l224 32v-50z" />
    <glyph glyph-name="uni064F" unicode="&#x64f;" 
d="M-110 2l-5 47l79 13q-6 15 -6 31q0 36 20.5 61t61.5 25q34 0 54.5 -22.5t20.5 -58.5q0 -32 -6 -63zM1 96q0 -16 4 -27l60 10q2 8 2 16q0 15 -8.5 25t-24.5 10q-14 0 -23.5 -9.5t-9.5 -24.5z" />
    <glyph glyph-name="uni0650" unicode="&#x650;" 
d="M-112 -82v50l224 32v-50z" />
    <glyph glyph-name="uni0651" unicode="&#x651;" 
d="M-53 0q-59 0 -72 64l-11 56l49 10l10 -54q6 -28 28 -28q30 0 30 41q0 17 -7 52l50 7l10 -54q5 -25 27 -25q28 0 28 29q0 31 -14 66l50 11q12 -52 12 -72q0 -39 -21 -60t-59 -21q-27 0 -43 24q-19 -46 -67 -46z" />
    <glyph glyph-name="uni0652" unicode="&#x652;" 
d="M-4 0q-80 0 -80 89q0 42 23.5 66.5t62.5 24.5t60.5 -24.5t21.5 -66.5q0 -40 -25 -64.5t-63 -24.5zM-1 47q37 0 37 41q0 44 -37 44q-13 0 -24 -10t-11 -32q0 -43 35 -43z" />
    <glyph glyph-name="uni0653" unicode="&#x653;" horiz-adv-x="335" 
d="M31 725v65h273v-65h-273z" />
    <glyph glyph-name="uni0654" unicode="&#x654;" horiz-adv-x="335" 
d="M66 725v46q0 124 126 124h50v-45h-42q-54 0 -54 -50h128v-75h-208z" />
    <glyph glyph-name="uni0655" unicode="&#x655;" horiz-adv-x="335" 
d="M192 -207q-126 0 -126 124v46h208v-75h-128q0 -50 54 -50h42v-45h-50z" />
    <glyph glyph-name="uni0656" unicode="&#x656;" 
d="M-28 -194v194h56v-186z" />
    <glyph glyph-name="uni0658" unicode="&#x658;" 
d="M7 0q-72 0 -100 28.5t-28 95.5v81h60v-79q0 -66 69 -66h53v145h60v-205h-114zM-13 127l-10 177h56l-10 -172z" />
    <glyph glyph-name="uni0660" unicode="&#x660;" horiz-adv-x="494" 
d="M134 319l113 113l113 -113l-113 -113z" />
    <glyph glyph-name="uni0661" unicode="&#x661;" horiz-adv-x="439" 
d="M289 0h-140v674h140v-674z" />
    <glyph glyph-name="uni0662" unicode="&#x662;" horiz-adv-x="714" 
d="M277 0h-140v674h140v-277q43 -17 95 -17q113 0 113 121v173h140v-196q0 -238 -238 -238q-58 0 -110 18v-258z" />
    <glyph glyph-name="uni0663" unicode="&#x663;" horiz-adv-x="811" 
d="M289 0h-140v674h140v-288q20 -6 37 -6q40 0 53.5 21t13.5 80v193h120v-198q0 -48 -4 -77q19 -4 40 -4q28 0 41 22t13 76v181h140v-215q0 -102 -50 -153t-143 -51q-44 0 -96 22q-46 -37 -114 -37q-26 0 -51 6v-246z" />
    <glyph glyph-name="uni0664" unicode="&#x664;" horiz-adv-x="677" 
d="M588 0h-235q-111 0 -172.5 43.5t-61.5 129.5q0 85 72 147q-44 80 -44 160q0 99 63 161t176 62q77 0 206 -48l-45 -124q-53 20 -81.5 26t-69.5 6q-46 0 -77.5 -25t-31.5 -68q0 -49 17 -86q38 14 78 24l117 28l24 -118l-158 -38q-104 -25 -104 -80q0 -60 121 -60h206v-140z
" />
    <glyph glyph-name="uni0665" unicode="&#x665;" horiz-adv-x="707" 
d="M348 -10q-118 0 -188 63t-70 191q0 179 79 311t184 132q100 0 182 -125t82 -318q0 -254 -269 -254zM350 130q67 0 97 33t30 107q0 72 -14 134t-44 102.5t-69 40.5q-53 0 -86.5 -83.5t-33.5 -193.5q0 -74 29 -107t91 -33z" />
    <glyph glyph-name="uni0666" unicode="&#x666;" horiz-adv-x="636" 
d="M499 0h-140v534h-282v140h422v-674z" />
    <glyph glyph-name="uni0667" unicode="&#x667;" horiz-adv-x="752" 
d="M476 0h-208l-203 674h147l159 -533h4l166 533h147z" />
    <glyph glyph-name="uni0668" unicode="&#x668;" horiz-adv-x="752" 
d="M268 674h208l212 -674h-147l-166 533h-4l-159 -533h-147z" />
    <glyph glyph-name="uni0669" unicode="&#x669;" horiz-adv-x="729" 
d="M592 0h-140v173q-37 -5 -65 -5q-131 0 -211.5 61.5t-80.5 185.5q0 129 92 194t248 65h157v-674zM378 308q38 0 74 3v223h-53q-164 0 -164 -119q0 -107 143 -107z" />
    <glyph glyph-name="uni066A" unicode="&#x66a;" horiz-adv-x="652" 
d="M75 -125l369 1010h133l-366 -1010h-136zM480 59q-37 0 -64.5 22t-27.5 57q0 36 27.5 59t64.5 23t64.5 -23t27.5 -59q0 -35 -27.5 -57t-64.5 -22zM185 565q-37 0 -64.5 22t-27.5 57q0 36 27.5 59t64.5 23t64.5 -23t27.5 -59q0 -35 -27.5 -57t-64.5 -22z" />
    <glyph glyph-name="uni066B" unicode="&#x66b;" horiz-adv-x="393" 
d="M343 267l-95 -303h-148l130 303h113z" />
    <glyph glyph-name="uni066C" unicode="&#x66c;" horiz-adv-x="393" 
d="M343 757l-95 -303h-148l130 303h113z" />
    <glyph glyph-name="uni066D" unicode="&#x66d;" horiz-adv-x="585" 
d="M559 400l-156 -124l53 -192l-166 110l-166 -110l53 192l-156 124l199 9l70 187l69 -187z" />
    <glyph glyph-name="uni066E" unicode="&#x66e;" horiz-adv-x="863" 
d="M372 0q-89 0 -148.5 19t-105.5 63q-67 63 -67 207v189h140v-172q0 -93 42 -128q45 -38 149 -38h280v423h140v-563h-430z" />
    <glyph glyph-name="uni066F" unicode="&#x66f;" horiz-adv-x="875" 
d="M814 -220h-441q-89 0 -148.5 19t-105.5 63q-67 63 -67 207v219h140v-202q0 -93 42 -128q45 -38 149 -38h291v80h-18q-154 0 -248.5 69.5t-94.5 212.5q0 129 95.5 205t247.5 76h158v-783zM453 282q0 -67 46 -104.5t116 -37.5h59v283h-59q-65 0 -113.5 -39.5t-48.5 -101.5z
" />
    <glyph glyph-name="uni0670" unicode="&#x670;" 
d="M-28 0v194h56v-186z" />
    <glyph glyph-name="uni06A1" unicode="&#x6a1;" horiz-adv-x="1133" 
d="M1035 0h-626q-89 0 -148.5 19t-105.5 63q-67 63 -67 207v189h140v-172q0 -93 42 -128q45 -38 149 -38h163q-48 63 -48 142q0 130 92 205.5t244 75.5h165v-563zM674 282q0 -89 76 -142h145v283h-59q-65 0 -113.5 -38t-48.5 -103z" />
    <glyph glyph-name="uni06C2" unicode="&#x6c2;" horiz-adv-x="572" 
d="M557 0h-160q-155 0 -248.5 71.5t-93.5 209.5q0 124 92 203t250 79h20v50h140v-613zM356 140h61v283h-54q-66 0 -117 -39t-51 -103q0 -66 47.5 -103.5t113.5 -37.5zM340 645v73q0 124 126 124h60v-45h-52q-54 0 -54 -50v-27h138v-75h-218z" />
    <glyph glyph-name="uni06C3" unicode="&#x6c3;" horiz-adv-x="572" 
d="M557 0h-160q-155 0 -248.5 71.5t-93.5 209.5q0 124 92 203t250 79h20v50h140v-613zM356 140h61v283h-54q-66 0 -117 -39t-51 -103q0 -66 47.5 -103.5t113.5 -37.5zM475 687q-33 0 -55.5 19t-22.5 53q0 31 22.5 51t55.5 20q34 0 56 -20t22 -51q0 -34 -22.5 -53t-55.5 -19z
M258 687q-33 0 -55.5 19t-22.5 53q0 31 22.5 51t55.5 20t55.5 -20t22.5 -51q0 -34 -22.5 -53t-55.5 -19z" />
    <glyph glyph-name="uni06D5" unicode="&#x6d5;" horiz-adv-x="572" 
d="M397 0q-155 0 -248.5 71.5t-93.5 209.5q0 124 92 203t250 79h20v50h140v-613h-160zM356 140h61v283h-54q-66 0 -117 -39t-51 -103q0 -66 47.5 -103.5t113.5 -37.5z" />
    <glyph glyph-name="uni06F0" unicode="&#x6f0;" horiz-adv-x="468" 
d="M122 319l113 113l113 -113l-113 -113z" />
    <glyph glyph-name="uni06F1" unicode="&#x6f1;" horiz-adv-x="405" 
d="M273 0h-140v674h140v-674z" />
    <glyph glyph-name="uni06F2" unicode="&#x6f2;" horiz-adv-x="625" 
d="M261 0h-140v674h140v-277q43 -17 95 -17q113 0 113 121v173h140v-196q0 -238 -238 -238q-58 0 -110 18v-258z" />
    <glyph glyph-name="uni06F3" unicode="&#x6f3;" horiz-adv-x="715" 
d="M289 0h-140v674h140v-288q20 -6 37 -6q40 0 53.5 21t13.5 80v193h120v-198q0 -48 -4 -77q19 -4 40 -4q28 0 41 22t13 76v181h140v-215q0 -102 -50 -153t-143 -51q-44 0 -96 22q-46 -37 -114 -37q-26 0 -51 6v-246z" />
    <glyph glyph-name="uni06F4" unicode="&#x6f4;" horiz-adv-x="805" 
d="M277 0h-140v674h140v-264q48 -12 108 -19q-26 68 -26 122q0 82 49 136t138 54q52 0 127 -29l-37 -108q-42 17 -75 17q-32 0 -56.5 -24.5t-24.5 -64.5q0 -55 24 -104q79 8 163 48l49 -128q-149 -62 -268 -62q-84 0 -171 23v-271z" />
    <glyph glyph-name="uni06F5" unicode="&#x6f5;" horiz-adv-x="670" 
d="M252 -10q-73 0 -119 61.5t-46 169.5q0 194 175 371q-49 39 -84 61l83 113q161 -105 254 -222q53 -67 84 -151.5t31 -169.5q0 -108 -47 -170.5t-120 -62.5t-105 65q-36 -65 -106 -65zM383 486l-15 16q-141 -122 -141 -262q0 -111 52 -111q50 0 50 82h59q0 -81 48 -81
q30 0 42 26t12 80q0 128 -107 250z" />
    <glyph glyph-name="uni06F6" unicode="&#x6f6;" horiz-adv-x="678" 
d="M262 0h-140v133q0 108 80 168q-55 91 -55 179q0 99 63 161t176 62q77 0 206 -48l-45 -124q-53 20 -81.5 26t-69.5 6q-46 0 -77.5 -25t-31.5 -68q0 -59 32 -114l35 9l152 38l29 -137l-133 -32q-140 -33 -140 -133v-101z" />
    <glyph glyph-name="uni06F7" unicode="&#x6f7;" horiz-adv-x="630" 
d="M416 0h-208l-203 674h147l159 -533h4l166 533h147z" />
    <glyph glyph-name="uni06F8" unicode="&#x6f8;" horiz-adv-x="630" 
d="M221 674h208l212 -674h-147l-166 533h-4l-159 -533h-147z" />
    <glyph glyph-name="uni06F9" unicode="&#x6f9;" horiz-adv-x="633" 
d="M525 0h-140v173q-37 -5 -65 -5q-131 0 -211.5 61.5t-80.5 185.5q0 129 92 194t248 65h157v-674zM311 308q38 0 74 3v223h-53q-164 0 -164 -119q0 -107 143 -107z" />
    <glyph glyph-name="endash" unicode="&#x2013;" horiz-adv-x="592" 
d="M46 220v130h500v-130h-500z" />
    <glyph glyph-name="emdash" unicode="&#x2014;" horiz-adv-x="832" 
d="M46 220v130h740v-130h-740z" />
    <glyph glyph-name="quoteleft" unicode="&#x2018;" horiz-adv-x="301" 
d="M265 811l-95 -303h-148l131 303h112z" />
    <glyph glyph-name="quoteright" unicode="&#x2019;" horiz-adv-x="301" 
d="M22 508l95 303h148l-131 -303h-112z" />
    <glyph glyph-name="quotesinglbase" unicode="&#x201a;" horiz-adv-x="301" 
d="M17 -166l95 303h148l-130 -303h-113z" />
    <glyph glyph-name="quotedblleft" unicode="&#x201c;" horiz-adv-x="543" 
d="M507 811l-95 -303h-149l131 303h113zM265 811l-95 -303h-148l131 303h112z" />
    <glyph glyph-name="quotedblright" unicode="&#x201d;" horiz-adv-x="543" 
d="M22 508l95 303h148l-131 -303h-112zM263 508l95 303h149l-131 -303h-113z" />
    <glyph glyph-name="quotedblbase" unicode="&#x201e;" horiz-adv-x="548" 
d="M17 -166l95 303h148l-130 -303h-113zM263 -166l95 303h149l-131 -303h-113z" />
    <glyph glyph-name="dagger" unicode="&#x2020;" horiz-adv-x="664" 
d="M262 0v464h-221v130h221v217h140v-217h221v-130h-221v-464h-140z" />
    <glyph glyph-name="daggerdbl" unicode="&#x2021;" horiz-adv-x="702" 
d="M281 319v179h-221v131h221v182h140v-182h221v-131h-221v-179h221v-131h-221v-188h-140v188h-221v131h221z" />
    <glyph glyph-name="bullet" unicode="&#x2022;" horiz-adv-x="433" 
d="M217 189q-80 0 -134.5 55t-54.5 133q0 79 54.5 134t134.5 55t134 -55t54 -134q0 -78 -54 -133t-134 -55z" />
    <glyph glyph-name="ellipsis" unicode="&#x2026;" horiz-adv-x="924" 
d="M144 -11q-37 0 -64.5 22.5t-27.5 57.5q0 36 27.5 59t64.5 23t64.5 -23t27.5 -59q0 -35 -27.5 -57.5t-64.5 -22.5zM461 -11q-36 0 -63.5 22.5t-27.5 57.5t27.5 58.5t63.5 23.5q37 0 65 -23.5t28 -58.5t-28 -57.5t-65 -22.5zM779 -11q-36 0 -63.5 22.5t-27.5 57.5
t27.5 58.5t63.5 23.5q37 0 65 -23.5t28 -58.5t-28 -57.5t-65 -22.5z" />
    <glyph glyph-name="perthousand" unicode="&#x2030;" horiz-adv-x="1517" 
d="M241 346q-93 0 -142 64t-49 176t49 176t142 64q94 0 143 -64t49 -176t-49 -176t-143 -64zM241 460q77 0 77 126q0 127 -77 127t-77 -127q0 -126 77 -126zM184 1h143l567 810h-143zM835 -13q-93 0 -142 64t-49 176t49 176t142 64q94 0 143 -64t49 -176t-49 -176t-143 -64z
M835 101q77 0 77 126q0 127 -77 127t-77 -127q0 -126 77 -126zM1275 -13q-93 0 -142 64t-49 176t49 176t142 64q94 0 143 -64t49 -176t-49 -176t-143 -64zM1275 101q77 0 77 126q0 127 -77 127t-77 -127q0 -126 77 -126z" />
    <glyph glyph-name="guilsinglleft" unicode="&#x2039;" horiz-adv-x="355" 
d="M183 31l-157 257l156 256h147l-151 -255l150 -258h-145z" />
    <glyph glyph-name="guilsinglright" unicode="&#x203a;" horiz-adv-x="355" 
d="M329 288l-158 -257h-144l149 258l-150 255h146z" />
    <glyph glyph-name="fraction" unicode="&#x2044;" horiz-adv-x="650" 
d="M113 1h-143l567 810h143z" />
    <glyph glyph-name="Euro" unicode="&#x20ac;" horiz-adv-x="885" 
d="M54 579h137q45 114 145 179.5t241 65.5q155 0 268 -69l-55 -127q-98 61 -208 61q-71 0 -130 -28t-96 -82h301l-54 -107h-289q-5 -26 -5 -65q0 -19 1 -28h247l-54 -107h-168q32 -73 98 -111t149 -38q110 0 208 61l55 -127q-113 -69 -268 -69q-152 0 -256.5 77t-141.5 207
h-178l53 107h108q-1 9 -1 28q0 37 4 65h-164z" />
    <glyph glyph-name="trademark" unicode="&#x2122;" horiz-adv-x="1016" 
d="M166 362v367h-144v82h376v-82h-144v-367h-88zM749 362h-116l-100 376v-376h-88v449h150l96 -367l95 367h149v-449h-86v376z" />
    <glyph glyph-name="Omega" unicode="&#x2126;" horiz-adv-x="931" 
d="M465 826q109 0 198.5 -38.5t146 -117t56.5 -184.5q0 -116 -64.5 -198.5t-162.5 -105.5v-52h207v-130h-326v274q98 13 152.5 67t54.5 137q0 102 -74.5 159t-187.5 57q-112 0 -187 -57t-75 -159q0 -83 55 -137t152 -67v-274h-326v130h207v52q-98 23 -162 105.5t-64 198.5
q0 106 56 184.5t145.5 117t198.5 38.5z" />
    <glyph glyph-name="twothirds" unicode="&#x2154;" horiz-adv-x="1028" 
d="M699 780l68 -34l-404 -777l-69 35zM712 336h-91q6 60 45.5 95t104.5 35q63 0 102 -34.5t39 -92.5q0 -65 -47 -95q31 -13 47 -44t16 -66q0 -66 -45.5 -105t-117.5 -39q-67 0 -112.5 41t-49.5 102h96q2 -28 20.5 -47t49.5 -19q30 0 48 22t18 50q0 29 -19 51.5t-50 20.5
l-18 -1v63h11q30 0 46 17t16 46q0 24 -15 40.5t-41 16.5q-24 0 -38 -17t-15 -40zM270 423h160v-77h-330l125 145q1 1 16 18.5l20.5 24t19 24t20 28l15 25t12 26.5t3.5 23q0 33 -16.5 53.5t-46.5 20.5t-46 -24.5t-14 -53.5h-101q5 68 46.5 111t114.5 43q67 0 113 -42t46 -103
q0 -46 -22 -83.5t-63 -81.5z" />
    <glyph glyph-name="partialdiff" unicode="&#x2202;" horiz-adv-x="714" 
d="M357 -12q-128 0 -220 85.5t-92 211.5q0 121 80.5 210.5t201.5 89.5q28 0 51 -4l-183 230h180l186 -248q55 -73 81.5 -138t26.5 -140q0 -128 -92.5 -212.5t-219.5 -84.5zM357 125q74 0 120 47.5t46 117.5q0 69 -46.5 116.5t-119.5 47.5q-74 0 -120.5 -47.5t-46.5 -116.5
q0 -70 46.5 -117.5t120.5 -47.5z" />
    <glyph glyph-name="Delta" unicode="&#x2206;" horiz-adv-x="822" 
d="M15 -1l396 830l396 -830h-792zM636 107l-225 473l-223 -473h448z" />
    <glyph glyph-name="product" unicode="&#x220f;" horiz-adv-x="794" 
d="M221 -220h-140v1031h632v-1031h-140v901h-352v-901z" />
    <glyph glyph-name="summation" unicode="&#x2211;" horiz-adv-x="714" 
d="M30 -90l358 386l-358 385v130h654v-130h-488l359 -385l-359 -386h488v-130h-654v130z" />
    <glyph glyph-name="minus" unicode="&#x2212;" horiz-adv-x="609" 
d="M46 220v130h517v-130h-517z" />
    <glyph glyph-name="radical" unicode="&#x221a;" horiz-adv-x="746" 
d="M20 232l213 79l153 -377l183 877h137l-215 -1016h-173l-162 373l-99 -36z" />
    <glyph glyph-name="infinity" unicode="&#x221e;" horiz-adv-x="946" 
d="M689 509q100 0 163.5 -58.5t63.5 -149.5q0 -93 -62 -151.5t-162 -58.5q-114 0 -218 115q-107 -114 -220 -114q-100 0 -162 58.5t-62 150.5t63 150t165 58q114 0 216 -107q48 52 98.5 79.5t116.5 27.5zM257 219q66 0 136 83q-70 81 -133 81q-41 0 -68 -22.5t-27 -59.5
q0 -34 26.5 -58t65.5 -24zM686 383q-62 0 -131 -81q70 -83 135 -83q39 0 65 23.5t26 58.5t-26 58.5t-69 23.5z" />
    <glyph glyph-name="integral" unicode="&#x222b;" horiz-adv-x="436" 
d="M288 591v-617q0 -101 -53.5 -147.5t-170.5 -46.5h-74v130h73q51 0 68 20.5t17 69.5v617q0 101 53.5 147.5t170.5 46.5h74v-130h-73q-51 0 -68 -20.5t-17 -69.5z" />
    <glyph glyph-name="approxequal" unicode="&#x2248;" horiz-adv-x="644" 
d="M437 416q59 0 67 77h95q-11 -186 -146 -186q-49 0 -132 39t-114 39q-59 0 -66 -77h-95q5 90 41.5 138t105.5 48q55 0 137.5 -39t106.5 -39zM437 172q59 0 67 78h95q-11 -186 -146 -186q-49 0 -132 39t-114 39q-59 0 -66 -77h-95q10 186 147 186q55 0 137.5 -39.5
t106.5 -39.5z" />
    <glyph glyph-name="notequal" unicode="&#x2260;" horiz-adv-x="609" 
d="M46 349v130h319l76 127h122l-76 -127h76v-130h-153l-76 -127h229v-131h-307l-87 -147h-124l88 147h-87v131h165l76 127h-241z" />
    <glyph glyph-name="lessequal" unicode="&#x2264;" horiz-adv-x="690" 
d="M198 362l438 -111v-118l-582 158v143l582 156v-117zM54 0v106h582v-106h-582z" />
    <glyph glyph-name="greaterequal" unicode="&#x2265;" horiz-adv-x="690" 
d="M54 251l438 111l-438 111v117l582 -156v-143l-582 -158v118zM636 106v-106h-582v106h582z" />
    <glyph glyph-name="lozenge" unicode="&#x25ca;" horiz-adv-x="636" 
d="M320 651l-166 -274l166 -273l167 273zM19 377l301 474l296 -474l-296 -473z" />
    <glyph glyph-name="uni25CC" unicode="&#x25cc;" horiz-adv-x="685" 
d="M311 448q0 13 9.5 22t22.5 9t22 -9t9 -22t-9 -22.5t-22 -9.5t-22.5 9t-9.5 23zM207 423q0 13 9.5 22t22.5 9t22 -9t9 -22t-9 -22.5t-22 -9.5t-22.5 9.5t-9.5 22.5zM418 423q0 13 9 22t22 9t22 -9t9 -22q0 -14 -9 -23t-22 -9t-22 9.5t-9 22.5zM498 341q0 13 9 22t22 9
t22 -9t9 -22t-9 -22t-22 -9t-22 9t-9 22zM129 341q0 13 9 22t22 9t22 -9t9 -22t-9 -22t-22 -9t-22 9t-9 22zM100 233q0 13 9 22t22 9t22 -9t9 -22t-9 -22t-22 -9t-22 9t-9 22zM523 233q0 13 9 22t22 9t22 -9t9 -22t-9 -22t-22 -9t-22 9t-9 22zM498 128q0 13 9 22t22 9t22 -9
t9 -22t-9 -22t-22 -9t-22 9t-9 22zM129 128q0 13 9 22t22 9t22 -9t9 -22t-9 -22t-22 -9t-22 9t-9 22zM207 51q0 13 9.5 22t22.5 9t22 -9t9 -22t-9 -22t-22 -9q-14 0 -23 9t-9 22zM418 51q0 13 9 22t22 9t22 -9t9 -22t-9 -22t-22 -9t-22 9t-9 22zM311 22q0 13 9 22t23 9
q13 0 22 -9t9 -22t-9 -22t-22 -9t-22.5 9t-9.5 22z" />
    <glyph glyph-name="uni274A" unicode="&#x274a;" horiz-adv-x="550" 
d="M247 545v-15q-45 -20 -118 -20q-67 0 -119 20v16q42 21 119 21q63 0 118 -22zM540 545v-15q-45 -20 -118 -20q-69 0 -119 20v16q42 21 119 21q61 0 118 -22zM268 510h15q20 -45 20 -118q0 -67 -20 -119h-16q-21 42 -21 119q0 63 22 118zM268 803h15q20 -45 20 -118
q0 -69 -20 -119h-16q-21 42 -21 119q0 61 22 118zM250 523l11 -10q-21 -51 -69 -98q-49 -48 -98 -70l-12 12q15 44 70 98q44 46 98 68zM457 730l11 -11q-19 -46 -70 -97q-45 -47 -98 -70l-11 11q15 46 69 100q42 42 99 67zM290 513l10 11q51 -21 98 -69q48 -49 70 -98
l-12 -12q-44 15 -98 70q-46 44 -68 98zM83 720l11 11q46 -19 97 -70q47 -45 70 -98l-11 -11q-46 15 -100 69q-42 42 -67 99z" />
    <glyph glyph-name="apple" unicode="&#xf8ff;" horiz-adv-x="855" 
d="M687 292q-167 30 -262 30q-110 0 -178 -27t-114 -93l-33 14q0 134 88.5 199t251.5 65q-103 57 -266 174q32 58 80 156h12q141 -126 227.5 -190t261.5 -172zM407 76q-55 10 -92 7q22 -42 40.5 -89t26.5 -73l7 -26l-75 -116h-14q-37 137 -107 289q4 55 29 98.5t59 58.5
q93 2 191 -19zM614 216l29 -20q34 -178 81 -301l-88 -116h-12q-19 71 -41 185l-44 -47h-11q-29 32 -55 69.5t-26 48.5q0 48 47 110.5t120 70.5z" />
    <glyph glyph-name="fi" unicode="&#xfb01;" horiz-adv-x="810" 
d="M25 433v130h106v54q0 101 53.5 147.5t170.5 46.5h134v-130h-133q-51 0 -68 -20.5t-17 -69.5v-28h214v-130h-214v-433h-140v433h-106zM590 0v563h140v-563h-140zM660 651q-35 0 -58.5 20t-23.5 55q0 33 23 53.5t59 20.5q35 0 58 -20.5t23 -53.5q0 -34 -22.5 -54.5
t-58.5 -20.5z" />
    <glyph glyph-name="fl" unicode="&#xfb02;" horiz-adv-x="811" 
d="M25 433v130h106v54q0 101 53.5 147.5t170.5 46.5h134v-130h-133q-51 0 -68 -20.5t-17 -69.5v-28h214v-130h-214v-433h-140v433h-106zM730 0h-140v811h140v-811z" />
    <glyph glyph-name="uniFD3E" unicode="&#xfd3e;" horiz-adv-x="365" 
d="M291 -220q-104 0 -141 34.5t-37 134.5v170q0 29 -3 49.5t-11.5 38.5t-25.5 27.5t-43 10.5v102q50 1 66.5 33.5t16.5 93.5v168q0 100 37 134.5t141 34.5h59v-101h-32q-44 0 -54.5 -13t-10.5 -61v-176q0 -79 -24.5 -114t-71.5 -48v-2q47 -13 71.5 -49t24.5 -114v-178
q0 -48 10.5 -61t54.5 -13h32v-101h-59z" />
    <glyph glyph-name="uniFD3F" unicode="&#xfd3f;" horiz-adv-x="365" 
d="M73 -220h-58v101h23q46 0 59.5 14t13.5 60v178q0 78 24.5 114t71.5 49v2q-47 13 -71.5 48t-24.5 114v176q0 46 -13.5 60t-59.5 14h-23v101h58q104 0 141 -34.5t37 -134.5v-168q0 -62 17 -94t67 -33v-102q-50 -1 -67 -33t-17 -93v-170q0 -100 -37 -134.5t-141 -34.5z" />
    <glyph glyph-name="CR" horiz-adv-x="500" 
 />
    <glyph glyph-name="uni0627.short" horiz-adv-x="345" 
d="M130 0v690h140v-690h-140z" />
    <glyph glyph-name="uni0627.shortfina" horiz-adv-x="378" 
d="M130 0v690h140v-550h128v-140h-268z" />
    <glyph glyph-name="uni066E.initalt" horiz-adv-x="410" 
d="M0 0v140h209v423h140v-563h-349z" />
    <glyph glyph-name="uni066E.medialt" horiz-adv-x="513" 
d="M0 0v140h209v423h140v-423h184v-140h-533z" />
    <glyph glyph-name="uni06C3.fina" horiz-adv-x="533" 
d="M612 0h-241v424h-63q-54 0 -85 -25q-37 -29 -37 -84v-167h-140v148q0 142 87 213q68 55 190 55h188v-424h101v-140zM208 639q-33 0 -55.5 19t-22.5 53q0 31 22.5 51t55.5 20t55.5 -20t22.5 -51q0 -34 -22.5 -53t-55.5 -19zM425 639q-33 0 -55.5 19t-22.5 53q0 31 22.5 51
t55.5 20q34 0 56 -20t22 -51q0 -34 -22.5 -53t-55.5 -19z" />
    <glyph glyph-name="uni06BA.init" horiz-adv-x="324" 
d="M191 648q-35 0 -58.5 20t-23.5 55q0 33 23.5 53.5t58.5 20.5q36 0 59 -20.5t23 -53.5q0 -35 -23.5 -55t-58.5 -20zM0 0v140h124v423h140v-563h-264z" />
    <glyph glyph-name="uni06BA.medi" horiz-adv-x="352" 
d="M0 0v140h124v423h140v-423h107v-140h-371zM190 648q-35 0 -58.5 20t-23.5 55q0 33 23.5 53.5t58.5 20.5q36 0 59 -20.5t23 -53.5q0 -35 -23.5 -55t-58.5 -20z" />
    <glyph glyph-name="uni06C2.fina" horiz-adv-x="533" 
d="M612 0h-241v424h-63q-54 0 -85 -25q-37 -29 -37 -84v-167h-140v148q0 142 87 213q68 55 190 55h188v-424h101v-140zM298 645v73q0 124 126 124h60v-45h-52q-54 0 -54 -50v-27h138v-75h-218z" />
    <glyph glyph-name="wasle" horiz-adv-x="99" 
d="M-39 0l45 140h113v-140h-158z" />
    <glyph glyph-name="wasle_alt" horiz-adv-x="175" 
d="M-39 0l45 140h189v-140h-234z" />
    <glyph glyph-name="uni0654.medi" horiz-adv-x="335" 
d="M56 610v73q0 124 126 124h60v-45h-52q-54 0 -54 -50v-27h138v-75h-218z" />
    <glyph glyph-name="uni0654064B" 
d="M-94 0v36q0 124 126 124h50v-45h-42q-54 0 -54 -50h128v-65h-208zM-113 191v47l224 32v-47zM-114 273v47l224 32v-47z" />
    <glyph glyph-name="uni0654064E" 
d="M-112 193v50l224 32v-50zM-95 0v36q0 124 126 124h50v-45h-42q-54 0 -54 -50h128v-65h-208z" />
    <glyph glyph-name="uni0654064C" 
d="M-94 184l-41 106l47 19l25 -70l47 7q-6 15 -6 31q0 36 21 61t62 25q33 0 53.5 -22.5t20.5 -58.5q0 -32 -6 -63zM-77 0v36q0 124 126 124h50v-45h-42q-54 0 -54 -50h128v-65h-208zM22 280q0 -15 4 -27l60 10q1 4 1 16q0 15 -8.5 25t-24.5 10q-13 0 -22.5 -9.5t-9.5 -24.5z
" />
    <glyph glyph-name="uni0654064F" 
d="M-112 183l-5 47l79 13q-6 15 -6 31q0 36 20.5 61t61.5 25q34 0 54.5 -22.5t20.5 -58.5q0 -32 -6 -63zM-91 -1v36q0 124 126 124h50v-45h-42q-54 0 -54 -50h128v-65h-208zM-1 277q0 -16 4 -27l60 10q2 8 2 16q0 14 -8.5 24.5t-24.5 10.5q-14 0 -23.5 -9.5t-9.5 -24.5z" />
    <glyph glyph-name="uni06540652" 
d="M-3 192q-80 0 -80 89q0 42 23.5 66.5t62.5 24.5t60.5 -24.5t21.5 -66.5q0 -40 -25 -64.5t-63 -24.5zM0 239q37 0 37 41q0 44 -37 44q-13 0 -24 -10t-11 -32q0 -43 35 -43zM-104 0v36q0 124 126 124h50v-45h-42q-54 0 -54 -50h128v-65h-208z" />
    <glyph glyph-name="uni0654064D" 
d="M-110 -336v47l224 32v-47zM-111 -254v47l224 32v-47zM-113 -160v36q0 124 126 124h50v-45h-42q-54 0 -54 -50h128v-65h-208z" />
    <glyph glyph-name="uni06550650" 
d="M-113 -160v36q0 124 126 124h50v-45h-42q-54 0 -54 -50h128v-65h-208zM-111 -265v50l224 32v-50z" />
    <glyph glyph-name="wasla" 
d="M-136 0v55h69q0 37 25 64.5t66 27.5q52 0 82.5 -27.5t30.5 -80.5v-39h-273zM22 102q-21 0 -32.5 -13.5t-11.5 -33.5h89q0 20 -11.5 33.5t-33.5 13.5z" />
    <glyph glyph-name="uni0651064B" 
d="M-53 0q-59 0 -72 64l-11 56l49 10l10 -54q6 -28 28 -28q30 0 30 41q0 17 -7 52l50 7l10 -54q5 -25 27 -25q28 0 28 29q0 31 -14 66l50 11q12 -52 12 -72q0 -39 -21 -60t-59 -21q-27 0 -43 24q-19 -46 -67 -46zM-124 168v47l224 32v-47zM-125 250v47l224 32v-47z" />
    <glyph glyph-name="uni06F4.urdu" horiz-adv-x="730" 
d="M277 0h-140v674h140l187 -167l191 167v-184l-191 -164l-187 155v-481z" />
    <glyph glyph-name="uni06F7.urdu" horiz-adv-x="575" 
d="M500 0h-425v141l229 533h152l-229 -534h273v-140z" />
    <glyph glyph-name="acute.case" horiz-adv-x="317" 
d="M287 985l-143 -140h-114l118 140h139z" />
    <glyph glyph-name="circumflex.case" horiz-adv-x="473" 
d="M310 985l133 -140h-117l-88 84l-91 -84h-117l135 140h145z" />
    <glyph glyph-name="dieresis.case" horiz-adv-x="477" 
d="M104 983q33 0 54 -18.5t21 -48.5q0 -33 -23 -51q-21 -18 -52 -18t-52.5 18.5t-21.5 50.5q0 30 21 48.5t53 18.5zM373 983q32 0 53 -18.5t21 -48.5q0 -34 -22 -51q-21 -18 -52 -18t-52.5 18.5t-21.5 50.5q0 30 21 48.5t53 18.5z" />
    <glyph glyph-name="grave.case" horiz-adv-x="317" 
d="M173 845l-143 140h140l117 -140h-114z" />
    <glyph glyph-name="ring.case" horiz-adv-x="272" 
d="M137 1046q44 0 74.5 -28.5t30.5 -71.5q0 -44 -30 -72.5t-75 -28.5t-76 28.5t-31 72.5q0 43 31 71.5t76 28.5zM137 1002q-24 0 -41 -16t-17 -40q0 -25 17 -40.5t41 -15.5q23 0 39.5 15.5t16.5 40.5q0 24 -16.5 40t-39.5 16z" />
    <glyph glyph-name="tilde.case" horiz-adv-x="439" 
d="M289 926q24 0 35 13t17 41h68q-5 -63 -35.5 -96.5t-76.5 -33.5q-35 0 -81 27t-67 27q-24 0 -34.5 -13t-15.5 -41h-69q4 59 35.5 94.5t77.5 35.5q36 0 80.5 -27t65.5 -27z" />
    <glyph glyph-name="cedilla.case" horiz-adv-x="267" 
d="M34 -210l-4 57q40 -16 81 -16q64 0 64 35q0 36 -68 36q-32 0 -65 -7l63 106h55l-34 -57q26 2 49 -3t42.5 -23t19.5 -48q0 -47 -34.5 -70t-87.5 -23q-43 0 -81 13z" />
    <glyph glyph-name="caron.case" horiz-adv-x="473" 
d="M170 845l-140 140h110l95 -85l97 85h111l-142 -140h-131z" />
    <glyph glyph-name="macron.case" horiz-adv-x="354" 
d="M324 871h-294v86h294v-86z" />
    <glyph glyph-name="breve.case" horiz-adv-x="406" 
d="M376 994q-5 -72 -50.5 -110.5t-123.5 -38.5q-76 0 -122 38.5t-50 110.5h73q8 -77 100 -77q93 0 101 77h72z" />
    <glyph glyph-name="dotaccent.case" horiz-adv-x="209" 
d="M104 983q33 0 54 -18.5t21 -48.5q0 -33 -23 -51q-21 -18 -52 -18t-52.5 18.5t-21.5 50.5q0 30 21 48.5t53 18.5z" />
    <glyph glyph-name="hungarumlaut.case" horiz-adv-x="546" 
d="M287 985l-143 -140h-114l118 140h139zM516 985l-142 -140h-115l117 140h140z" />
    <glyph glyph-name="zero.ltn" horiz-adv-x="688" 
d="M344 126q68 0 104 56.5t36 160.5t-36 160.5t-104 56.5t-104.5 -56.5t-36.5 -160.5t36.5 -160.5t104.5 -56.5zM344 -11q-137 0 -211.5 97.5t-74.5 256.5t74.5 256.5t211.5 97.5t211.5 -97.5t74.5 -256.5t-74.5 -256.5t-211.5 -97.5z" />
    <glyph glyph-name="one..ltn" horiz-adv-x="400" 
d="M177 0v523l-157 -35v128l297 66v-682h-140z" />
    <glyph glyph-name="two..ltn" horiz-adv-x="606" 
d="M267 560q-81 0 -156 -59l-63 123q97 73 236 73q110 0 182 -51t72 -148q0 -93 -68.5 -179t-211.5 -189h287v-130h-499v125l85.5 63l76.5 58t75 62.5l53.5 55t41.5 57.5t12 49q0 44 -35 67t-88 23z" />
    <glyph glyph-name="three..ltn" horiz-adv-x="611" 
d="M267 -11q-64 0 -130.5 19.5t-111.5 52.5l62 125q75 -60 163 -60q63 0 106 22t43 63q0 43 -40.5 58.5t-119.5 15.5h-23v132h21q79 0 112 12.5t33 51.5q0 37 -36 58t-93 21q-86 0 -161 -59l-62 124q45 33 109.5 52.5t128.5 19.5q116 0 187.5 -51t71.5 -140q0 -51 -24.5 -93
t-60.5 -57q47 -17 75 -58.5t28 -104.5q0 -96 -76.5 -150t-201.5 -54z" />
    <glyph glyph-name="four..ltn" horiz-adv-x="676" 
d="M380 0v155h-343v129l304 390h179v-389h102v-130h-102v-155h-140zM180 285h200v260z" />
    <glyph glyph-name="five..ltn" horiz-adv-x="650" 
d="M309 -11q-141 0 -259 72l63 126q34 -27 84 -43.5t96 -16.5q63 0 104.5 23t41.5 74q0 96 -143 96q-95 0 -201 -38l48 392h404v-130h-291l-13 -103q39 7 86 7q51 0 94 -11t80.5 -36t59 -70.5t21.5 -108.5q0 -109 -79 -171t-196 -62z" />
    <glyph glyph-name="six..ltn" horiz-adv-x="626" 
d="M313 -11q-107 0 -185.5 70.5t-78.5 178.5q0 122 95 245l146 191h180l-153 -185q18 2 27 2q89 0 160.5 -71t71.5 -182q0 -107 -78 -178t-185 -71zM313 126q53 0 85.5 33.5t32.5 83.5q0 49 -32.5 82.5t-85.5 33.5q-54 0 -86.5 -33.5t-32.5 -82.5q0 -50 32.5 -83.5
t86.5 -33.5z" />
    <glyph glyph-name="seven..ltn" horiz-adv-x="593" 
d="M54 0l337 545h-354v129h511v-129l-326 -545h-168z" />
    <glyph glyph-name="eight..ltn" horiz-adv-x="674" 
d="M337 697q102 0 176 -49.5t74 -139.5q0 -48 -24.5 -91t-55.5 -57q42 -19 71.5 -63t29.5 -105q0 -69 -42.5 -116.5t-101.5 -67t-127 -19.5t-127 19.5t-101.5 67t-42.5 116.5q0 61 29.5 105t71.5 63q-31 14 -55.5 57t-24.5 91q0 90 74 139.5t176 49.5zM337 299
q-56 0 -90 -23.5t-34 -63.5q0 -39 34.5 -62.5t89.5 -23.5t89.5 23.5t34.5 62.5q0 40 -34 63.5t-90 23.5zM337 560q-46 0 -76.5 -19.5t-30.5 -51.5q0 -30 29 -50.5t78 -20.5q48 0 77 20.5t29 50.5q0 32 -30 51.5t-76 19.5z" />
    <glyph glyph-name="nine..ltn" horiz-adv-x="626" 
d="M313 697q107 0 185 -70.5t78 -178.5q0 -68 -24 -124.5t-70 -120.5l-146 -203h-180l152 198q-8 -2 -27 -2q-89 0 -160.5 70.5t-71.5 181.5q0 107 78 178t186 71zM313 560q-54 0 -86.5 -33t-32.5 -83t32.5 -83.5t86.5 -33.5q53 0 85.5 33.5t32.5 83.5t-32 83t-86 33z" />
    <glyph glyph-name="uni064A.ss01" horiz-adv-x="1053" 
d="M371 -125q-89 0 -148.5 19t-105.5 63q-67 63 -67 207v219h140v-202q0 -93 42 -128q45 -38 149 -38h146v282q0 144 86 213q68 53 191 53h189v-563h-140v423h-64q-53 0 -85 -25q-17 -13 -27 -39.5t-10 -52.5v-431h-296zM321 -308q-33 0 -55.5 19t-22.5 52q0 32 22.5 52
t55.5 20t55.5 -20t22.5 -52q0 -33 -22.5 -52t-55.5 -19zM538 -308q-33 0 -55.5 19t-22.5 52q0 32 22.5 52t55.5 20q34 0 56 -20t22 -52q0 -33 -22.5 -52t-55.5 -19z" />
    <glyph glyph-name="uni064A.fina.ss01" horiz-adv-x="1081" 
d="M371 -125q-89 0 -148.5 19t-105.5 63q-67 63 -67 207v219h140v-202q0 -93 42 -128q45 -38 149 -38h146v282q0 144 86 213q68 53 191 53h189v-423h107v-140h-247v423h-64q-53 0 -85 -25q-17 -13 -27 -39.5t-10 -52.5v-431h-296zM321 -308q-33 0 -55.5 19t-22.5 52
q0 32 22.5 52t55.5 20t55.5 -20t22.5 -52q0 -33 -22.5 -52t-55.5 -19zM538 -308q-33 0 -55.5 19t-22.5 52q0 32 22.5 52t55.5 20q34 0 56 -20t22 -52q0 -33 -22.5 -52t-55.5 -19z" />
    </font>
</defs>
</svg>
